<?xml version="1.0" encoding="UTF-8" standalone="no"?>
<!-- Created with Inkscape (http://www.inkscape.org/) -->

<svg
   version="1.1"
   id="svg1922"
   width="880"
   height="880"
   viewBox="0 0 880 880"
   sodipodi:docname="forest-glade-publicdomain-vector.svg"
   inkscape:version="1.2 (dc2aedaf03, 2022-05-15)"
   xmlns:inkscape="http://www.inkscape.org/namespaces/inkscape"
   xmlns:sodipodi="http://sodipodi.sourceforge.net/DTD/sodipodi-0.dtd"
   xmlns="http://www.w3.org/2000/svg"
   xmlns:svg="http://www.w3.org/2000/svg">
  <defs
     id="defs1926">
    <clipPath
       clipPathUnits="userSpaceOnUse"
       id="clipPath1938">
      <path
         d="M 0,660 H 660 V 0 H 0 Z"
         id="path1936" />
    </clipPath>
  </defs>
  <sodipodi:namedview
     id="namedview1924"
     pagecolor="#ffffff"
     bordercolor="#000000"
     borderopacity="0.25"
     inkscape:showpageshadow="2"
     inkscape:pageopacity="0.0"
     inkscape:pagecheckerboard="0"
     inkscape:deskcolor="#d1d1d1"
     showgrid="false"
     inkscape:zoom="0.95113636"
     inkscape:cx="441.05137"
     inkscape:cy="440.52569"
     inkscape:window-width="1920"
     inkscape:window-height="1017"
     inkscape:window-x="-8"
     inkscape:window-y="-8"
     inkscape:window-maximized="1"
     inkscape:current-layer="g1930">
    <inkscape:page
       x="0"
       y="0"
       id="page1928"
       width="880"
       height="880" />
  </sodipodi:namedview>
  <g
     id="g1930"
     inkscape:groupmode="layer"
     inkscape:label="Page 1"
     transform="matrix(1.3333333,0,0,-1.3333333,0,880)">
    <g
       id="g1932">
      <g
         id="g1934"
         clip-path="url(#clipPath1938)">
        <g
           id="g1940"
           transform="translate(330.083,163.6475)">
          <path
             d="m 0,0 c 108.894,0 197.71,88.815 197.71,197.71 0,108.896 -88.816,197.712 -197.71,197.712 -108.897,0 -197.711,-88.816 -197.711,-197.712 C -197.711,88.815 -108.897,0 0,0"
             style="fill:#bcd4eb;fill-opacity:1;fill-rule:evenodd;stroke:none"
             id="path1942" />
        </g>
        <g
           id="g1944"
           transform="translate(401.7979,350.1094)">
          <path
             d="m 0,0 c 4.111,2.702 7.326,6.591 9.911,11.313 -1.442,0.872 -2.679,2.25 -3.472,4.136 3.543,3.566 5.847,9.636 7.502,17.02 1.657,-7.384 3.96,-13.454 7.502,-17.02 C 20.651,13.563 19.415,12.185 17.975,11.313 20.558,6.591 23.772,2.702 27.884,0 26.482,-2.177 24.333,-3.796 21.82,-4.86 c 3.409,-4.336 7.503,-7.945 12.505,-10.588 -1.884,-2.357 -4.694,-4.157 -7.995,-5.405 4.063,-4.044 8.813,-7.45 14.437,-10.045 -2.275,-2.483 -5.575,-4.429 -9.456,-5.84 4.581,-3.812 9.83,-7.056 15.898,-9.609 -13.077,-13.008 -53.457,-13.008 -66.534,0 6.068,2.553 11.316,5.797 15.896,9.609 -3.881,1.411 -7.179,3.357 -9.455,5.84 5.624,2.595 10.373,6.001 14.438,10.045 -3.302,1.248 -6.112,3.048 -7.996,5.405 5.003,2.643 9.094,6.252 12.505,10.588 C 3.55,-3.796 1.399,-2.177 0,0"
             style="fill:#1c3606;fill-opacity:1;fill-rule:evenodd;stroke:none"
             id="path1946" />
        </g>
        <g
           id="g1948"
           transform="translate(375.2432,371.8643)">
          <path
             d="m 0,0 c 4.112,2.702 7.328,6.591 9.911,11.313 -1.441,0.873 -2.679,2.251 -3.47,4.136 3.541,3.566 5.846,9.634 7.501,17.019 1.656,-7.385 3.961,-13.453 7.502,-17.019 C 20.653,13.564 19.417,12.186 17.975,11.313 20.56,6.591 23.774,2.702 27.886,0 26.484,-2.177 24.335,-3.797 21.82,-4.861 c 3.411,-4.335 7.505,-7.945 12.507,-10.587 -1.886,-2.357 -4.695,-4.157 -7.995,-5.405 4.064,-4.043 8.814,-7.45 14.435,-10.044 -2.273,-2.484 -5.573,-4.43 -9.455,-5.841 4.581,-3.812 9.83,-7.057 15.897,-9.609 -13.075,-13.008 -53.457,-13.008 -66.532,0 6.066,2.552 11.315,5.797 15.896,9.609 -3.881,1.412 -7.181,3.357 -9.455,5.841 5.622,2.594 10.372,6.001 14.436,10.044 -3.3,1.248 -6.11,3.048 -7.994,5.405 5,2.642 9.094,6.252 12.505,10.587 C 3.55,-3.797 1.401,-2.177 0,0"
             style="fill:#1c3606;fill-opacity:1;fill-rule:evenodd;stroke:none"
             id="path1950" />
        </g>
        <g
           id="g1952"
           transform="translate(273.957,330.5537)">
          <path
             d="m 0,0 c 4.113,2.702 7.327,6.59 9.911,11.313 -1.44,0.872 -2.677,2.251 -3.469,4.136 3.541,3.565 5.846,9.635 7.501,17.019 1.656,-7.384 3.96,-13.454 7.501,-17.019 C 20.651,13.564 19.416,12.185 17.975,11.313 20.56,6.59 23.775,2.702 27.886,0 c -1.401,-2.178 -3.55,-3.798 -6.065,-4.861 3.411,-4.336 7.504,-7.946 12.505,-10.588 -1.884,-2.356 -4.692,-4.157 -7.994,-5.404 4.064,-4.044 8.813,-7.45 14.438,-10.045 -2.276,-2.484 -5.577,-4.429 -9.456,-5.841 4.581,-3.811 9.829,-7.056 15.896,-9.609 -13.076,-13.008 -53.457,-13.008 -66.533,0 6.068,2.553 11.315,5.798 15.895,9.609 -3.879,1.412 -7.18,3.357 -9.453,5.841 5.621,2.595 10.371,6.001 14.435,10.045 -3.299,1.247 -6.11,3.048 -7.993,5.404 5.001,2.642 9.094,6.252 12.504,10.588 C 3.553,-3.798 1.401,-2.178 0,0"
             style="fill:#1c3606;fill-opacity:1;fill-rule:evenodd;stroke:none"
             id="path1954" />
        </g>
        <g
           id="g1956"
           transform="translate(188.2188,335.9922)">
          <path
             d="m 0,0 c 4.111,2.702 7.327,6.59 9.91,11.311 -1.441,0.874 -2.677,2.253 -3.469,4.138 3.542,3.566 5.845,9.634 7.5,17.019 1.658,-7.385 3.962,-13.453 7.502,-17.019 C 20.652,13.564 19.416,12.185 17.974,11.311 20.559,6.59 23.773,2.702 27.886,0 c -1.401,-2.178 -3.552,-3.798 -6.065,-4.861 3.409,-4.336 7.504,-7.945 12.505,-10.588 -1.884,-2.357 -4.694,-4.158 -7.993,-5.404 4.062,-4.044 8.812,-7.45 14.435,-10.045 -2.273,-2.484 -5.575,-4.429 -9.456,-5.841 4.581,-3.811 9.83,-7.056 15.898,-9.609 -13.077,-13.009 -53.457,-13.009 -66.533,0 6.067,2.553 11.315,5.798 15.895,9.609 -3.881,1.412 -7.18,3.357 -9.454,5.841 5.622,2.595 10.372,6.001 14.436,10.045 -3.3,1.246 -6.112,3.047 -7.995,5.404 5.002,2.643 9.095,6.252 12.505,10.588 C 3.551,-3.797 1.4,-2.178 0,0"
             style="fill:#1c3606;fill-opacity:1;fill-rule:evenodd;stroke:none"
             id="path1958" />
        </g>
        <g
           id="g1960"
           transform="translate(236.2158,341.793)">
          <path
             d="m 0,0 c 4.113,2.702 7.328,6.59 9.913,11.313 -1.442,0.871 -2.679,2.25 -3.471,4.136 3.541,3.566 5.846,9.635 7.501,17.019 1.658,-7.384 3.96,-13.453 7.503,-17.019 C 20.653,13.563 19.417,12.184 17.977,11.313 20.56,6.59 23.775,2.702 27.886,0 c -1.401,-2.178 -3.55,-3.797 -6.065,-4.861 3.411,-4.335 7.504,-7.945 12.507,-10.588 -1.886,-2.356 -4.694,-4.156 -7.995,-5.405 4.064,-4.043 8.813,-7.448 14.437,-10.043 -2.276,-2.484 -5.575,-4.43 -9.455,-5.842 4.58,-3.81 9.828,-7.056 15.895,-9.608 -13.074,-13.01 -53.456,-13.01 -66.533,0 6.068,2.552 11.317,5.798 15.897,9.608 -3.881,1.412 -7.182,3.358 -9.455,5.842 5.621,2.595 10.373,6 14.435,10.043 -3.299,1.249 -6.11,3.049 -7.993,5.405 5.001,2.643 9.095,6.253 12.505,10.588 C 3.553,-3.797 1.401,-2.178 0,0"
             style="fill:#1c3606;fill-opacity:1;fill-rule:evenodd;stroke:none"
             id="path1962" />
        </g>
        <g
           id="g1964"
           transform="translate(413.1777,359.0928)">
          <path
             d="m 0,0 c 5.66,3.719 10.086,9.071 13.643,15.57 -1.984,1.201 -3.686,3.099 -4.776,5.694 4.874,4.908 8.047,13.263 10.324,23.427 C 21.472,34.527 24.644,26.172 29.518,21.264 28.428,18.669 26.727,16.771 24.742,15.57 28.299,9.071 32.724,3.719 38.383,0 c -1.927,-2.997 -4.886,-5.227 -8.346,-6.691 4.694,-5.969 10.329,-10.936 17.214,-14.575 -2.595,-3.242 -6.463,-5.721 -11.004,-7.438 5.592,-5.567 12.13,-10.254 19.869,-13.826 -3.129,-3.418 -7.673,-6.097 -13.014,-8.041 6.304,-5.245 13.529,-9.711 21.88,-13.225 -17.997,-17.906 -73.581,-17.906 -91.579,0 8.351,3.514 15.575,7.98 21.879,13.225 -5.341,1.944 -9.884,4.623 -13.013,8.041 7.739,3.572 14.278,8.259 19.87,13.826 -4.542,1.717 -8.41,4.196 -11.004,7.438 6.885,3.639 12.519,8.606 17.214,14.575 C 4.889,-5.227 1.929,-2.998 0,0"
             style="fill:#417811;fill-opacity:1;fill-rule:evenodd;stroke:none"
             id="path1966" />
        </g>
        <g
           id="g1968"
           transform="translate(432.3691,403.7837)">
          <path
             d="m 0,0 c 2.28,-10.164 5.452,-18.519 10.326,-23.427 -1.09,-2.596 -2.791,-4.492 -4.775,-5.694 3.557,-6.499 7.982,-11.851 13.64,-15.57 -1.926,-2.997 -4.885,-5.227 -8.345,-6.691 4.694,-5.968 10.329,-10.936 17.214,-14.575 -2.595,-3.241 -6.463,-5.722 -11.004,-7.438 5.592,-5.566 12.13,-10.254 19.869,-13.826 -3.131,-3.418 -7.673,-6.097 -13.015,-8.041 6.307,-5.244 13.53,-9.711 21.881,-13.225 -8.925,-8.88 -27.092,-13.353 -45.335,-13.427 9.544,0.137 19.014,4.614 23.685,13.427 -4.403,3.514 -8.212,7.982 -11.536,13.225 2.816,1.944 5.211,4.623 6.862,8.04 -4.081,3.572 -7.526,8.261 -10.475,13.826 2.394,1.717 4.434,4.197 5.8,7.44 -3.629,3.638 -6.6,8.606 -9.074,14.574 1.823,1.464 3.384,3.694 4.4,6.69 -2.983,3.72 -5.315,9.072 -7.191,15.571 1.047,1.202 1.942,3.098 2.517,5.695 C 2.876,-18.52 1.203,-10.164 0,0"
             style="fill:#2d5708;fill-opacity:1;fill-rule:evenodd;stroke:none"
             id="path1970" />
        </g>
        <g
           id="g1972"
           transform="translate(355.5078,366.9316)">
          <path
             d="m 0,0 c 5.66,3.72 10.086,9.071 13.643,15.571 -1.984,1.202 -3.685,3.099 -4.777,5.695 4.875,4.907 8.048,13.261 10.325,23.425 C 21.472,34.527 24.644,26.173 29.518,21.266 28.428,18.67 26.727,16.773 24.741,15.571 28.299,9.071 32.724,3.72 38.384,0 c -1.929,-2.997 -4.887,-5.227 -8.349,-6.69 4.695,-5.968 10.329,-10.936 17.216,-14.575 -2.595,-3.243 -6.463,-5.721 -11.006,-7.438 5.594,-5.567 12.132,-10.255 19.871,-13.827 -3.131,-3.418 -7.673,-6.097 -13.014,-8.04 6.304,-5.244 13.528,-9.712 21.88,-13.225 -17.998,-17.907 -73.583,-17.907 -91.581,0 8.353,3.513 15.577,7.981 21.881,13.225 -5.342,1.943 -9.884,4.622 -13.013,8.04 7.738,3.572 14.276,8.26 19.87,13.827 -4.542,1.717 -8.41,4.195 -11.004,7.438 6.885,3.639 12.519,8.607 17.214,14.575 C 4.887,-5.227 1.929,-2.997 0,0"
             style="fill:#417811;fill-opacity:1;fill-rule:evenodd;stroke:none"
             id="path1974" />
        </g>
        <g
           id="g1976"
           transform="translate(374.6992,411.623)">
          <path
             d="m 0,0 c 2.28,-10.164 5.452,-18.518 10.326,-23.426 -1.09,-2.595 -2.791,-4.493 -4.775,-5.694 3.556,-6.5 7.981,-11.852 13.641,-15.571 -1.928,-2.997 -4.886,-5.227 -8.348,-6.691 4.694,-5.968 10.329,-10.935 17.216,-14.574 -2.595,-3.243 -6.463,-5.722 -11.006,-7.439 5.593,-5.566 12.132,-10.254 19.871,-13.827 -3.131,-3.418 -7.673,-6.096 -13.015,-8.04 6.305,-5.244 13.53,-9.712 21.881,-13.224 -8.925,-8.88 -27.093,-13.354 -45.336,-13.428 9.546,0.139 19.015,4.614 23.686,13.428 -4.404,3.512 -8.212,7.98 -11.536,13.224 2.816,1.944 5.211,4.622 6.86,8.04 -4.079,3.573 -7.526,8.261 -10.475,13.826 2.396,1.717 4.434,4.197 5.802,7.44 -3.63,3.639 -6.601,8.606 -9.074,14.573 1.823,1.465 3.384,3.695 4.4,6.692 -2.983,3.719 -5.317,9.072 -7.191,15.57 1.045,1.201 1.942,3.099 2.517,5.695 C 2.874,-18.518 1.201,-10.163 0,0"
             style="fill:#2d5708;fill-opacity:1;fill-rule:evenodd;stroke:none"
             id="path1978" />
        </g>
        <g
           id="g1980"
           transform="translate(385.666,338.6172)">
          <path
             d="M 0,0 C 5.66,3.72 10.084,9.071 13.643,15.571 11.656,16.772 9.955,18.67 8.865,21.266 13.74,26.173 16.911,34.527 19.191,44.691 21.469,34.527 24.642,26.173 29.517,21.266 28.427,18.67 26.724,16.772 24.74,15.571 28.297,9.071 32.723,3.72 38.383,0 c -1.929,-2.997 -4.887,-5.227 -8.348,-6.691 4.694,-5.967 10.328,-10.935 17.213,-14.574 -2.592,-3.243 -6.46,-5.721 -11.004,-7.439 5.592,-5.567 12.131,-10.253 19.872,-13.826 -3.132,-3.417 -7.673,-6.097 -13.015,-8.04 6.304,-5.245 13.528,-9.713 21.881,-13.225 -17.999,-17.908 -73.583,-17.908 -91.582,0 8.352,3.512 15.577,7.98 21.881,13.225 -5.341,1.943 -9.884,4.623 -13.014,8.04 7.739,3.573 14.278,8.259 19.871,13.826 -4.543,1.718 -8.411,4.196 -11.004,7.439 6.885,3.639 12.519,8.607 17.214,14.574 C 4.886,-5.227 1.928,-2.997 0,0"
             style="fill:#417811;fill-opacity:1;fill-rule:evenodd;stroke:none"
             id="path1982" />
        </g>
        <g
           id="g1984"
           transform="translate(404.8574,383.3086)">
          <path
             d="m 0,0 c 2.277,-10.164 5.45,-18.519 10.325,-23.426 -1.09,-2.596 -2.791,-4.493 -4.775,-5.694 3.555,-6.5 7.981,-11.852 13.641,-15.571 -1.928,-2.998 -4.886,-5.227 -8.347,-6.692 4.693,-5.967 10.328,-10.934 17.213,-14.573 -2.592,-3.243 -6.46,-5.722 -11.004,-7.44 5.592,-5.566 12.131,-10.252 19.872,-13.826 -3.132,-3.417 -7.673,-6.096 -13.016,-8.04 6.305,-5.245 13.53,-9.713 21.881,-13.224 -8.926,-8.879 -27.093,-13.354 -45.336,-13.427 9.546,0.138 19.015,4.613 23.684,13.428 -4.402,3.512 -8.209,7.978 -11.535,13.223 2.817,1.944 5.211,4.623 6.862,8.04 -4.08,3.573 -7.527,8.261 -10.476,13.826 2.396,1.718 4.434,4.197 5.802,7.44 -3.63,3.638 -6.601,8.606 -9.074,14.573 1.824,1.465 3.384,3.694 4.4,6.692 -2.984,3.719 -5.316,9.071 -7.191,15.571 1.045,1.201 1.943,3.098 2.517,5.694 C 2.873,-18.519 1.2,-10.164 0,0"
             style="fill:#2d5708;fill-opacity:1;fill-rule:evenodd;stroke:none"
             id="path1986" />
        </g>
        <g
           id="g1988"
           transform="translate(291.5654,352.0332)">
          <path
             d="m 0,0 c 5.661,3.72 10.087,9.071 13.643,15.57 -1.985,1.202 -3.686,3.1 -4.776,5.696 4.874,4.907 8.048,13.261 10.325,23.425 C 21.471,34.527 24.644,26.173 29.519,21.266 28.429,18.67 26.726,16.772 24.743,15.57 28.299,9.071 32.725,3.72 38.385,0 c -1.929,-2.996 -4.889,-5.226 -8.349,-6.69 4.694,-5.969 10.329,-10.936 17.214,-14.575 -2.593,-3.242 -6.462,-5.722 -11.004,-7.438 5.594,-5.567 12.132,-10.255 19.87,-13.827 -3.13,-3.418 -7.672,-6.097 -13.013,-8.04 6.304,-5.245 13.528,-9.712 21.88,-13.225 -17.999,-17.907 -73.583,-17.907 -91.581,0 8.351,3.513 15.576,7.98 21.879,13.225 -5.341,1.943 -9.882,4.622 -13.012,8.04 7.739,3.572 14.277,8.26 19.869,13.827 -4.541,1.716 -8.41,4.196 -11.002,7.438 6.885,3.639 12.519,8.606 17.214,14.575 C 4.888,-5.226 1.929,-2.996 0,0"
             style="fill:#417811;fill-opacity:1;fill-rule:evenodd;stroke:none"
             id="path1990" />
        </g>
        <g
           id="g1992"
           transform="translate(310.7578,396.7241)">
          <path
             d="m 0,0 c 2.278,-10.164 5.451,-18.518 10.326,-23.425 -1.09,-2.596 -2.793,-4.494 -4.775,-5.696 3.556,-6.499 7.981,-11.85 13.641,-15.57 -1.928,-2.996 -4.888,-5.226 -8.348,-6.69 4.694,-5.969 10.329,-10.936 17.214,-14.575 -2.593,-3.242 -6.462,-5.722 -11.004,-7.438 5.594,-5.566 12.132,-10.255 19.87,-13.827 -3.13,-3.418 -7.672,-6.097 -13.014,-8.04 6.305,-5.245 13.529,-9.712 21.881,-13.225 -8.925,-8.881 -27.093,-13.354 -45.336,-13.428 9.544,0.139 19.015,4.614 23.686,13.428 -4.405,3.513 -8.213,7.981 -11.536,13.225 2.816,1.943 5.21,4.622 6.86,8.04 -4.079,3.572 -7.526,8.261 -10.475,13.826 2.394,1.717 4.434,4.197 5.802,7.439 -3.63,3.639 -6.601,8.607 -9.076,14.574 1.824,1.465 3.384,3.695 4.4,6.691 -2.983,3.72 -5.315,9.072 -7.189,15.57 1.045,1.202 1.941,3.099 2.515,5.696 C 2.874,-18.518 1.201,-10.164 0,0"
             style="fill:#2d5708;fill-opacity:1;fill-rule:evenodd;stroke:none"
             id="path1994" />
        </g>
        <g
           id="g1996"
           transform="translate(253.2109,323.9014)">
          <path
             d="m 0,0 c 5.658,3.72 10.084,9.071 13.641,15.57 -1.985,1.202 -3.687,3.1 -4.777,5.696 4.875,4.907 8.048,13.261 10.325,23.425 C 21.47,34.527 24.642,26.173 29.516,21.266 28.426,18.67 26.723,16.772 24.74,15.57 28.297,9.071 32.721,3.72 38.381,0 c -1.927,-2.997 -4.886,-5.227 -8.348,-6.69 4.697,-5.968 10.329,-10.936 17.214,-14.576 -2.593,-3.242 -6.462,-5.72 -11.003,-7.438 5.592,-5.566 12.131,-10.254 19.87,-13.825 -3.129,-3.419 -7.673,-6.098 -13.014,-8.042 6.304,-5.244 13.529,-9.711 21.881,-13.223 -17.998,-17.908 -73.581,-17.908 -91.581,0 8.352,3.512 15.576,7.979 21.881,13.223 -5.344,1.944 -9.885,4.623 -13.014,8.042 7.738,3.571 14.276,8.259 19.87,13.825 -4.542,1.718 -8.41,4.196 -11.004,7.438 6.885,3.64 12.519,8.608 17.213,14.576 C 4.887,-5.227 1.927,-2.997 0,0"
             style="fill:#417811;fill-opacity:1;fill-rule:evenodd;stroke:none"
             id="path1998" />
        </g>
        <g
           id="g2000"
           transform="translate(272.4004,368.5928)">
          <path
             d="m 0,0 c 2.28,-10.164 5.452,-18.519 10.326,-23.426 -1.09,-2.596 -2.793,-4.493 -4.775,-5.695 3.556,-6.499 7.98,-11.851 13.64,-15.57 -1.926,-2.998 -4.885,-5.227 -8.347,-6.691 4.696,-5.968 10.329,-10.935 17.214,-14.575 -2.593,-3.242 -6.462,-5.721 -11.003,-7.439 5.592,-5.565 12.131,-10.253 19.87,-13.825 -3.129,-3.419 -7.673,-6.097 -13.014,-8.042 6.304,-5.244 13.528,-9.711 21.88,-13.222 -8.925,-8.881 -27.094,-13.354 -45.336,-13.429 9.545,0.139 19.015,4.615 23.686,13.429 -4.405,3.511 -8.212,7.978 -11.537,13.222 2.818,1.945 5.212,4.623 6.863,8.042 -4.08,3.572 -7.528,8.26 -10.476,13.825 2.395,1.718 4.433,4.197 5.8,7.44 -3.63,3.638 -6.6,8.606 -9.073,14.573 1.823,1.465 3.385,3.694 4.4,6.691 -2.985,3.72 -5.317,9.072 -7.191,15.571 1.045,1.201 1.942,3.098 2.517,5.695 C 2.874,-18.519 1.201,-10.164 0,0"
             style="fill:#2d5708;fill-opacity:1;fill-rule:evenodd;stroke:none"
             id="path2002" />
        </g>
        <g
           id="g2004"
           transform="translate(207.4219,322.1787)">
          <path
             d="m 0,0 c 5.661,3.72 10.086,9.07 13.643,15.571 -1.985,1.202 -3.686,3.099 -4.776,5.695 4.874,4.907 8.046,13.261 10.326,23.425 C 21.471,34.527 24.644,26.173 29.519,21.266 28.429,18.67 26.726,16.773 24.742,15.571 28.299,9.07 32.725,3.72 38.385,0 c -1.929,-2.997 -4.889,-5.227 -8.349,-6.691 4.694,-5.967 10.329,-10.935 17.214,-14.575 -2.594,-3.242 -6.462,-5.72 -11.004,-7.438 5.592,-5.566 12.131,-10.254 19.87,-13.826 -3.131,-3.417 -7.671,-6.096 -13.015,-8.04 6.306,-5.245 13.53,-9.713 21.881,-13.225 -17.999,-17.908 -73.583,-17.908 -91.58,0 8.352,3.512 15.576,7.98 21.88,13.225 -5.341,1.944 -9.884,4.623 -13.013,8.04 7.739,3.572 14.278,8.26 19.869,13.826 -4.541,1.718 -8.409,4.196 -11.002,7.438 6.885,3.64 12.517,8.608 17.214,14.575 C 4.888,-5.227 1.929,-2.997 0,0"
             style="fill:#417811;fill-opacity:1;fill-rule:evenodd;stroke:none"
             id="path2006" />
        </g>
        <g
           id="g2008"
           transform="translate(226.6152,366.8701)">
          <path
             d="m 0,0 c 2.277,-10.164 5.45,-18.518 10.325,-23.426 -1.09,-2.595 -2.793,-4.493 -4.776,-5.694 3.556,-6.501 7.982,-11.852 13.64,-15.571 -1.926,-2.998 -4.886,-5.227 -8.346,-6.692 4.694,-5.967 10.329,-10.934 17.214,-14.574 -2.594,-3.242 -6.462,-5.721 -11.004,-7.439 5.592,-5.566 12.131,-10.253 19.87,-13.826 -3.131,-3.417 -7.671,-6.095 -13.014,-8.04 6.305,-5.245 13.529,-9.713 21.88,-13.224 -8.925,-8.879 -27.092,-13.354 -45.335,-13.429 9.544,0.14 19.014,4.615 23.684,13.43 -4.402,3.51 -8.211,7.978 -11.534,13.223 2.814,1.945 5.21,4.623 6.859,8.04 -4.079,3.573 -7.526,8.261 -10.474,13.826 2.395,1.717 4.434,4.197 5.8,7.44 -3.628,3.638 -6.598,8.606 -9.074,14.573 1.824,1.465 3.384,3.694 4.4,6.692 -2.982,3.719 -5.314,9.071 -7.189,15.57 1.045,1.202 1.941,3.099 2.516,5.695 C 2.872,-18.518 1.2,-10.164 0,0"
             style="fill:#2d5708;fill-opacity:1;fill-rule:evenodd;stroke:none"
             id="path2010" />
        </g>
        <g
           id="g2012"
           transform="translate(311.4844,376.2373)">
          <path
             d="m 0,0 c 10.299,6.767 18.348,16.503 24.819,28.328 -3.61,2.187 -6.705,5.638 -8.689,10.36 8.869,8.929 14.64,24.129 18.787,42.621 C 39.063,62.817 44.834,47.617 53.701,38.688 51.719,33.966 48.623,30.514 45.012,28.328 51.483,16.503 59.534,6.767 69.832,0 66.324,-5.453 60.94,-9.51 54.645,-12.174 c 8.54,-10.857 18.791,-19.894 31.319,-26.515 -4.72,-5.899 -11.757,-10.41 -20.021,-13.534 10.174,-10.127 22.07,-18.655 36.151,-25.155 -5.696,-6.219 -13.959,-11.092 -23.678,-14.628 11.472,-9.541 24.613,-17.669 39.809,-24.06 -32.746,-32.58 -133.873,-32.58 -166.618,0 15.195,6.391 28.337,14.519 39.81,24.06 -9.719,3.536 -17.983,8.409 -23.68,14.628 14.081,6.5 25.979,15.028 36.154,25.155 -8.264,3.124 -15.302,7.635 -20.023,13.534 12.527,6.621 22.78,15.658 31.32,26.515 C 8.891,-9.509 3.508,-5.453 0,0"
             style="fill:#6aa834;fill-opacity:1;fill-rule:evenodd;stroke:none"
             id="path2014" />
        </g>
        <g
           id="g2016"
           transform="translate(346.4014,457.5464)">
          <path
             d="m 0,0 c 4.146,-18.492 9.917,-33.691 18.784,-42.621 -1.982,-4.722 -5.078,-8.174 -8.689,-10.359 6.471,-11.826 14.522,-21.562 24.82,-28.329 -3.508,-5.453 -8.892,-9.51 -15.187,-12.174 8.54,-10.857 18.792,-19.895 31.319,-26.516 -4.72,-5.898 -11.757,-10.409 -20.021,-13.533 10.174,-10.127 22.07,-18.655 36.151,-25.155 -5.696,-6.219 -13.959,-11.092 -23.678,-14.628 11.472,-9.541 24.613,-17.669 39.809,-24.06 -16.238,-16.157 -49.291,-24.296 -82.483,-24.43 17.366,0.251 34.595,8.394 43.092,24.43 -8.011,6.391 -14.939,14.519 -20.986,24.06 5.123,3.536 9.48,8.409 12.482,14.628 -7.423,6.5 -13.694,15.029 -19.058,25.154 4.356,3.125 8.067,7.636 10.555,13.535 -6.603,6.62 -12.008,15.659 -16.51,26.515 3.319,2.665 6.158,6.721 8.006,12.173 -5.429,6.768 -9.673,16.505 -13.085,28.328 1.904,2.187 3.536,5.639 4.581,10.362 C 5.228,-33.693 2.184,-18.492 0,0"
             style="fill:#5f992c;fill-opacity:1;fill-rule:evenodd;stroke:none"
             id="path2018" />
        </g>
        <g
           id="g2020"
           transform="translate(438.7461,347.4512)">
          <path
             d="m 0,0 c 8.13,5.342 14.486,13.028 19.594,22.363 -2.851,1.726 -5.294,4.45 -6.86,8.178 7.002,7.049 11.557,19.048 14.83,33.646 C 30.837,49.589 35.393,37.59 42.395,30.541 40.829,26.813 38.385,24.089 35.535,22.363 40.643,13.028 46.999,5.342 55.128,0 c -2.769,-4.305 -7.02,-7.507 -11.989,-9.61 6.742,-8.571 14.835,-15.706 24.723,-20.932 -3.725,-4.657 -9.28,-8.218 -15.804,-10.684 8.031,-7.994 17.422,-14.726 28.538,-19.858 -4.495,-4.908 -11.02,-8.757 -18.693,-11.547 9.057,-7.533 19.432,-13.949 31.427,-18.994 -25.85,-25.72 -105.682,-25.72 -131.53,0 11.993,5.045 22.37,11.461 31.425,18.994 -7.673,2.791 -14.198,6.639 -18.693,11.547 11.116,5.132 20.507,11.864 28.54,19.858 -6.524,2.466 -12.081,6.027 -15.806,10.684 9.889,5.226 17.983,12.361 24.724,20.932 C 7.02,-7.506 2.771,-4.305 0,0"
             style="fill:#6aa834;fill-opacity:1;fill-rule:evenodd;stroke:none"
             id="path2022" />
        </g>
        <g
           id="g2024"
           transform="translate(466.3105,411.6382)">
          <path
             d="m 0,0 c 3.273,-14.598 7.829,-26.597 14.83,-33.646 -1.565,-3.728 -4.01,-6.452 -6.859,-8.178 5.108,-9.335 11.464,-17.021 19.593,-22.363 -2.769,-4.305 -7.02,-7.507 -11.99,-9.61 6.743,-8.571 14.835,-15.706 24.724,-20.932 -3.726,-4.656 -9.28,-8.218 -15.805,-10.684 8.032,-7.994 17.423,-14.726 28.538,-19.858 -4.495,-4.908 -11.019,-8.757 -18.69,-11.547 9.055,-7.533 19.43,-13.949 31.425,-18.994 -12.819,-12.755 -38.911,-19.179 -65.113,-19.284 13.708,0.197 27.309,6.625 34.016,19.284 -6.322,5.047 -11.793,11.461 -16.566,18.994 4.044,2.791 7.483,6.639 9.853,11.547 -5.858,5.131 -10.81,11.864 -15.044,19.857 3.44,2.467 6.367,6.028 8.332,10.685 -5.214,5.226 -9.48,12.361 -13.034,20.932 2.62,2.103 4.861,5.305 6.321,9.609 -4.286,5.343 -7.636,13.029 -10.329,22.363 1.501,1.726 2.791,4.451 3.615,8.18 C 4.127,-26.597 1.726,-14.597 0,0"
             style="fill:#5f992c;fill-opacity:1;fill-rule:evenodd;stroke:none"
             id="path2026" />
        </g>
        <g
           id="g2028"
           transform="translate(163.3848,331.5947)">
          <path
             d="M 0,0 C 6.893,4.531 12.284,11.05 16.617,18.966 14.2,20.43 12.127,22.74 10.8,25.902 16.736,31.879 20.601,42.056 23.376,54.436 26.151,42.056 30.016,31.879 35.953,25.902 34.626,22.74 32.553,20.43 30.136,18.966 34.468,11.05 39.859,4.531 46.752,0 44.402,-3.65 40.8,-6.366 36.584,-8.149 c 5.719,-7.269 12.581,-13.32 20.967,-17.752 -3.159,-3.95 -7.871,-6.969 -13.403,-9.061 6.812,-6.779 14.776,-12.489 24.204,-16.84 -3.815,-4.164 -9.347,-7.427 -15.853,-9.794 7.68,-6.387 16.478,-11.83 26.651,-16.108 -21.921,-21.813 -89.626,-21.813 -111.548,0 10.173,4.278 18.972,9.721 26.651,16.108 -6.506,2.367 -12.039,5.63 -15.851,9.794 9.427,4.351 17.391,10.061 24.203,16.84 -5.533,2.092 -10.245,5.111 -13.404,9.061 8.386,4.432 15.25,10.483 20.967,17.752 C 5.953,-6.365 2.349,-3.65 0,0"
             style="fill:#6aa834;fill-opacity:1;fill-rule:evenodd;stroke:none"
             id="path2030" />
        </g>
        <g
           id="g2032"
           transform="translate(186.7607,386.0303)">
          <path
             d="m 0,0 c 2.775,-12.38 6.64,-22.556 12.577,-28.533 -1.327,-3.162 -3.4,-5.473 -5.817,-6.937 4.332,-7.916 9.723,-14.434 16.616,-18.966 -2.35,-3.65 -5.952,-6.366 -10.168,-8.149 5.719,-7.269 12.581,-13.319 20.967,-17.752 -3.159,-3.949 -7.871,-6.969 -13.402,-9.061 6.811,-6.779 14.775,-12.489 24.203,-16.839 -3.815,-4.164 -9.347,-7.427 -15.853,-9.794 7.68,-6.388 16.479,-11.83 26.652,-16.109 -10.873,-10.816 -33.002,-16.264 -55.221,-16.353 11.626,0.168 23.16,5.618 28.847,16.353 -5.361,4.279 -10,9.721 -14.048,16.109 3.43,2.368 6.347,5.63 8.355,9.794 -4.969,4.35 -9.166,10.06 -12.758,16.839 2.917,2.092 5.4,5.112 7.067,9.062 -4.422,4.432 -8.039,10.482 -11.054,17.751 2.223,1.784 4.122,4.499 5.361,8.149 -3.635,4.532 -6.476,11.051 -8.76,18.966 1.273,1.464 2.367,3.775 3.066,6.937 C 3.5,-22.557 1.463,-12.38 0,0"
             style="fill:#5f992c;fill-opacity:1;fill-rule:evenodd;stroke:none"
             id="path2034" />
        </g>
        <g
           id="g2036"
           transform="translate(120.2134,236.5928)">
          <path
             d="m 0,0 0.13,-0.003 c -0.787,1.977 -1.219,4.132 -1.219,6.39 0,9.547 7.74,17.286 17.288,17.286 8.827,0 16.109,-6.616 17.158,-15.161 1.015,0.321 2.077,0.54 3.173,0.64 1.343,9.828 9.77,17.401 19.967,17.401 9.032,0 16.676,-5.941 19.238,-14.13 1.453,0.451 2.995,0.692 4.595,0.692 0.114,0 0.229,-10e-4 0.343,-0.005 1.605,5.724 6.86,9.924 13.095,9.924 0.843,0 1.669,-0.077 2.47,-0.225 1.756,6.119 7.393,10.597 14.078,10.597 5.84,0 10.882,-3.419 13.232,-8.364 2.342,1.366 5.065,2.151 7.97,2.151 6.392,0 11.897,-3.787 14.399,-9.239 3.276,2.39 7.309,3.8 11.674,3.8 3.7,0 7.161,-1.014 10.126,-2.776 1.195,7.202 7.453,12.694 14.996,12.694 7.403,0 13.57,-5.292 14.923,-12.301 1.443,1.204 3.121,2.131 4.958,2.701 -1.158,2.254 -1.812,4.81 -1.812,7.52 0,9.099 7.377,16.476 16.476,16.476 7.876,0 14.461,-5.527 16.087,-12.918 0.633,0.08 1.277,0.121 1.928,0.121 7.714,0 14.092,-5.709 15.143,-13.132 0.855,0.218 1.749,0.335 2.672,0.335 1.673,0 3.255,-0.381 4.666,-1.066 2.464,4.812 7.473,8.105 13.25,8.105 4.173,0 7.945,-1.721 10.647,-4.488 2.424,2.072 5.569,3.322 9.009,3.322 7.663,0 13.875,-6.211 13.875,-13.873 0,-0.092 -0.002,-0.181 -0.005,-0.272 2.546,1.997 5.753,3.187 9.239,3.187 0.511,0 1.017,-0.028 1.515,-0.076 1.931,6.854 8.232,11.88 15.705,11.88 5.937,0 11.133,-3.172 13.989,-7.914 2.264,1.367 4.918,2.155 7.757,2.155 3.557,0 6.827,-1.239 9.4,-3.305 3.53,5.27 9.541,8.743 16.362,8.743 6.754,0 12.711,-3.402 16.253,-8.584 1.94,0.988 4.135,1.547 6.461,1.547 7.8,0 14.132,-6.271 14.236,-14.046 0.768,0.188 1.574,0.289 2.401,0.289 5.566,0 10.076,-4.512 10.076,-10.078 0,-5.566 -4.51,-10.078 -10.076,-10.078 -4.586,0 -8.456,3.063 -9.676,7.254 -2.058,-1.155 -4.431,-1.815 -6.961,-1.815 -3.042,0 -5.862,0.955 -8.174,2.58 -3.599,-3.942 -8.781,-6.418 -14.54,-6.418 -6.388,0 -12.064,3.044 -15.66,7.762 -2.668,-2.424 -6.214,-3.903 -10.102,-3.903 -5.029,0 -9.477,2.469 -12.205,6.26 -2.684,-1.939 -5.978,-3.081 -9.541,-3.081 -1.125,0 -2.226,0.115 -3.287,0.332 -2.196,-5.545 -7.606,-9.468 -13.933,-9.468 -8.275,0 -14.982,6.707 -14.982,14.982 0,0.282 0.007,0.561 0.024,0.839 -2.29,-1.665 -5.106,-2.646 -8.151,-2.646 -3.521,0 -6.736,1.311 -9.182,3.473 -2.689,-2.665 -6.39,-4.312 -10.474,-4.312 -4.078,0 -7.773,1.642 -10.459,4.298 -1.93,-1.869 -4.559,-3.018 -7.457,-3.018 -4.23,0 -7.887,2.449 -9.63,6.008 -2.367,-1.501 -5.173,-2.372 -8.185,-2.372 -6.879,0 -12.698,4.542 -14.621,10.791 -0.107,-0.022 -0.213,-0.044 -0.322,-0.064 0.598,-1.582 0.925,-3.298 0.925,-5.086 0,-7.953 -6.443,-14.397 -14.395,-14.397 -6.851,0 -12.582,4.783 -14.039,11.194 -2.686,-2.395 -6.227,-3.85 -10.108,-3.85 -1.862,0 -3.642,0.335 -5.29,0.947 0,-0.098 0.003,-0.194 0.003,-0.293 0,-10.954 -8.88,-19.835 -19.835,-19.835 -9.28,0 -17.072,6.375 -19.235,14.985 -2.07,-0.993 -4.39,-1.548 -6.838,-1.548 -0.16,0 -0.319,0.002 -0.481,0.007 v -0.007 c 0,-9.719 -7.876,-17.595 -17.595,-17.595 -9.717,0 -17.595,7.876 -17.595,17.595 0,0.16 0.003,0.321 0.006,0.479 l -0.089,-0.013 c -0.807,-7.812 -7.409,-13.903 -15.434,-13.903 -5.525,0 -10.375,2.889 -13.125,7.238 -3.102,-1.951 -6.774,-3.079 -10.708,-3.079 -1.851,0 -3.643,0.251 -5.345,0.718 -2.553,-4.686 -7.523,-7.868 -13.237,-7.868 -7.095,0 -13.044,4.909 -14.639,11.515 -2.16,-0.97 -4.556,-1.51 -7.077,-1.51 -2.168,0 -4.243,0.4 -6.156,1.13 0.003,-0.093 0.004,-0.185 0.004,-0.276 0,-5.549 -4.498,-10.047 -10.047,-10.047 -5.548,0 -10.047,4.498 -10.047,10.047 C -10.047,-4.499 -5.548,0 0,0"
             style="fill:#4c861a;fill-opacity:1;fill-rule:evenodd;stroke:none"
             id="path2038" />
        </g>
        <g
           id="g2040"
           transform="translate(330.083,161.2012)">
          <path
             d="M 0,0 C 130.812,0 237.504,20.59 237.504,45.835 237.504,71.079 130.812,91.668 0,91.668 -130.814,91.668 -237.504,71.079 -237.504,45.835 -237.504,20.59 -130.814,0 0,0"
             style="fill:#6aa834;fill-opacity:1;fill-rule:evenodd;stroke:none"
             id="path2042" />
        </g>
        <g
           id="g2044"
           transform="translate(299.0889,175.9307)">
          <path
             d="M 0,0 C 97.523,0 177.064,15.349 177.064,34.168 177.064,52.989 97.523,68.34 0,68.34 -97.523,68.34 -177.064,52.989 -177.064,34.168 -177.064,15.349 -97.523,0 0,0"
             style="fill:#7cb54b;fill-opacity:1;fill-rule:evenodd;stroke:none"
             id="path2046" />
        </g>
        <g
           id="g2048"
           transform="translate(274.1357,188.2891)">
          <path
             d="M 0,0 C 73.207,0 132.915,11.522 132.915,25.651 132.915,39.778 73.207,51.3 0,51.3 -73.208,51.3 -132.915,39.778 -132.915,25.651 -132.915,11.522 -73.208,0 0,0"
             style="fill:#8bc45a;fill-opacity:1;fill-rule:evenodd;stroke:none"
             id="path2050" />
        </g>
        <g
           id="g2052"
           transform="translate(221.501,492.5249)">
          <path
             d="m 0,0 c 4.446,0 8.641,-1.081 12.336,-2.992 1.876,19.984 18.695,35.624 39.172,35.624 16.134,0 29.994,-9.71 36.068,-23.603 3.906,11.673 14.928,20.084 27.915,20.084 14.024,0 25.755,-9.808 28.713,-22.937 2.507,0.969 5.23,1.502 8.08,1.502 11.61,0 21.158,-8.838 22.282,-20.154 H -22.694 C -17.927,-4.977 -9.544,0 0,0"
             style="fill:#ffffff;fill-opacity:1;fill-rule:evenodd;stroke:none"
             id="path2054" />
        </g>
        <g
           id="g2056"
           transform="translate(243.501,401.0054)">
          <path
             d="m 0,0 c 0.032,0.308 0.048,0.621 0.048,0.937 0,5.177 -4.197,9.374 -9.376,9.374 -3.695,0 -6.891,-2.14 -8.419,-5.249 -1.983,1.368 -4.388,2.169 -6.981,2.169 -0.268,0 -0.535,-0.01 -0.798,-0.026 -1.205,4.116 -5.007,7.124 -9.513,7.124 -2.843,0 -5.405,-1.197 -7.213,-3.115 -2.639,1.796 -5.826,2.847 -9.26,2.847 -4.22,0 -8.068,-1.588 -10.983,-4.198 -1.569,4.323 -5.712,7.412 -10.576,7.412 -6.213,0 -11.25,-5.036 -11.25,-11.249 0,-2.217 0.642,-4.284 1.749,-6.026 z"
             style="fill:#ffffff;fill-opacity:1;fill-rule:evenodd;stroke:none"
             id="path2058" />
        </g>
        <g
           id="g2060"
           transform="translate(266.165,446.5718)">
          <path
             d="m 0,0 c 1.635,0 3.198,-0.311 4.633,-0.875 3.361,6.71 10.3,11.318 18.317,11.318 6.515,0 12.32,-3.044 16.07,-7.787 1.22,0.56 2.577,0.873 4.006,0.873 5.313,0 9.621,-4.307 9.621,-9.62 0,-1.404 -0.301,-2.738 -0.841,-3.94 H -12.37 C -11.169,-4.302 -6.085,0 0,0"
             style="fill:#ffffff;fill-opacity:1;fill-rule:evenodd;stroke:none"
             id="path2062" />
        </g>
        <g
           id="g2064"
           transform="translate(442.5078,436.6558)">
          <path
             d="m 0,0 c -0.923,2.055 -2.988,3.484 -5.387,3.484 -0.081,0 -0.164,-0.002 -0.245,-0.005 -1.507,5.249 -6.345,9.087 -12.077,9.087 -3.902,0 -7.388,-1.778 -9.692,-4.567 -1.249,0.859 -2.761,1.362 -4.393,1.362 -4.284,0 -7.759,-3.474 -7.759,-7.758 0,-0.55 0.058,-1.086 0.166,-1.603 z"
             style="fill:#ffffff;fill-opacity:1;fill-rule:evenodd;stroke:none"
             id="path2066" />
        </g>
      </g>
    </g>
  </g>
</svg>
