<?xml version="1.0" standalone="yes"?>

<svg version="1.1" viewBox="0.0 0.0 366.0 230.0" fill="none" stroke="none" stroke-linecap="square" stroke-miterlimit="10" xmlns="http://www.w3.org/2000/svg" xmlns:xlink="http://www.w3.org/1999/xlink"><clipPath id="p.0"><path d="m0 0l366.0 0l0 230.0l-366.0 0l0 -230.0z" clip-rule="nonzero"></path></clipPath><g clip-path="url(#p.0)"><path fill="#000000" fill-opacity="0.0" d="m0 0l366.80316 0l0 230.28346l-366.80316 0z" fill-rule="nonzero"></path><path fill="#c7f330" d="m9.740157 204.48294c3.4076996 -4.868332 45.760715 -27.749786 71.561676 -32.13124c25.800964 -4.381439 54.765533 13.631683 83.244095 5.8425293c28.478561 -7.789154 68.88495 -37.486008 87.627304 -52.57743c18.742325 -15.091423 18.498245 -26.53106 24.826767 -37.97113c6.3285217 -11.440071 3.8945618 -25.070866 13.144348 -30.669289c9.249786 -5.598427 32.37445 -7.0590553 42.35434 -2.9212608c9.979889 4.1377945 14.604126 16.064304 17.524933 27.748028c2.9208374 11.683731 2.6776123 30.913826 0 42.354332c-2.6776123 11.440514 -6.5726013 16.06562 -16.065613 26.28872c-9.493011 10.223099 -25.070862 27.261154 -40.892395 35.049866c-15.821533 7.7887115 -35.78128 7.3009644 -54.036743 11.682419c-18.255463 4.3814545 -33.346024 11.685028 -55.496063 14.606293c-22.15004 2.9212646 -56.958 4.625107 -77.4042 2.9212646c-20.446198 -1.7038574 -29.208221 -11.440506 -45.272964 -13.144363c-16.064743 -1.7038422 -54.523186 7.7895966 -51.115486 2.9212646z" fill-rule="nonzero"></path><path fill="#2fd638" d="m272.15033 193.57132c4.733551 -2.727707 -17.848236 -19.77092 -23.872665 -32.21408c-6.024414 -12.443176 -7.927246 -35.65934 -12.273865 -42.44494c-4.3466034 -6.7855988 -7.128937 9.04435 -13.805817 1.7313538c-6.67688 -7.3130035 -11.665054 -34.502098 -26.255447 -45.609344c-14.590393 -11.107246 -46.297653 -21.993717 -61.28691 -21.034126c-14.989273 0.9595871 -23.266228 13.111504 -28.64869 26.791664c-5.3824615 13.6801605 -10.621979 39.816345 -3.64608 55.2893c6.9758987 15.472961 25.915543 30.608063 45.501465 37.548447c19.585922 6.940399 51.299393 0.7702637 72.01405 4.0938873c20.714676 3.3236237 47.540405 18.575546 52.273956 15.847839z" fill-rule="nonzero"></path><path stroke="#24a72b" stroke-width="8.0" stroke-linejoin="round" stroke-linecap="butt" d="m272.15033 193.57132c4.733551 -2.727707 -17.848236 -19.77092 -23.872665 -32.21408c-6.024414 -12.443176 -7.927246 -35.65934 -12.273865 -42.44494c-4.3466034 -6.7855988 -7.128937 9.04435 -13.805817 1.7313538c-6.67688 -7.3130035 -11.665054 -34.502098 -26.255447 -45.609344c-14.590393 -11.107246 -46.297653 -21.993717 -61.28691 -21.034126c-14.989273 0.9595871 -23.266228 13.111504 -28.64869 26.791664c-5.3824615 13.6801605 -10.621979 39.816345 -3.64608 55.2893c6.9758987 15.472961 25.915543 30.608063 45.501465 37.548447c19.585922 6.940399 51.299393 0.7702637 72.01405 4.0938873c20.714676 3.3236237 47.540405 18.575546 52.273956 15.847839z" fill-rule="nonzero"></path><path fill="#2fd638" d="m275.3418 194.6813c-12.680969 3.7343597 -48.371353 21.79573 -76.08569 22.406113c-27.71434 0.61039734 -68.82764 -3.1876678 -90.20038 -18.743805c-21.372734 -15.556152 -34.395935 -49.805542 -38.036034 -74.59309c-3.6400986 -24.787552 5.251892 -57.387985 16.19542 -74.132225c10.943527 -16.74424 30.590317 -22.4731 49.465736 -26.333208c18.875427 -3.8601074 48.30696 -0.6506367 63.78682 3.1725636c15.479843 3.8232002 22.599411 11.732407 29.0923 19.766636c6.4928894 8.034225 9.607986 15.681545 9.865051 28.438732c0.25706482 12.757187 0.012374878 34.724174 -8.322647 48.10437c-8.335037 13.380188 -26.04657 28.94609 -41.687546 32.17679c-15.640991 3.2306976 -40.505463 -4.4370117 -52.158356 -12.792618c-11.652885 -8.355621 -16.927551 -26.136497 -17.758972 -37.341064c-0.8314209 -11.204567 5.6204605 -24.31215 12.770447 -29.886345c7.149994 -5.574188 21.495636 -4.0584183 30.12947 -3.5587997c8.63385 0.49961853 17.686722 0.9832382 21.6736 6.556511c3.9868622 5.5732727 5.605713 21.039803 2.2476196 26.883102c-3.3580933 5.8433075 -16.981232 9.713692 -22.396194 8.176712c-5.414963 -1.5369797 -8.411301 -14.49881 -10.093552 -17.398575" fill-rule="nonzero"></path><path stroke="#24a72b" stroke-width="8.0" stroke-linejoin="round" stroke-linecap="round" d="m275.3418 194.6813c-12.680969 3.7343597 -48.371353 21.79573 -76.08569 22.406113c-27.71434 0.61039734 -68.82764 -3.1876678 -90.20038 -18.743805c-21.372734 -15.556152 -34.395935 -49.805542 -38.036034 -74.59309c-3.6400986 -24.787552 5.251892 -57.387985 16.19542 -74.132225c10.943527 -16.74424 30.590317 -22.4731 49.465736 -26.333208c18.875427 -3.8601074 48.30696 -0.6506367 63.78682 3.1725636c15.479843 3.8232002 22.599411 11.732407 29.0923 19.766636c6.4928894 8.034225 9.607986 15.681545 9.865051 28.438732c0.25706482 12.757187 0.012374878 34.724174 -8.322647 48.10437c-8.335037 13.380188 -26.04657 28.94609 -41.687546 32.17679c-15.640991 3.2306976 -40.505463 -4.4370117 -52.158356 -12.792618c-11.652885 -8.355621 -16.927551 -26.136497 -17.758972 -37.341064c-0.8314209 -11.204567 5.6204605 -24.31215 12.770447 -29.886345c7.149994 -5.574188 21.495636 -4.0584183 30.12947 -3.5587997c8.63385 0.49961853 17.686722 0.9832382 21.6736 6.556511c3.9868622 5.5732727 5.605713 21.039803 2.2476196 26.883102c-3.3580933 5.8433075 -16.981232 9.713692 -22.396194 8.176712c-5.414963 -1.5369797 -8.411301 -14.49881 -10.093552 -17.398575" fill-rule="nonzero"></path><path fill="#2fd638" d="m244.17946 204.40762c-2.8719788 -3.6250153 -12.815994 -10.488541 -17.231888 -21.750122c-4.415909 -11.261581 -7.7196045 -38.18283 -9.263535 -45.819397" fill-rule="nonzero"></path><path stroke="#24a72b" stroke-width="8.0" stroke-linejoin="round" stroke-linecap="butt" d="m244.17946 204.40762c-2.8719788 -3.6250153 -12.815994 -10.488541 -17.231888 -21.750122c-4.415909 -11.261581 -7.7196045 -38.18283 -9.263535 -45.819397" fill-rule="nonzero"></path><path fill="#2fd638" d="m208.78278 218.5198c-2.1049347 -3.7852173 -10.4401245 -11.770935 -12.629562 -22.711334c-2.1894379 -10.940384 -0.4225464 -35.77585 -0.50704956 -42.931015" fill-rule="nonzero"></path><path stroke="#24a72b" stroke-width="8.0" stroke-linejoin="round" stroke-linecap="butt" d="m208.78278 218.5198c-2.1049347 -3.7852173 -10.4401245 -11.770935 -12.629562 -22.711334c-2.1894379 -10.940384 -0.4225464 -35.77585 -0.50704956 -42.931015" fill-rule="nonzero"></path><path fill="#2fd638" d="m173.32025 218.14417c-1.2680511 -4.021393 -7.7749176 -13.400757 -7.6082916 -24.128326c0.16662598 -10.727585 7.173355 -33.530914 8.608032 -40.23709" fill-rule="nonzero"></path><path stroke="#24a72b" stroke-width="8.0" stroke-linejoin="round" stroke-linecap="butt" d="m173.32025 218.14417c-1.2680511 -4.021393 -7.7749176 -13.400757 -7.6082916 -24.128326c0.16662598 -10.727585 7.173355 -33.530914 8.608032 -40.23709" fill-rule="nonzero"></path><path fill="#2fd638" d="m135.991 211.74457c0.05029297 -4.2086945 -3.2115173 -15.074005 0.3017273 -25.252151c3.5132294 -10.178131 17.314713 -29.847214 20.777664 -35.816666" fill-rule="nonzero"></path><path stroke="#24a72b" stroke-width="8.0" stroke-linejoin="round" stroke-linecap="butt" d="m135.991 211.74457c0.05029297 -4.2086945 -3.2115173 -15.074005 0.3017273 -25.252151c3.5132294 -10.178131 17.314713 -29.847214 20.777664 -35.816666" fill-rule="nonzero"></path><path fill="#2fd638" d="m98.69401 188.92029c1.8559265 -3.0839539 4.024025 -11.151688 11.135574 -18.503723c7.1115494 -7.352051 26.278114 -21.340485 31.53373 -25.608582" fill-rule="nonzero"></path><path stroke="#24a72b" stroke-width="8.0" stroke-linejoin="round" stroke-linecap="butt" d="m98.69401 188.92029c1.8559265 -3.0839539 4.024025 -11.151688 11.135574 -18.503723c7.1115494 -7.352051 26.278114 -21.340485 31.53373 -25.608582" fill-rule="nonzero"></path><path fill="#2fd638" d="m80.01665 159.57802c2.2357788 -2.501175 5.6569595 -9.697952 13.414673 -15.007095c7.7577133 -5.309128 27.609665 -14.039749 33.1316 -16.847694" fill-rule="nonzero"></path><path stroke="#24a72b" stroke-width="8.0" stroke-linejoin="round" stroke-linecap="butt" d="m80.01665 159.57802c2.2357788 -2.501175 5.6569595 -9.697952 13.414673 -15.007095c7.7577133 -5.309128 27.609665 -14.039749 33.1316 -16.847694" fill-rule="nonzero"></path><path fill="#2fd638" d="m72.91667 137.59163c2.5690918 -1.9484711 7.181267 -8.210739 15.414551 -11.690834c8.233292 -3.480095 28.320984 -7.658104 33.985184 -9.189728" fill-rule="nonzero"></path><path stroke="#24a72b" stroke-width="8.0" stroke-linejoin="round" stroke-linecap="butt" d="m72.91667 137.59163c2.5690918 -1.9484711 7.181267 -8.210739 15.414551 -11.690834c8.233292 -3.480095 28.320984 -7.658104 33.985184 -9.189728" fill-rule="nonzero"></path><path fill="#2fd638" d="m69.95754 113.479355c2.6472778 -1.5462723 7.8070374 -7.0556183 15.883667 -9.277603c8.076637 -2.2219925 27.146767 -3.378624 32.57612 -4.054352" fill-rule="nonzero"></path><path stroke="#24a72b" stroke-width="8.0" stroke-linejoin="round" stroke-linecap="butt" d="m69.95754 113.479355c2.6472778 -1.5462723 7.8070374 -7.0556183 15.883667 -9.277603c8.076637 -2.2219925 27.146767 -3.378624 32.57612 -4.054352" fill-rule="nonzero"></path><path fill="#2fd638" d="m71.636 88.3444c3.1427765 -0.8882065 9.838562 -5.064049 18.856667 -5.329239c9.018105 -0.26519012 29.376648 3.1150894 35.251976 3.7381058" fill-rule="nonzero"></path><path stroke="#24a72b" stroke-width="8.0" stroke-linejoin="round" stroke-linecap="butt" d="m71.636 88.3444c3.1427765 -0.8882065 9.838562 -5.064049 18.856667 -5.329239c9.018105 -0.26519012 29.376648 3.1150894 35.251976 3.7381058" fill-rule="nonzero"></path><path fill="#2fd638" d="m79.61885 64.62545c3.1396103 -0.0545578 10.518471 -2.338913 18.837662 -0.32733917c8.319191 2.0115814 25.897903 10.330658 31.077484 12.39679" fill-rule="nonzero"></path><path stroke="#24a72b" stroke-width="8.0" stroke-linejoin="round" stroke-linecap="butt" d="m79.61885 64.62545c3.1396103 -0.0545578 10.518471 -2.338913 18.837662 -0.32733917c8.319191 2.0115814 25.897903 10.330658 31.077484 12.39679" fill-rule="nonzero"></path><path fill="#2fd638" d="m98.31285 35.379066c2.9822464 1.5905266 10.932899 3.3047218 17.893478 9.543152c6.960579 6.23843 19.891678 23.239525 23.87001 27.887428" fill-rule="nonzero"></path><path stroke="#24a72b" stroke-width="8.0" stroke-linejoin="round" stroke-linecap="butt" d="m98.31285 35.379066c2.9822464 1.5905266 10.932899 3.3047218 17.893478 9.543152c6.960579 6.23843 19.891678 23.239525 23.87001 27.887428" fill-rule="nonzero"></path><path fill="#2fd638" d="m134.80362 24.601437c1.937027 2.5176258 8.639557 7.287813 11.622131 15.105747c2.9825897 7.817936 5.227829 26.501549 6.2733917 31.801857" fill-rule="nonzero"></path><path stroke="#24a72b" stroke-width="8.0" stroke-linejoin="round" stroke-linecap="butt" d="m134.80362 24.601437c1.937027 2.5176258 8.639557 7.287813 11.622131 15.105747c2.9825897 7.817936 5.227829 26.501549 6.2733917 31.801857" fill-rule="nonzero"></path><path fill="#2fd638" d="m161.71866 19.87806c1.2055969 3.0450096 6.4254303 9.548624 7.233536 18.270058c0.8080902 8.721432 -1.9874573 28.382118 -2.3849487 34.05854" fill-rule="nonzero"></path><path stroke="#24a72b" stroke-width="8.0" stroke-linejoin="round" stroke-linecap="butt" d="m161.71866 19.87806c1.2055969 3.0450096 6.4254303 9.548624 7.233536 18.270058c0.8080902 8.721432 -1.9874573 28.382118 -2.3849487 34.05854" fill-rule="nonzero"></path><path fill="#2fd638" d="m192.1694 23.696308c0.40975952 3.4632301 4.0911255 11.677063 2.4585266 20.779373c-1.6325989 9.10231 -10.211746 28.195408 -12.254105 33.83449" fill-rule="nonzero"></path><path stroke="#24a72b" stroke-width="8.0" stroke-linejoin="round" stroke-linecap="butt" d="m192.1694 23.696308c0.40975952 3.4632301 4.0911255 11.677063 2.4585266 20.779373c-1.6325989 9.10231 -10.211746 28.195408 -12.254105 33.83449" fill-rule="nonzero"></path><path fill="#2fd638" d="m228.23181 44.433903c-1.733017 3.104107 -3.595047 11.941681 -10.398071 18.624626c-6.8030396 6.682949 -25.350113 17.894215 -30.420135 21.473064" fill-rule="nonzero"></path><path stroke="#24a72b" stroke-width="8.0" stroke-linejoin="round" stroke-linecap="butt" d="m228.23181 44.433903c-1.733017 3.104107 -3.595047 11.941681 -10.398071 18.624626c-6.8030396 6.682949 -25.350113 17.894215 -30.420135 21.473064" fill-rule="nonzero"></path><path fill="#2fd638" d="m238.83575 76.53634c-2.7887878 2.1984024 -7.9561157 9.6367035 -16.732681 13.19043c-8.776581 3.5537186 -29.938965 6.776581 -35.926758 8.131897" fill-rule="nonzero"></path><path stroke="#24a72b" stroke-width="8.0" stroke-linejoin="round" stroke-linecap="butt" d="m238.83575 76.53634c-2.7887878 2.1984024 -7.9561157 9.6367035 -16.732681 13.19043c-8.776581 3.5537186 -29.938965 6.776581 -35.926758 8.131897" fill-rule="nonzero"></path><path fill="#2fd638" d="m237.74768 104.415955c-3.3216553 1.3223648 -10.476868 6.996193 -19.929916 7.9341965c-9.453049 0.93800354 -30.656982 -1.9218063 -36.78839 -2.3061676" fill-rule="nonzero"></path><path stroke="#24a72b" stroke-width="8.0" stroke-linejoin="round" stroke-linecap="butt" d="m237.74768 104.415955c-3.3216553 1.3223648 -10.476868 6.996193 -19.929916 7.9341965c-9.453049 0.93800354 -30.656982 -1.9218063 -36.78839 -2.3061676" fill-rule="nonzero"></path><path fill="#2fd638" d="m223.44386 131.90913c-3.3512878 -0.2634735 -12.05011 1.5893707 -20.107727 -1.5808716c-8.057617 -3.1702576 -23.531662 -14.533867 -28.237991 -17.440643" fill-rule="nonzero"></path><path stroke="#24a72b" stroke-width="8.0" stroke-linejoin="round" stroke-linecap="butt" d="m223.44386 131.90913c-3.3512878 -0.2634735 -12.05011 1.5893707 -20.107727 -1.5808716c-8.057617 -3.1702576 -23.531662 -14.533867 -28.237991 -17.440643" fill-rule="nonzero"></path><path fill="#2fd638" d="m197.77715 153.1972c-2.7664337 -1.850769 -11.248352 -4.4539185 -16.598633 -11.104599c-5.350296 -6.6506805 -12.9192505 -23.999557 -15.503098 -28.799477" fill-rule="nonzero"></path><path stroke="#24a72b" stroke-width="8.0" stroke-linejoin="round" stroke-linecap="butt" d="m197.77715 153.1972c-2.7664337 -1.850769 -11.248352 -4.4539185 -16.598633 -11.104599c-5.350296 -6.6506805 -12.9192505 -23.999557 -15.503098 -28.799477" fill-rule="nonzero"></path><path fill="#2fd638" d="m156.09352 153.62224c-0.5006714 -2.636383 -3.551834 -8.460144 -3.0039673 -15.818298c0.54785156 -7.3581696 5.2425995 -23.608864 6.2911224 -28.330635" fill-rule="nonzero"></path><path stroke="#24a72b" stroke-width="8.0" stroke-linejoin="round" stroke-linecap="butt" d="m156.09352 153.62224c-0.5006714 -2.636383 -3.551834 -8.460144 -3.0039673 -15.818298c0.54785156 -7.3581696 5.2425995 -23.608864 6.2911224 -28.330635" fill-rule="nonzero"></path><path fill="#2fd638" d="m129.73344 134.23656c1.0756836 -2.2418823 2.0042877 -8.641129 6.454071 -13.451332c4.4497833 -4.810196 16.870544 -12.84156 20.24466 -15.409874" fill-rule="nonzero"></path><path stroke="#24a72b" stroke-width="8.0" stroke-linejoin="round" stroke-linecap="butt" d="m129.73344 134.23656c1.0756836 -2.2418823 2.0042877 -8.641129 6.454071 -13.451332c4.4497833 -4.810196 16.870544 -12.84156 20.24466 -15.409874" fill-rule="nonzero"></path><path fill="#2fd638" d="m121.83403 116.45321c1.8897552 -1.9681015 5.6010513 -8.969376 11.3385315 -11.808632c5.737488 -2.8392487 19.238632 -4.355728 23.08635 -5.2268753" fill-rule="nonzero"></path><path stroke="#24a72b" stroke-width="8.0" stroke-linejoin="round" stroke-linecap="butt" d="m121.83403 116.45321c1.8897552 -1.9681015 5.6010513 -8.969376 11.3385315 -11.808632c5.737488 -2.8392487 19.238632 -4.355728 23.08635 -5.2268753" fill-rule="nonzero"></path><path fill="#2fd638" d="m120.11875 88.526405c2.7630615 -0.1332779 10.438301 -2.6482773 16.578331 -0.7996597c6.14003 1.8486252 16.884872 9.9094925 20.26184 11.891396" fill-rule="nonzero"></path><path stroke="#24a72b" stroke-width="8.0" stroke-linejoin="round" stroke-linecap="butt" d="m120.11875 88.526405c2.7630615 -0.1332779 10.438301 -2.6482773 16.578331 -0.7996597c6.14003 1.8486252 16.884872 9.9094925 20.26184 11.891396" fill-rule="nonzero"></path><path fill="#2fd638" d="m132.94122 72.12769c2.4925842 1.1604233 10.465561 2.4947586 14.95546 6.9625397c4.4898834 4.4677887 9.986572 16.536797 11.983887 19.844154" fill-rule="nonzero"></path><path stroke="#24a72b" stroke-width="8.0" stroke-linejoin="round" stroke-linecap="butt" d="m132.94122 72.12769c2.4925842 1.1604233 10.465561 2.4947586 14.95546 6.9625397c4.4898834 4.4677887 9.986572 16.536797 11.983887 19.844154" fill-rule="nonzero"></path><path fill="#2fd638" d="m161.76877 71.38826c0.45147705 2.3817902 3.6809082 8.972343 2.7088776 14.290726c-0.9720459 5.3183823 -7.117584 14.682968 -8.541092 17.61956" fill-rule="nonzero"></path><path stroke="#24a72b" stroke-width="8.0" stroke-linejoin="round" stroke-linecap="butt" d="m161.76877 71.38826c0.45147705 2.3817902 3.6809082 8.972343 2.7088776 14.290726c-0.9720459 5.3183823 -7.117584 14.682968 -8.541092 17.61956" fill-rule="nonzero"></path><path fill="#2fd638" d="m184.35106 73.11005c-1.1863556 2.432167 -2.535675 10.194382 -7.1181335 14.593025c-4.5824585 4.398651 -16.980484 9.832382 -20.376587 11.798866" fill-rule="nonzero"></path><path stroke="#24a72b" stroke-width="8.0" stroke-linejoin="round" stroke-linecap="butt" d="m184.35106 73.11005c-1.1863556 2.432167 -2.535675 10.194382 -7.1181335 14.593025c-4.5824585 4.398651 -16.980484 9.832382 -20.376587 11.798866" fill-rule="nonzero"></path><path fill="#2fd638" d="m187.82336 94.33364c-2.1001892 1.1712646 -7.248062 6.166336 -12.60112 7.0275803c-5.353058 0.8612442 -16.264389 -1.5500946 -19.517258 -1.860115" fill-rule="nonzero"></path><path stroke="#24a72b" stroke-width="8.0" stroke-linejoin="round" stroke-linecap="butt" d="m187.82336 94.33364c-2.1001892 1.1712646 -7.248062 6.166336 -12.60112 7.0275803c-5.353058 0.8612442 -16.264389 -1.5500946 -19.517258 -1.860115" fill-rule="nonzero"></path><path fill="#2fd638" d="m274.28592 193.10149c-3.6374512 -3.9184418 -15.47757 -10.783859 -21.824799 -23.51062c-6.347229 -12.726761 -13.548767 -44.041626 -16.25853 -52.849953" fill-rule="nonzero"></path><path stroke="#24a72b" stroke-width="8.0" stroke-linejoin="round" stroke-linecap="round" d="m274.28592 193.10149c-3.6374512 -3.9184418 -15.47757 -10.783859 -21.824799 -23.51062c-6.347229 -12.726761 -13.548767 -44.041626 -16.25853 -52.849953" fill-rule="nonzero"></path><path fill="#c7f330" d="m300.55276 68.892365c-2.9932556 -6.2164803 -8.53006 -21.267876 -8.080841 -26.502964c0.44918823 -5.2350883 7.7828064 -11.12405 10.776062 -4.907566c2.9932861 6.216484 7.632721 36.971382 7.1835327 42.206467c-0.44921875 5.235092 -6.885498 -4.5794525 -9.878754 -10.795937z" fill-rule="nonzero"></path><path fill="#c7f330" d="m277.42245 26.196468l0 0c0 -10.030914 7.4396057 -18.162577 16.616852 -18.162577l0 0c4.4070435 0 8.633606 1.9135523 11.749847 5.3196955c3.116272 3.4061441 4.866974 8.0258665 4.866974 12.842881l0 0c0 10.030914 -7.4396057 18.162575 -16.616821 18.162575l0 0c-9.177246 0 -16.616852 -8.13166 -16.616852 -18.162575z" fill-rule="nonzero"></path><path fill="#ffffff" d="m282.9711 24.719965l0 0c0 -6.5060654 4.9553833 -11.7802725 11.068207 -11.7802725l0 0c2.9354553 0 5.750702 1.2411327 7.8263855 3.4503622c2.0756836 2.2092304 3.2417908 5.2055874 3.2417908 8.32991l0 0c0 6.5060654 -4.9553833 11.780272 -11.068176 11.780272l0 0c-6.1128235 0 -11.068207 -5.274206 -11.068207 -11.780272z" fill-rule="nonzero"></path><path fill="#000000" d="m292.58514 24.719965l0 0c0 -2.9695244 2.1373901 -5.3768005 4.7739563 -5.3768005l0 0c1.2661438 0 2.4804077 0.56648445 3.375702 1.5748291c0.8952942 1.0083466 1.3982544 2.3759556 1.3982544 3.8019714l0 0c0 2.9695244 -2.1373596 5.3768005 -4.7739563 5.3768005l0 0c-2.6365662 0 -4.7739563 -2.4072762 -4.7739563 -5.3768005z" fill-rule="nonzero"></path><path fill="#c7f330" d="m329.15884 69.747444c-1.4355774 -6.7485847 -3.2495728 -22.68328 -1.5731201 -27.66323c1.6764526 -4.97995 10.196259 -8.965054 11.631836 -2.2164688c1.4355774 6.7485886 -1.3418884 37.728035 -3.018341 42.707985c-1.6764526 4.9799576 -5.6047974 -6.0796967 -7.0403748 -12.828285z" fill-rule="nonzero"></path><path fill="#c7f330" d="m316.8002 22.787954l0 0c2.376007 -9.745852 11.530029 -15.884829 20.446075 -13.711786l0 0c4.281616 1.0435305 7.9346313 3.903494 10.1553955 7.9507275c2.2207336 4.0472355 2.8273315 8.950214 1.6863403 13.630337l0 0c-2.376007 9.7458515 -11.530029 15.884829 -20.446075 13.711786l0 0c-8.916046 -2.1730423 -14.217773 -11.835213 -11.841736 -21.581064z" fill-rule="nonzero"></path><path fill="#ffffff" d="m322.54065 22.66725l0 0c1.5410767 -6.3211727 7.6047363 -10.272124 13.543579 -8.824697l0 0c2.8519287 0.6950798 5.2930603 2.5675516 6.786377 5.205495c1.4933167 2.6379414 1.9165039 5.825268 1.1764221 8.860802l0 0c-1.5410767 6.3211727 -7.6047363 10.272123 -13.543579 8.8246975l0 0c-5.9388123 -1.4474297 -9.503906 -7.745125 -7.962799 -14.066298z" fill-rule="nonzero"></path><path fill="#000000" d="m331.8811 24.943731l0 0c0.70336914 -2.8851357 3.3501282 -4.717901 5.911682 -4.0935955l0 0c1.230072 0.29980278 2.2756042 1.1377106 2.9065857 2.3293934c0.6309509 1.1916828 0.7956543 2.6395226 0.45788574 4.025013l0 0c-0.70339966 2.8851357 -3.3501282 4.717901 -5.911682 4.0935955l0 0c-2.561554 -0.62430763 -4.067871 -3.4692726 -3.3644714 -6.3544064z" fill-rule="nonzero"></path><path fill="#000000" fill-opacity="0.0" d="m303.73227 75.83146c2.721466 1.3800049 10.822845 7.6988754 16.328796 8.280014c5.505951 0.5811386 13.09964 -3.2680435 16.706879 -4.7931976c3.6072693 -1.5251541 4.1138306 -3.6314468 4.9365845 -4.3577347" fill-rule="nonzero"></path><path stroke="#000000" stroke-width="3.0" stroke-linejoin="round" stroke-linecap="round" d="m303.73227 75.83146c2.721466 1.3800049 10.822845 7.6988754 16.328796 8.280014c5.505951 0.5811386 13.09964 -3.2680435 16.706879 -4.7931976c3.6072693 -1.5251541 4.1138306 -3.6314468 4.9365845 -4.3577347" fill-rule="nonzero"></path></g></svg>

