<?xml version="1.0" encoding="utf-8"?>
<!-- Generator: Adobe Illustrator 16.0.0, SVG Export Plug-In . SVG Version: 6.00 Build 0)  -->
<!DOCTYPE svg PUBLIC "-//W3C//DTD SVG 1.1//EN" "http://www.w3.org/Graphics/SVG/1.1/DTD/svg11.dtd">
<svg version="1.1" id="Layer_1" xmlns="http://www.w3.org/2000/svg" xmlns:xlink="http://www.w3.org/1999/xlink" x="0px" y="0px"
	 width="500px" height="500px" viewBox="0 0 500 500" enable-background="new 0 0 500 500" xml:space="preserve">
<path fill="#FFFFFF" stroke="#000000" stroke-width="4" stroke-miterlimit="10" d="M257.508,91.334l-83.762,0.321
	c-6.627,0-12-5.373-12-12V36.706c0-6.627,5.373-12,12-12h106.508c6.628,0,12,5.373,12,12v42.949"/>
<g>
	<path fill="#FFFFFF" d="M292.254,70.469v43.22h-1.694c-6.78-14.407-19.52-16.678-33.079-22.61"/>
	<g>
		<path d="M290.379,70.469c0,14.407,0,28.813,0,43.22c0.625-0.625,1.25-1.25,1.875-1.875c-1.748,0-0.541-0.055-1.51-1.795
			c-0.764-1.375-1.712-2.715-2.722-3.92c-2.401-2.865-5.141-5.177-8.27-7.206c-6.503-4.216-14.256-6.393-21.326-9.432
			c-2.196-0.944-4.108,2.286-1.893,3.238c12.567,5.402,25.833,8.739,32.406,21.937c0.289,0.58,0.993,0.929,1.619,0.929
			c0.564,0,1.13,0,1.694,0c1.022,0,1.875-0.853,1.875-1.875c0-14.407,0-28.813,0-43.22C294.129,68.05,290.379,68.05,290.379,70.469
			L290.379,70.469z"/>
	</g>
</g>
<path fill="#FFFFFF" stroke="#000000" stroke-width="4" stroke-miterlimit="10" d="M445,91.655"/>
<path fill="#FFFFFF" stroke="#000000" stroke-width="4" stroke-miterlimit="10" d="M424,91.655"/>
<g>

</g>
<g>
	
	<g>
		<path d="M140.459,76.542c0,14.407,0,28.813,0,43.22c0.625-0.625,1.25-1.25,1.875-1.875c-1.495,0-0.587-0.099-0.773-0.472
			c-0.657-1.319-1.488-2.541-2.32-3.752c-1.367-1.991-3.063-3.73-4.848-5.343c-3.799-3.431-8.553-5.734-13.238-7.679
			c-10.378-4.308-20.788-8.04-31.674-10.868c-4.647-1.208-9.393-2.228-14.195-2.524c-6.526-0.404-12.839,3.292-19.068,4.758
			c-10.27,2.417-20.753,4.337-31.155,1.719c-4.192-1.055-8.323-3.096-10.492-6.984c-1.285-2.305-0.871-5.26-0.871-7.809
			c0-6.093,0-12.186,0-18.278c0-7.07,0-14.141,0-21.211c0-1.726-0.119-3.552,0.155-5.254c0.799-4.968,5.923-7.494,10.2-8.863
			c5.719-1.831,12.355-2.153,18.273-1.188c5.219,0.851,10.479,1.817,15.626,3.029c4.875,1.147,9.619,4.02,14.667,4.283
			c11.194,0.583,21.482-4.234,32.024-7.197c11.597-3.259,25.073-2.696,34.298,5.639c1.878,1.697,1.515,6.544,1.515,8.607
			c0,4.761,0,9.522,0,14.284c0,8.958,0,17.916,0,26.874c0,2.418,3.75,2.418,3.75,0c0-12.381,0-24.762,0-37.143
			c0-3.859-0.146-7.763-0.502-11.494c-0.341-3.577-4.419-6.083-7.167-7.892c-5.37-3.535-12.493-4.213-18.739-4.388
			c-15.138-0.424-28.432,8.674-43.479,9.049c-3.587,0.089-7.017-1.537-10.308-2.74c-3.321-1.215-6.81-1.938-10.271-2.615
			c-5.234-1.024-10.546-2.224-15.887-2.469c-7.466-0.343-16.748,0.774-22.728,5.676c-4.535,3.716-5.177,8.334-5.177,13.804
			c0,12.313,0,24.626,0,36.938c0,3.744-0.551,7.951,1.011,11.424c2.859,6.357,9.797,8.985,16.209,10.225
			c7.939,1.535,15.265,0.296,23.1-1.074c6.309-1.103,12.204-2.729,18.226-4.88c5.268-1.881,10.59-0.813,15.881,0.328
			c9.586,2.069,18.958,5.15,28.054,8.771c10.95,4.36,21.036,8.381,26.59,19.533c0.289,0.58,0.993,0.929,1.619,0.929
			c0.565,0,1.129,0,1.694,0c1.022,0,1.875-0.853,1.875-1.875c0-14.407,0-28.813,0-43.22
			C144.209,74.124,140.459,74.124,140.459,76.542L140.459,76.542z"/>
	</g>
</g>
<g>
	<path fill="#FFFFFF" d="M347.441,428.281c-2.82-4.938,3.211-10.665-1.115-14.791c-4.482-4.275-8.976-6.914-9.324-14.057
		c-0.433-8.877,6.784-11.052,10.75-17.391c3.836-6.135,12.711-10.952,20.022-9.43c4.334,1,6.334,5.668,10,7.668
		c4,2.332,8.334-1.668,12.334-3.668c5.333-2.332,11.333-3.332,17-3.666c3,0,5.333,0.334,8.333,1.334s6.333,3.666,9.333,4.332
		c4.667,0.668,9-3.332,13.334-4c10.666-1.332,27,0.668,33,10.668c1,2,1,2.666,1.333,5c0.667,3.666,2.667,6,5,8.666
		c4.333,5.334,8.667,10,9.667,17c1,4.666-1.334,7.334-4.667,10.334c-2.333,2-3.333,2.332-3.667,5.332
		c-0.333,3.334,1.667,8.334,0,11.334c-2.333,4.666-11,4-15.666,4c-4.334,0-9-1-13.334-2.334c-3.666-1-7.333-4-11-5
		c-5-0.666-8.333,4.334-12.666,6.334c-9,3.334-18,0.334-26-3c-4-1.666-6.667-3.666-10-5.666c-2-1-1.667-1.334-4.334-0.668
		c-4.666,1.334-8,4-13.333,4c-4.333,0-8-2.332-12-4C356.774,434.613,349.108,432.613,347.441,428.281z"/>
	<g>
		<path d="M349.6,427.02c-1.921-4.406,2.053-9.059-0.292-13.812c-1-2.028-3.6-3.646-5.233-5.146
			c-3.063-2.813-4.566-5.826-4.575-10.047c-0.012-5.231,5.533-8.685,8.594-12.23c4.58-5.308,8.112-10.048,15.701-10.912
			c6.482-0.738,8.155,5.693,13.315,7.82c6.214,2.561,11.396-2.954,16.936-4.913c7.106-2.513,15.833-3.594,22.772-0.16
			c5.267,2.606,8.841,4.736,14.681,2.226c5.7-2.45,10.204-3.323,16.396-2.976c6.012,0.339,12.033,1.96,17.044,5.35
			c5.324,3.603,4.459,9.657,7.607,14.614c3.688,5.806,9.138,9.993,11.467,16.703c2.694,7.761-3.354,9.25-6.815,14.544
			c-3.012,4.607,3.047,13.174-3.148,15.567c-4.761,1.84-12.057,1.033-16.941,0.223c-3.495-0.581-7.034-1.575-10.195-3.173
			c-2.404-1.217-5.327-3.482-8.137-3.584c-3.258-0.117-5.764,1.048-8.389,2.902c-4.368,3.087-7.635,4.829-13.24,4.877
			c-9.993,0.085-18.367-5.788-26.738-10.287c-2.332-1.254-4.368-0.703-6.808,0.086c-4.694,1.518-8.433,4.087-13.634,3.121
			c-3.845-0.715-7.503-3.114-11.072-4.667C355.61,431.719,351.302,430.433,349.6,427.02c-1.438-2.886-5.751-0.353-4.316,2.523
			c1.973,3.959,6.14,5.793,10.007,7.46c4.887,2.106,10.14,5.655,15.556,6.007c2.987,0.193,5.649-0.247,8.479-1.215
			c1.919-0.655,6.601-3.888,8.56-2.872c6.147,3.187,11.515,6.668,18.154,8.917c6.18,2.094,12.582,2.607,18.936,1.103
			c2.637-0.625,4.74-2.18,6.855-3.792c1.068-0.814,2.141-1.569,3.285-2.274c2.696-1.658,5.489,0.096,7.898,1.396
			c9.246,4.99,22.074,7.08,32.364,4.197c3.498-0.979,6.435-4.021,6.531-7.777c0.069-2.67-0.476-5.256-0.667-7.91
			c-0.238-3.315,3.938-5.464,5.882-7.708c7.742-8.942-2.232-20.949-7.914-27.894c-2.376-2.905-4.033-5.253-4.565-9.048
			c-0.322-2.303-1.363-4.243-2.76-6.068c-2.948-3.855-7.278-6.153-11.733-7.828c-9.548-3.589-20.664-3.536-29.846,0.72
			c-4.881,2.263-8.013-0.192-12.297-2.313c-2.849-1.409-6.04-1.887-9.169-2.152c-6.879-0.584-15.326,1.434-21.337,4.693
			c-1.396,0.758-2.734,1.625-4.128,2.392c-3.356,1.846-5.454-0.034-7.688-2.337c-1.715-1.768-3.591-3.84-6.014-4.632
			c-5.583-1.826-11.41-0.095-16.342,2.721c-5.191,2.963-7.842,8.252-11.992,12.302c-3.727,3.635-6.322,7.076-6.84,12.386
			c-0.576,5.912,2.904,10.704,7.006,14.47c1.013,0.93,2.046,1.837,3.054,2.773c1.749,1.627,0.493,4.584,0.053,6.447
			c-0.664,2.814-0.475,5.21,0.672,7.838C346.568,432.492,350.875,429.944,349.6,427.02z"/>
	</g>
</g>
<g>
	<path fill="#FFFFFF" d="M445.668,452.748c-4.666,0.666-9.333,1-14.333,1.666c-3.333,0.667-9.667,2-3.667,5
		c1.667,0.667,3.667,0.667,5,1.334c1.667,0.666,2,1.666,3.334,2.666c3.333,2.334,7,0.334,11,0.667
		c4.333,0.333,7.666,1.667,12.333,0.333c5.667-1.333,7.333-4.666,2-8c-5-3-10-2.666-15.333-2.666"/>
	<g>
		<path d="M445.003,450.337c-5.432,0.731-11.002,0.897-16.356,2.103c-2.535,0.57-5.946,1.752-5.946,4.872
			c0,3.284,4.432,4.671,6.929,5.181c2.606,0.531,4.266,2.64,6.561,3.835c2.248,1.171,5.09,0.683,7.466,0.385
			c5.562-0.698,22.125,4.135,23.305-5.548c1.165-9.563-15.043-9.939-20.958-9.916c-3.224,0.013-3.225,5.013,0,5
			c2.893-0.012,5.775-0.08,8.647,0.342c2.778,0.409,9.983,3.683,4.021,5.413c-3.155,0.917-6.258,0.281-9.421-0.168
			c-3-0.427-5.789-0.046-8.778,0.217c-3.066,0.27-4.596-2.807-7.138-3.715c-0.763-0.326-1.554-0.549-2.375-0.667
			c-1.087-0.232-5.284,0.92-2.044-0.131c5.459-1.77,11.746-1.617,17.419-2.38C449.516,454.73,448.154,449.913,445.003,450.337
			L445.003,450.337z"/>
	</g>
</g>
<g>
	<path fill="#FFFFFF" d="M427.335,469.081c-3,0.667-4,3-2.667,5.667c1.334,2.666,2.667,3,5.334,3c5,0.333,10,0,14.666-0.667
		c1.334-8.333-11.333-5-15-6.667"/>
	<g>
		<path d="M426.67,466.67c-5.791,1.83-6.433,7.904-2.199,11.967c1.851,1.775,4.683,1.565,7.031,1.691
			c4.625,0.248,9.253-0.22,13.831-0.836c1.162-0.157,1.727-1.41,1.835-2.411c0.446-4.121-1.871-6.872-5.742-7.943
			c-3.577-0.99-7.648,0.169-11.093-1.135c-3.021-1.143-4.315,3.692-1.33,4.822c3.438,1.301,13.755-1.188,13.165,4.256
			c0.611-0.804,1.224-1.607,1.835-2.411c-3.656,0.493-7.314,0.716-11.004,0.7c-1.313-0.005-2.624-0.114-3.938-0.142
			c-1.661-0.034-3.865-2.851-1.062-3.736C431.063,470.524,429.754,465.696,426.67,466.67L426.67,466.67z"/>
	</g>
</g>
<g>
	<path fill="#FFFFFF" d="M423.002,486.414c-4.334,0.667-5,3-1,5c3.333,1.667,5,1,8,0c3.666-1,6-2.666,1-4.333
		c-3-1.333-5.334-0.667-8.334-0.667"/>
	<g>
		<path d="M422.337,484.003c-2.003,0.359-3.76,1.072-4.966,2.768c-1.156,1.624-0.285,3.61,0.786,4.953
			c1.307,1.638,3.925,2.655,5.908,3.041c2.082,0.405,4.083-0.104,6.054-0.757c2.587-0.856,8.479-2.976,5.617-6.838
			c-1.321-1.785-3.854-2.588-5.92-3.107c-2.337-0.587-4.779-0.183-7.148-0.148c-3.222,0.047-3.226,5.047,0,5
			c2.394-0.035,4.716-0.435,7.036,0.321c0.568,0.186,1.15,0.424,1.688,0.685c0.747,0.363-0.119-0.178,0.036-1.293
			c0.066-0.481,0.52-0.68-0.107-0.325c-0.462,0.263-0.989,0.403-1.492,0.562c-2.104,0.662-3.813,1.402-5.984,0.66
			c-0.562-0.192-1.093-0.539-1.597-0.847c-0.211-0.129-0.677-0.863-0.43-0.247c0.271,0.678-0.728,1.304-0.012,0.876
			c0.523-0.313,1.274-0.376,1.861-0.48C426.837,488.257,425.489,483.438,422.337,484.003L422.337,484.003z"/>
	</g>
</g>
<g>
	<path fill="#FFFFFF" d="M224.728,373.042c-21.578-0.709-45.387,11.33-55.804,29.033c-6.696,12.748-2.976,21.953,9.673,29.035
		c14.138,8.498,31.995,2.832,46.875,9.206c29.018,11.33,58.78,14.872,86.311-3.541c13.393-9.206,5.207-20.536-2.977-29.742
		c-21.578-21.953-56.549-42.489-89.287-32.576"/>
	<g>
		<path d="M224.728,370.542c-22.136-0.437-48.352,11.057-58.664,31.673c-4.523,9.043-3.566,18.44,3.672,25.611
			c9.031,8.948,21.576,10.63,33.639,11.27c6.786,0.36,13.463,0.797,19.935,3.033c7.095,2.451,13.981,5.109,21.288,6.932
			c12.825,3.199,26.093,4.03,39.144,1.844c6.344-1.063,12.424-3.188,18.283-5.791c5.709-2.535,12.844-6.002,16.518-11.294
			c6.154-8.86,0.621-18.115-5.27-25.412c-10.789-13.362-26.67-24.054-42.164-31.116c-16.391-7.471-34.755-10.276-52.254-5.245
			c-3.093,0.89-1.776,5.715,1.329,4.822c28.133-8.091,56.623,5.676,77.867,23.568c7.201,6.064,22.947,18.947,16.932,29.771
			c-3.396,6.11-13.514,9.933-19.666,12.329c-7.033,2.74-14.52,4.112-22.029,4.562c-14.402,0.861-28.728-2.601-42.216-7.347
			c-6.054-2.13-11.6-4.161-18.011-4.963c-7.254-0.907-14.593-0.629-21.822-1.815c-12.141-1.993-26.104-10.915-22.198-24.797
			c3.42-12.155,16.157-21.118,26.871-26.36c8.907-4.357,18.929-6.47,28.817-6.274C227.954,375.605,227.948,370.605,224.728,370.542
			L224.728,370.542z"/>
	</g>
</g>
<g>
	<path fill="#FFFFFF" d="M195.71,445.272c-6.696,1.418-23.065,1.418-14.137,11.331c5.208,5.666,14.137,3.541,20.089,2.125
		c4.464-1.416,22.321-5.665,12.648-12.038c-2.976-2.833-14.137-0.709-18.601-0.709"/>
	<g>
		<path d="M195.045,442.861c-5.913,1.158-17.705,0.689-18.575,8.762c-0.438,4.061,4.428,8.466,7.716,9.813
			c5.881,2.408,12.174,1.114,18.141-0.296c4.98-1.178,18.155-4.179,17.242-11.346c-1.305-10.24-17.512-6.458-23.859-6.313
			c-3.219,0.074-3.226,5.074,0,5c5.621-0.129,13.835-2.831,18.455,1.265c2.064,1.83-10.431,5.759-12.066,6.238
			c-3.064,0.9-6.212,1.541-9.397,1.798c-3.918,0.316-10.782-1.194-11.231-6.159c-0.236-2.61,13.046-3.576,14.904-3.939
			C199.537,447.064,198.195,442.245,195.045,442.861L195.045,442.861z"/>
	</g>
</g>
<g>
	<path fill="#FFFFFF" d="M206.127,466.518c-8.185-1.416-13.393,4.25-2.977,7.082c4.464,1.417,11.905,1.417,16.369,0.709
		c5.953-0.709,14.137-5.665,5.953-9.207c-4.464-1.416-13.393,0-17.857,1.416"/>
	<g>
		<path d="M206.127,464.018c-4.719-0.629-13.566,1.147-10.633,7.798c1.352,3.063,6.434,4.142,9.242,4.751
			c4.621,1.002,9.706,0.953,14.368,0.304c4.021-0.561,17.218-5.293,11.042-11.561c-5.603-5.686-16.436-3.221-23.196-1.203
			c-3.082,0.92-1.768,5.746,1.329,4.822c3.9-1.165,7.905-1.789,11.972-1.911c0.67-0.021,6.612,0.42,6.145,1.521
			c-0.846,1.996-4.646,2.774-6.472,3.19c-4.723,1.077-10.339,0.779-15.029-0.238c-0.849-0.228-1.691-0.477-2.527-0.747
			c-1.259-0.388-2.106-1.531-2.562-0.972c1.25-1.535,4.676-0.975,6.321-0.755C209.315,469.442,209.274,464.438,206.127,464.018
			L206.127,464.018z"/>
	</g>
</g>
<g>
	<path fill="#FFFFFF" d="M224.728,482.098c-7.44,0-4.464,8.497,2.232,7.082c8.928-2.125,5.953-8.498-2.232-7.789"/>
	<g>
		<path d="M224.728,479.598c-4.005,0.084-7.553,2.556-6.687,6.916c0.786,3.954,5.306,5.681,8.868,5.192
			c3.96-0.542,8.669-3.256,7.853-7.845c-0.756-4.246-6.605-5.215-10.034-4.971c-3.197,0.228-3.219,5.229,0,5
			c1.271-0.091,2.47-0.063,3.699,0.283c0.389,0.109,0.718,0.281,1.087,0.505c0.297,0.181,0.368,0.349,0.458,0.509
			c-0.144-0.253-0.105,0.047-0.041-0.284c-0.054,0.279,0.07,0.034-0.219,0.346c-0.797,0.858-2.266,1.229-3.417,1.52
			c-0.742,0.188-1.708,0.022-2.11-0.162c-0.164-0.08-0.322-0.169-0.477-0.266c-0.626-0.371,0.201,0.223-0.313-0.252
			c-0.028-0.026-0.504-0.632-0.237-0.25c-0.036-0.051-0.367-0.721-0.169-0.229c-0.253-0.629-0.126,0.04-0.12-0.612
			c-0.056,0.317-0.053,0.333,0.01,0.047c0.146-0.604-0.231,0.373,0.107-0.163c-0.194,0.307,0.177-0.049,0.056,0.002
			c0.552-0.231,1.095-0.273,1.684-0.286C227.948,484.53,227.954,479.53,224.728,479.598L224.728,479.598z"/>
	</g>
</g>
<ellipse fill="#FFFFFF" stroke="#000000" stroke-width="4" stroke-miterlimit="10" cx="69.695" cy="435.594" rx="61.885" ry="39.262"/>
<ellipse fill="#FFFFFF" stroke="#000000" stroke-width="4" stroke-miterlimit="10" cx="113.771" cy="462.809" rx="17.809" ry="12.047"/>
<path fill="#FFFFFF" stroke="#000000" stroke-width="4" stroke-miterlimit="10" d="M131.58,473.964c0,3.448-3.987,6.245-8.904,6.245
	c-4.918,0-8.904-2.797-8.904-6.245c0-3.452,3.986-6.247,8.904-6.247C127.593,467.717,131.58,470.512,131.58,473.964z"/>
<path fill="#FFFFFF" stroke="#000000" stroke-width="4" stroke-miterlimit="10" d="M130.542,209.566"/>
<g>
	<path fill="#FFFFFF" stroke="#000000" stroke-width="4" stroke-miterlimit="10" d="M110.979,210.742
		c-9.207,3.17-19.559,5.224-30.281,5.224c-33.273,0-60.246-14.129-60.246-31.557c0-17.429,26.973-31.558,60.246-31.558
		c33.272,0,59.377,17.128,59.377,34.557"/>
	<g>
		<path fill="#FFFFFF" d="M140.074,187.408l5.492,42.87l-1.681,0.215c-8.557-13.428-18.704-15.59-32.907-19.751"/>
		<g>
			<path d="M138.199,187.408c1.831,14.29,3.662,28.58,5.492,42.87c0.625-0.625,1.25-1.25,1.875-1.875
				c-1.654,0.212-0.678,0.184-1.795-1.396c-0.911-1.288-1.942-2.493-2.982-3.677c-2.327-2.649-5.188-4.806-8.177-6.646
				c-6.384-3.928-14.02-5.678-21.135-7.75c-2.327-0.678-3.314,2.941-0.997,3.616c12.795,3.728,24.082,7.205,31.787,18.889
				c0.333,0.504,0.963,1.013,1.619,0.929c0.56-0.072,1.121-0.144,1.681-0.215c0.907-0.116,2.017-0.771,1.875-1.875
				c-1.831-14.29-3.662-28.58-5.492-42.87C141.646,185.043,137.893,185.014,138.199,187.408L138.199,187.408z"/>
		</g>
	</g>
</g>
<path fill="#FFFFFF" stroke="#000000" stroke-width="4" stroke-miterlimit="10" d="M227.045,215.229"/>
<g>
	<path fill="#FFFFFF" d="M209.267,212.922c4.696,1.354,7.312,3.552,7.999,10.535c0.451,4.591-0.943,9.124-2.843,13.313
		c-0.717,1.582-2.323,8.137-4.115,8.314c11.159-1.101,20.391-5.416,27.792-13.067c4.49-4.642,6.981-9.748,3.984-15.781l-2-0.464
		c37.831,0,68.5-13.417,68.5-29.968s-30.669-29.968-68.5-29.968c-37.832,0-68.5,13.417-68.5,29.969
		c0,14.456,19.298,23.285,32.221,25.887C205.866,212.106,207.685,212.466,209.267,212.922z"/>
	<g>
		<path d="M208.603,215.333c6.4,2.012,6.905,8.36,5.712,14.267c-0.208,1.031-3.421,12.562-4.672,13.073
			c-2.367,0.968-2.385,5.256,0.665,4.911c11.402-1.292,21.402-5.637,29.56-13.799c4.589-4.591,10.666-18.152,0.881-20.424
			c-0.222,1.637-0.443,3.274-0.665,4.911c21.389-0.122,49.408-3.034,65.215-19.384c4.799-4.963,7.062-11.777,4.855-18.457
			c-2.532-7.668-10.106-12.807-16.908-16.345c-22.715-11.817-51.687-12.625-76.462-8.986c-15.702,2.306-43.461,8.875-47.397,27.661
			c-1.858,8.865,4.091,16.444,10.667,21.506C188.509,210.775,198.587,212.678,208.603,215.333c3.121,0.827,4.443-3.996,1.329-4.821
			c-10.693-2.835-21.113-4.888-29.682-12.516c-7.784-6.929-7.705-16.129-0.465-23.121c7.955-7.682,19.917-11.126,30.401-13.489
			c14.405-3.247,29.466-3.674,44.135-2.404c12.829,1.111,26.01,4.014,37.494,9.988c6.696,3.483,15.44,9.89,14.146,18.547
			c-1.315,8.792-11.495,14.086-18.702,17.317c-12.401,5.561-26.497,7.577-39.948,8.271c-2.407,0.124-4.817,0.151-7.227,0.165
			c-2.782,0.016-3.458,4.262-0.665,4.911c0.563,0.131,1.125,0.261,1.688,0.392c0.549,0.127-1.139,6.695-1.471,7.367
			c-1.74,3.521-5.326,6.481-8.397,8.816c-6.054,4.603-13.446,6.979-20.931,7.826c0.222,1.637,0.443,3.274,0.665,4.911
			c2.58-1.055,3.447-3.417,4.398-5.886c1.611-4.18,3.633-8.565,4.195-13.025c1.036-8.233-1.35-15.467-9.634-18.071
			C206.847,209.542,205.538,214.37,208.603,215.333z"/>
	</g>
</g>
<g>
	<path fill="#FFFFFF" d="M419.77,91.655c4.697,1.354,7.313,3.552,7.999,10.535c0.451,4.591-0.943,9.124-2.843,13.313
		c-0.717,1.582-2.322,8.137-4.115,8.314c11.159-1.101,20.391-5.416,27.792-13.067c4.49-4.642,4.061-13.061,1.063-19.095
		c6.628,0,12-5.373,12-12V36.706c0-6.627-5.372-12-12-12H343.157c-6.627,0-12,5.373-12,12v42.949c0,6.627,5.373,12,12,12H420H419.77
		z"/>
	<g>
		<path d="M419.271,93.463c6.762,2.125,7.412,8.781,6.149,15.036c-0.267,1.321-3.4,12.811-5.108,13.509
			c-1.775,0.726-1.789,3.942,0.498,3.683c10.183-1.153,19.206-4.742,26.953-11.521c7.108-6.219,7.271-15.246,3.521-23.462
			c-0.54,0.94-1.079,1.881-1.619,2.821c17.017-0.917,13.875-20.086,13.875-31.894c0-7.219,0-14.438,0-21.656
			c0-6.271-1.23-11.548-6.872-15.254c-3.215-2.112-7.09-1.895-10.743-1.895c-5.068,0-10.136,0-15.203,0c-15.726,0-31.452,0-47.178,0
			c-12.346,0-24.69,0-37.036,0c-4.103,0-7.762,0.191-11.385,2.571c-5.341,3.509-5.842,9.428-5.842,15.155
			c0,12.944,0,25.888,0,38.832c0,7.66,6.128,14.141,13.892,14.141c3.278,0,6.557,0,9.834,0c22.331,0,44.661,0,66.992,0
			c2.418,0,2.418-3.75,0-3.75c-0.077,0-0.153,0-0.23,0c-2.418,0-2.418,3.75,0,3.75c0.077,0,0.153,0,0.23,0
			c2.418,0,2.418-3.75,0-3.75c-24.287,0-48.573,0-72.86,0c-6.802,0-13.653-1.7-14.107-10.125c-0.253-4.695,0-9.473,0-14.173
			c0-7.657,0-15.313,0-22.97c0-7.031,0.569-15.931,10.138-15.931c24.576,0,49.152,0,73.729,0c10.599,0,21.196,0,31.795,0
			c6.888,0,11.098,4.804,11.098,11.512c0,6.53,0,13.061,0,19.592c0,6.04,0,12.08,0,18.119c0,6.801-1.823,13.529-10.125,13.976
			c-1.508,0.081-2.218,1.509-1.619,2.821c1.736,3.804,2.439,7.84,1.685,11.977c-0.759,4.165-4.504,7.041-7.675,9.452
			c-6.145,4.672-13.654,7.052-21.246,7.912c0.166,1.228,0.332,2.456,0.498,3.683c2.33-0.953,3.106-3.229,3.963-5.45
			c1.586-4.116,3.619-8.469,4.172-12.859c1-7.946-1.153-14.947-9.176-17.469C417.954,89.12,416.973,92.741,419.271,93.463z"/>
	</g>
</g>
<path fill="none" stroke="#000000" stroke-width="3" stroke-miterlimit="10" d="M414.25,212.493"/>
<path fill="#FFFFFF" stroke="#000000" stroke-width="3" stroke-miterlimit="10" d="M414.25,238.5l-11.75-26.007h-44
	c-6.627,0-12-5.373-12-12V160.5c0-6.627,5.373-12,12-12H470c6.627,0,12,5.373,12,12v39.993c0,6.627-5.373,12-12,12h-46L414.25,238.5
	z"/>
<path fill="none" stroke="#000000" stroke-width="3" stroke-miterlimit="10" d="M78.072,358.508"/>
<path fill="none" stroke="#000000" stroke-width="3" stroke-miterlimit="10" d="M78.072,332.5"/>
<path fill="#FFFFFF" stroke="#000000" stroke-width="3" stroke-miterlimit="10" d="M78.072,358.508l9.75-26.008l-0.826-0.063
	C116.04,331.452,136,319.097,136,304c0-15.74-24.96-28.5-55.75-28.5S24.5,288.26,24.5,304c0,13.773,16.308,24.829,41.822,28.5l0,0
	L78.072,358.508"/>
<polygon fill="#FFFFFF" stroke="#000000" stroke-width="3" stroke-miterlimit="10" points="241.834,319.082 214.697,317.301 
	197.845,338.646 191.153,312.286 165.645,302.855 188.646,288.345 189.733,261.171 210.641,278.563 236.821,271.199 
	226.741,296.459 "/>
<polygon fill="#FFFFFF" stroke="#000000" stroke-width="3" stroke-miterlimit="10" points="248.91,324.946 240.855,324.192 
	235.668,330.4 233.896,322.507 226.388,319.492 233.348,315.367 233.896,307.295 239.969,312.64 247.814,310.666 244.608,318.094 
	"/>
<polygon fill="#FFFFFF" stroke="#000000" stroke-width="3" stroke-miterlimit="10" points="254.226,327.606 250.396,327.068 
	247.783,329.917 247.111,326.109 243.595,324.504 247.009,322.689 247.448,318.848 250.229,321.533 254.019,320.766 252.324,324.24 
	"/>
<path fill="#FFFFFF" stroke="#000000" stroke-width="4" stroke-miterlimit="10" d="M470.049,329.917l-33.028-22.622
	c-10.419,4.884-20.366,6.377-36.463,6.377c-31.688,0-57.377-11.753-57.377-26.25c0-14.498,25.688-26.251,57.377-26.251
	s57.377,11.753,57.377,26.251c0,4.177,0.899,4.745-2.896,8.251l16.01,34.244H470.049z"/>
</svg>
