<?xml version="1.0" encoding="UTF-8" standalone="no"?>
<!-- Created with Inkscape (http://www.inkscape.org/) -->

<svg
   xmlns:dc="http://purl.org/dc/elements/1.1/"
   xmlns:cc="http://creativecommons.org/ns#"
   xmlns:rdf="http://www.w3.org/1999/02/22-rdf-syntax-ns#"
   xmlns:svg="http://www.w3.org/2000/svg"
   xmlns="http://www.w3.org/2000/svg"
   xmlns:xlink="http://www.w3.org/1999/xlink"
   xmlns:sodipodi="http://sodipodi.sourceforge.net/DTD/sodipodi-0.dtd"
   xmlns:inkscape="http://www.inkscape.org/namespaces/inkscape"
   width="210mm"
   height="297mm"
   id="svg2"
   version="1.1"
   inkscape:version="0.48.1 "
   sodipodi:docname="neptuno.svg">
  <title
     id="title3793">neptuno</title>
  <defs
     id="defs4">
    <linearGradient
       id="linearGradient3765">
      <stop
         style="stop-color:#0078ff;stop-opacity:0.24285714;"
         offset="0"
         id="stop3767" />
      <stop
         style="stop-color:#000000;stop-opacity:1;"
         offset="1"
         id="stop3769" />
    </linearGradient>
    <linearGradient
       inkscape:collect="always"
       xlink:href="#linearGradient3765"
       id="linearGradient3771"
       x1="758.86694"
       y1="614.34979"
       x2="128.39902"
       y2="679.19446"
       gradientUnits="userSpaceOnUse" />
  </defs>
  <sodipodi:namedview
     id="base"
     pagecolor="#ffffff"
     bordercolor="#666666"
     borderopacity="1.0"
     inkscape:pageopacity="0.0"
     inkscape:pageshadow="2"
     inkscape:zoom="0.35"
     inkscape:cx="350"
     inkscape:cy="725.26493"
     inkscape:document-units="px"
     inkscape:current-layer="layer1"
     showgrid="false"
     inkscape:window-width="1366"
     inkscape:window-height="706"
     inkscape:window-x="-8"
     inkscape:window-y="-8"
     inkscape:window-maximized="1" />
  <metadata
     id="metadata7">
    <rdf:RDF>
      <cc:Work
         rdf:about="">
        <dc:format>image/svg+xml</dc:format>
        <dc:type
           rdf:resource="http://purl.org/dc/dcmitype/StillImage" />
        <dc:title>neptuno</dc:title>
      </cc:Work>
    </rdf:RDF>
  </metadata>
  <g
     inkscape:label="Capa 1"
     inkscape:groupmode="layer"
     id="layer1">
    <path
       sodipodi:type="arc"
       style="fill:#0078ff;fill-opacity:1;fill-rule:evenodd;stroke:none"
       id="path2985"
       sodipodi:cx="371.42856"
       sodipodi:cy="549.50507"
       sodipodi:rx="408.57144"
       sodipodi:ry="414.28571"
       d="m 780,549.50507 a 408.57144,414.28571 0 1 1 -0.11576,-9.86115"
       sodipodi:start="0"
       sodipodi:end="6.2593803"
       sodipodi:open="true"
       transform="matrix(0.81118882,0,0,0.79310344,61.558437,87.97642)" />
    <path
       transform="matrix(0.81118882,0,0,0.79310344,61.558433,87.976417)"
       sodipodi:open="true"
       sodipodi:end="6.2593803"
       sodipodi:start="0"
       d="m 780,549.50507 a 408.57144,414.28571 0 1 1 -0.11576,-9.86115"
       sodipodi:ry="414.28571"
       sodipodi:rx="408.57144"
       sodipodi:cy="549.50507"
       sodipodi:cx="371.42856"
       id="path3755"
       style="fill:url(#linearGradient3771);fill-opacity:1;fill-rule:evenodd;stroke:none"
       sodipodi:type="arc" />
    <path
       style="fill:none;stroke:#000000;stroke-width:1px;stroke-linecap:butt;stroke-linejoin:miter;stroke-opacity:1"
       d="M 642.85714,340.93361 C 414.9429,494.01239 211.73037,565.92839 37.142857,543.79075 l 0,0 -5.714286,-5.71428 0,0 0,8.57143"
       id="path3773"
       inkscape:connector-curvature="0"
       sodipodi:nodetypes="cccccc" />
    <path
       style="fill:none;stroke:#000000;stroke-width:1px;stroke-linecap:butt;stroke-linejoin:miter;stroke-opacity:1"
       d="M 677.14286,403.79075 C 489.9271,531.6158 273.62116,589.62438 48.571429,626.6479 l 0,0"
       id="path3775"
       inkscape:connector-curvature="0"
       sodipodi:nodetypes="ccc" />
    <path
       style="fill:none;stroke:#000000;stroke-width:1px;stroke-linecap:butt;stroke-linejoin:miter;stroke-opacity:1"
       d="M 694.28571,580.93361 C 582.85714,609.18814 471.42857,611.02006 360,695.21933 c -51.74942,17.09023 -172.04554,39.89268 -54.28571,42.85714 38.09524,28.57143 72.38095,30.47618 102.85714,5.71428 98.71971,-82.33392 178.40961,-79.03373 262.85714,-97.14285 l 0,-2.85715"
       id="path3777"
       inkscape:connector-curvature="0"
       sodipodi:nodetypes="cccccc" />
    <path
       style="fill:#000080;fill-opacity:1;fill-rule:evenodd;stroke:none"
       d="m 43.830085,605.86692 c -5.675075,-24.02621 -11.40478,-58.0337 -10.007653,-59.39837 0.569091,-0.55588 15.817721,0.0887 33.885842,1.43242 148.936176,11.07622 331.233956,-49.44272 530.577066,-176.14019 20.74269,-13.18352 38.94486,-23.97003 40.44935,-23.97003 2.73062,0 33.18385,56.80134 31.36694,58.50558 -0.52732,0.49462 -17.87414,11.24868 -38.54846,23.89791 C 490.80454,516.30889 316.32157,576.82721 94.857143,616.34387 76,619.70862 57.84122,623.11635 54.504301,623.91662 49.06949,625.22001 47.95702,623.33886 43.830085,605.86692 z"
       id="path3779"
       inkscape:connector-curvature="0" />
    <path
       style="fill:#ffffff;fill-opacity:1;fill-rule:evenodd;stroke:none"
       d="m 338.60933,753.71614 c -7.36487,-2.87975 -17.65058,-7.82882 -22.85714,-10.99795 -5.73086,-3.48825 -17.44572,-6.53782 -29.68678,-7.72796 -24.81519,-2.41266 -30.32984,-5.14589 -19.25823,-9.54497 10.46466,-4.15792 84.38683,-26.22505 87.85236,-26.22555 1.46275,-2.1e-4 13.03418,-6.9314 25.71429,-15.40263 59.67276,-39.86576 110.07193,-57.99121 230.83428,-83.01675 34.13589,-7.07396 65.2228,-13.65425 69.082,-14.62285 l 7.01678,-1.76109 -4.169,16.68718 c -3.54435,14.18698 -12.13443,40.75962 -13.94206,43.12858 -0.30514,0.39992 -25.51334,5.28961 -56.01817,10.866 -88.14563,16.11328 -135.39427,34.71405 -188.36759,74.15622 -40.76322,30.35094 -58.36491,35.34589 -86.20074,24.46177 z"
       id="path3781"
       inkscape:connector-curvature="0" />
    <path
       style="fill:#000092;stroke:#000000;stroke-width:1px;stroke-linecap:butt;stroke-linejoin:miter;stroke-opacity:1;fill-opacity:1"
       d="m 485.71429,220.93361 c -36.98476,9.23726 -56.95312,14.92231 -123.38439,14.86535 -49.99851,-0.0429 -97.94176,22.10867 -142.3299,67.99179 -9.48796,12.54453 -30.92983,-10.49617 -42.14286,40 -3.74889,15.68397 29.48111,19.66421 39.28572,28.57143 l 37.14285,0 c 21.90301,7.38446 30.08895,21.48877 62.14286,8.57143 29.97134,-17.58029 31.44868,-18.22496 37.85714,-31.42857 25.31036,-8.62613 18.1126,20.13208 77.97936,-28.2339 8.4864,-23.04385 58.48995,-21.1774 87.73493,-31.7661 l 13.57143,-20 9.28571,-11.42857 5.71429,-2.85714"
       id="path3791"
       inkscape:connector-curvature="0"
       sodipodi:nodetypes="csccccccccccc" />
  </g>
</svg>
