<?xml version="1.0" encoding="UTF-8" standalone="no"?>
<!-- Created with Inkscape (http://www.inkscape.org/) -->

<svg
   version="1.1"
   id="svg1"
   width="880"
   height="880"
   viewBox="0 0 880 880"
   sodipodi:docname="rocks-grass-publicdomainvectors.org.svg"
   inkscape:version="1.3.2 (091e20e, 2023-11-25, custom)"
   xmlns:inkscape="http://www.inkscape.org/namespaces/inkscape"
   xmlns:sodipodi="http://sodipodi.sourceforge.net/DTD/sodipodi-0.dtd"
   xmlns="http://www.w3.org/2000/svg"
   xmlns:svg="http://www.w3.org/2000/svg">
  <defs
     id="defs1">
    <clipPath
       clipPathUnits="userSpaceOnUse"
       id="clipPath3">
      <path
         d="M 0,660 H 660 V 0 H 0 Z"
         transform="translate(-147.208,-174.41211)"
         id="path3" />
    </clipPath>
    <clipPath
       clipPathUnits="userSpaceOnUse"
       id="clipPath5">
      <path
         d="M 0,660 H 660 V 0 H 0 Z"
         transform="translate(-373.75391,-87.8281)"
         id="path5" />
    </clipPath>
    <clipPath
       clipPathUnits="userSpaceOnUse"
       id="clipPath7">
      <path
         d="M 0,660 H 660 V 0 H 0 Z"
         transform="translate(-494.12791,-156.4414)"
         id="path7" />
    </clipPath>
    <clipPath
       clipPathUnits="userSpaceOnUse"
       id="clipPath9">
      <path
         d="M 0,660 H 660 V 0 H 0 Z"
         transform="translate(-563.92871,-249.56151)"
         id="path9" />
    </clipPath>
    <clipPath
       clipPathUnits="userSpaceOnUse"
       id="clipPath11">
      <path
         d="M 0,660 H 660 V 0 H 0 Z"
         transform="translate(-494.19141,-289.37701)"
         id="path11" />
    </clipPath>
    <clipPath
       clipPathUnits="userSpaceOnUse"
       id="clipPath13">
      <path
         d="M 0,660 H 660 V 0 H 0 Z"
         transform="translate(-545.91112,-329.63961)"
         id="path13" />
    </clipPath>
    <clipPath
       clipPathUnits="userSpaceOnUse"
       id="clipPath15">
      <path
         d="M 0,660 H 660 V 0 H 0 Z"
         transform="translate(-563.55761,-325.76761)"
         id="path15" />
    </clipPath>
    <clipPath
       clipPathUnits="userSpaceOnUse"
       id="clipPath17">
      <path
         d="M 0,660 H 660 V 0 H 0 Z"
         transform="translate(-539.05762,-325.64651)"
         id="path17" />
    </clipPath>
    <clipPath
       clipPathUnits="userSpaceOnUse"
       id="clipPath19">
      <path
         d="M 0,660 H 660 V 0 H 0 Z"
         transform="translate(-527.69731,-318.54591)"
         id="path19" />
    </clipPath>
    <clipPath
       clipPathUnits="userSpaceOnUse"
       id="clipPath21">
      <path
         d="M 0,660 H 660 V 0 H 0 Z"
         transform="translate(-436.88871,-440.06451)"
         id="path21" />
    </clipPath>
    <clipPath
       clipPathUnits="userSpaceOnUse"
       id="clipPath23">
      <path
         d="M 0,660 H 660 V 0 H 0 Z"
         transform="translate(-466.00591,-433.23831)"
         id="path23" />
    </clipPath>
    <clipPath
       clipPathUnits="userSpaceOnUse"
       id="clipPath25">
      <path
         d="M 0,660 H 660 V 0 H 0 Z"
         transform="translate(-426.74611,-433.02341)"
         id="path25" />
    </clipPath>
    <clipPath
       clipPathUnits="userSpaceOnUse"
       id="clipPath27">
      <path
         d="M 0,660 H 660 V 0 H 0 Z"
         transform="translate(-410.03221,-420.50201)"
         id="path27" />
    </clipPath>
    <clipPath
       clipPathUnits="userSpaceOnUse"
       id="clipPath29">
      <path
         d="M 0,660 H 660 V 0 H 0 Z"
         transform="translate(-183.4434,-457.29151)"
         id="path29" />
    </clipPath>
    <clipPath
       clipPathUnits="userSpaceOnUse"
       id="clipPath31">
      <path
         d="M 0,660 H 660 V 0 H 0 Z"
         transform="translate(-212.56051,-450.46581)"
         id="path31" />
    </clipPath>
    <clipPath
       clipPathUnits="userSpaceOnUse"
       id="clipPath33">
      <path
         d="M 0,660 H 660 V 0 H 0 Z"
         transform="translate(-173.3008,-450.25051)"
         id="path33" />
    </clipPath>
    <clipPath
       clipPathUnits="userSpaceOnUse"
       id="clipPath35">
      <path
         d="M 0,660 H 660 V 0 H 0 Z"
         transform="translate(-156.5859,-437.72951)"
         id="path35" />
    </clipPath>
    <clipPath
       clipPathUnits="userSpaceOnUse"
       id="clipPath37">
      <path
         d="M 0,660 H 660 V 0 H 0 Z"
         transform="translate(-424.63091,-281.13571)"
         id="path37" />
    </clipPath>
    <clipPath
       clipPathUnits="userSpaceOnUse"
       id="clipPath39">
      <path
         d="M 0,660 H 660 V 0 H 0 Z"
         transform="translate(-441.82711,-599.17331)"
         id="path39" />
    </clipPath>
    <clipPath
       clipPathUnits="userSpaceOnUse"
       id="clipPath41">
      <path
         d="M 0,660 H 660 V 0 H 0 Z"
         transform="translate(-439.74221,-294.8701)"
         id="path41" />
    </clipPath>
    <clipPath
       clipPathUnits="userSpaceOnUse"
       id="clipPath43">
      <path
         d="M 0,660 H 660 V 0 H 0 Z"
         transform="translate(-440.80081,-303.71191)"
         id="path43" />
    </clipPath>
    <clipPath
       clipPathUnits="userSpaceOnUse"
       id="clipPath45">
      <path
         d="M 0,660 H 660 V 0 H 0 Z"
         transform="translate(-302.27051,-461.80371)"
         id="path45" />
    </clipPath>
    <clipPath
       clipPathUnits="userSpaceOnUse"
       id="clipPath47">
      <path
         d="M 0,660 H 660 V 0 H 0 Z"
         transform="translate(-351.07711,-453.13041)"
         id="path47" />
    </clipPath>
    <clipPath
       clipPathUnits="userSpaceOnUse"
       id="clipPath49">
      <path
         d="M 0,660 H 660 V 0 H 0 Z"
         transform="translate(-285.26661,-452.85791)"
         id="path49" />
    </clipPath>
    <clipPath
       clipPathUnits="userSpaceOnUse"
       id="clipPath51">
      <path
         d="M 0,660 H 660 V 0 H 0 Z"
         transform="translate(-257.251,-436.94531)"
         id="path51" />
    </clipPath>
    <clipPath
       clipPathUnits="userSpaceOnUse"
       id="clipPath53">
      <path
         d="M 0,660 H 660 V 0 H 0 Z"
         transform="translate(-111.3579,-354.54591)"
         id="path53" />
    </clipPath>
    <clipPath
       clipPathUnits="userSpaceOnUse"
       id="clipPath55">
      <path
         d="M 0,660 H 660 V 0 H 0 Z"
         transform="translate(-136.248,-348.85161)"
         id="path55" />
    </clipPath>
    <clipPath
       clipPathUnits="userSpaceOnUse"
       id="clipPath57">
      <path
         d="M 0,660 H 660 V 0 H 0 Z"
         transform="translate(-103.3921,-348.67191)"
         id="path57" />
    </clipPath>
    <clipPath
       clipPathUnits="userSpaceOnUse"
       id="clipPath59">
      <path
         d="M 0,660 H 660 V 0 H 0 Z"
         transform="translate(-90.335905,-338.22751)"
         id="path59" />
    </clipPath>
    <clipPath
       clipPathUnits="userSpaceOnUse"
       id="clipPath61">
      <path
         d="M 0,660 H 660 V 0 H 0 Z"
         transform="translate(-153.9922,-268.12111)"
         id="path61" />
    </clipPath>
    <clipPath
       clipPathUnits="userSpaceOnUse"
       id="clipPath63">
      <path
         d="M 0,660 H 660 V 0 H 0 Z"
         transform="translate(-181.19241,-657.98002)"
         id="path63" />
    </clipPath>
    <clipPath
       clipPathUnits="userSpaceOnUse"
       id="clipPath65">
      <path
         d="M 0,660 H 660 V 0 H 0 Z"
         transform="translate(-169.5352,-284.95801)"
         id="path65" />
    </clipPath>
    <clipPath
       clipPathUnits="userSpaceOnUse"
       id="clipPath67">
      <path
         d="M 0,660 H 660 V 0 H 0 Z"
         transform="translate(-170.87301,-295.79491)"
         id="path67" />
    </clipPath>
    <clipPath
       clipPathUnits="userSpaceOnUse"
       id="clipPath69">
      <path
         d="M 0,660 H 660 V 0 H 0 Z"
         transform="translate(-97.995602,-266.67481)"
         id="path69" />
    </clipPath>
    <clipPath
       clipPathUnits="userSpaceOnUse"
       id="clipPath71">
      <path
         d="M 0,660 H 660 V 0 H 0 Z"
         transform="translate(-115.6411,-262.80471)"
         id="path71" />
    </clipPath>
    <clipPath
       clipPathUnits="userSpaceOnUse"
       id="clipPath73">
      <path
         d="M 0,660 H 660 V 0 H 0 Z"
         transform="translate(-91.142102,-262.68361)"
         id="path73" />
    </clipPath>
    <clipPath
       clipPathUnits="userSpaceOnUse"
       id="clipPath75">
      <path
         d="M 0,660 H 660 V 0 H 0 Z"
         transform="translate(-79.781702,-255.583)"
         id="path75" />
    </clipPath>
    <clipPath
       clipPathUnits="userSpaceOnUse"
       id="clipPath77">
      <path
         d="M 0,660 H 660 V 0 H 0 Z"
         transform="translate(-309.32231,-217.94341)"
         id="path77" />
    </clipPath>
    <clipPath
       clipPathUnits="userSpaceOnUse"
       id="clipPath79">
      <path
         d="M 0,660 H 660 V 0 H 0 Z"
         transform="translate(-320.15231,-418.21001)"
         id="path79" />
    </clipPath>
    <clipPath
       clipPathUnits="userSpaceOnUse"
       id="clipPath81">
      <path
         d="M 0,660 H 660 V 0 H 0 Z"
         transform="translate(-318.83891,-226.59181)"
         id="path81" />
    </clipPath>
    <clipPath
       clipPathUnits="userSpaceOnUse"
       id="clipPath83">
      <path
         d="M 0,660 H 660 V 0 H 0 Z"
         transform="translate(-319.50591,-232.15821)"
         id="path83" />
    </clipPath>
    <clipPath
       clipPathUnits="userSpaceOnUse"
       id="clipPath85">
      <path
         d="M 0,660 H 660 V 0 H 0 Z"
         transform="translate(-227.87601,-324.20801)"
         id="path85" />
    </clipPath>
    <clipPath
       clipPathUnits="userSpaceOnUse"
       id="clipPath87">
      <path
         d="M 0,660 H 660 V 0 H 0 Z"
         transform="translate(-265.83591,-317.46091)"
         id="path87" />
    </clipPath>
    <clipPath
       clipPathUnits="userSpaceOnUse"
       id="clipPath89">
      <path
         d="M 0,660 H 660 V 0 H 0 Z"
         transform="translate(-214.65141,-317.25001)"
         id="path89" />
    </clipPath>
    <clipPath
       clipPathUnits="userSpaceOnUse"
       id="clipPath91">
      <path
         d="M 0,660 H 660 V 0 H 0 Z"
         transform="translate(-192.8613,-304.87211)"
         id="path91" />
    </clipPath>
    <clipPath
       clipPathUnits="userSpaceOnUse"
       id="clipPath93">
      <path
         d="M 0,660 H 660 V 0 H 0 Z"
         transform="translate(-436.40231,-370.07711)"
         id="path93" />
    </clipPath>
    <clipPath
       clipPathUnits="userSpaceOnUse"
       id="clipPath95">
      <path
         d="M 0,660 H 660 V 0 H 0 Z"
         transform="translate(-477.81841,-360.40631)"
         id="path95" />
    </clipPath>
    <clipPath
       clipPathUnits="userSpaceOnUse"
       id="clipPath97">
      <path
         d="M 0,660 H 660 V 0 H 0 Z"
         transform="translate(-421.97361,-360.10061)"
         id="path97" />
    </clipPath>
    <clipPath
       clipPathUnits="userSpaceOnUse"
       id="clipPath99">
      <path
         d="M 0,660 H 660 V 0 H 0 Z"
         transform="translate(-398.19921,-342.35741)"
         id="path99" />
    </clipPath>
    <clipPath
       clipPathUnits="userSpaceOnUse"
       id="clipPath101">
      <path
         d="M 0,660 H 660 V 0 H 0 Z"
         transform="translate(-299.3857,-223.74321)"
         id="path101" />
    </clipPath>
    <clipPath
       clipPathUnits="userSpaceOnUse"
       id="clipPath103">
      <path
         d="M 0,660 H 660 V 0 H 0 Z"
         transform="translate(-328.59281,-217.5166)"
         id="path103" />
    </clipPath>
    <clipPath
       clipPathUnits="userSpaceOnUse"
       id="clipPath105">
      <path
         d="M 0,660 H 660 V 0 H 0 Z"
         transform="translate(-289.21,-217.3213)"
         id="path105" />
    </clipPath>
    <clipPath
       clipPathUnits="userSpaceOnUse"
       id="clipPath107">
      <path
         d="M 0,660 H 660 V 0 H 0 Z"
         transform="translate(-272.4424,-205.8994)"
         id="path107" />
    </clipPath>
  </defs>
  <sodipodi:namedview
     id="namedview1"
     pagecolor="#ffffff"
     bordercolor="#000000"
     borderopacity="0.25"
     inkscape:showpageshadow="2"
     inkscape:pageopacity="0.0"
     inkscape:pagecheckerboard="0"
     inkscape:deskcolor="#d1d1d1"
     inkscape:zoom="0.67272727"
     inkscape:cx="439.25676"
     inkscape:cy="440"
     inkscape:window-width="1440"
     inkscape:window-height="830"
     inkscape:window-x="-6"
     inkscape:window-y="-6"
     inkscape:window-maximized="1"
     inkscape:current-layer="g1">
    <inkscape:page
       x="0"
       y="0"
       inkscape:label="1"
       id="page1"
       width="880"
       height="880"
       margin="101.336 62.393333 2.6933334 50.578667"
       bleed="0" />
  </sodipodi:namedview>
  <g
     id="g1"
     inkscape:groupmode="layer"
     inkscape:label="1">
    <g
       id="group-MC0">
      <path
         id="path2"
         d="M 0,0 C 36.661,0 66.563,11.753 66.563,26.163 66.563,40.573 36.661,52.324 0,52.324 -36.661,52.324 -66.562,40.573 -66.562,26.163 -66.562,11.753 -36.661,0 0,0"
         style="fill:#e8e8e7;fill-opacity:1;fill-rule:evenodd;stroke:none"
         transform="matrix(1.3333333,0,0,-1.3333333,196.27733,647.45053)"
         clip-path="url(#clipPath3)" />
      <path
         id="path4"
         d="m 0,0 c 57.202,0 103.855,23.702 103.855,52.765 0,29.061 -46.653,52.763 -103.855,52.763 -57.199,0 -103.852,-23.702 -103.852,-52.763 C -103.852,23.702 -57.199,0 0,0"
         style="fill:#e8e8e7;fill-opacity:1;fill-rule:evenodd;stroke:none"
         transform="matrix(1.3333333,0,0,-1.3333333,498.33853,762.89587)"
         clip-path="url(#clipPath5)" />
      <path
         id="path6"
         d="m 0,0 c 64.235,0 116.625,21.761 116.625,48.441 0,26.68 -52.39,48.44 -116.625,48.44 -64.235,0 -116.626,-21.76 -116.626,-48.44 C -116.626,21.761 -64.235,0 0,0"
         style="fill:#e8e8e7;fill-opacity:1;fill-rule:evenodd;stroke:none"
         transform="matrix(1.3333333,0,0,-1.3333333,658.8372,671.41147)"
         clip-path="url(#clipPath7)" />
      <path
         id="path8"
         d="M 0,0 C 27.14,0 49.276,12.25 49.276,27.268 49.276,42.287 27.14,54.537 0,54.537 -27.141,54.537 -49.276,42.287 -49.276,27.268 -49.276,12.25 -27.141,0 0,0"
         style="fill:#e8e8e7;fill-opacity:1;fill-rule:evenodd;stroke:none"
         transform="matrix(1.3333333,0,0,-1.3333333,751.90493,547.25133)"
         clip-path="url(#clipPath9)" />
      <path
         id="path10"
         d="M 0,0 C 46.554,0 84.523,15.219 84.523,33.878 84.523,52.536 46.554,67.754 0,67.754 -46.554,67.754 -84.522,52.536 -84.522,33.878 -84.522,15.219 -46.554,0 0,0"
         style="fill:#e8e8e7;fill-opacity:1;fill-rule:evenodd;stroke:none"
         transform="matrix(1.3333333,0,0,-1.3333333,658.92187,494.164)"
         clip-path="url(#clipPath11)" />
      <path
         id="path12"
         d="m 0,0 c 29.887,0 51.867,-31.807 48.519,-57.168 -3.351,-25.361 -30.762,-34.676 -60.649,-34.676 -29.887,0 -50.93,9.315 -47.581,34.676 C -56.362,-31.807 -29.887,0 0,0"
         style="fill:#ac9893;fill-opacity:1;fill-rule:evenodd;stroke:none"
         transform="matrix(1.3333333,0,0,-1.3333333,727.88147,440.48053)"
         clip-path="url(#clipPath13)" />
      <path
         id="path14"
         d="m 0,0 c 20.364,-9.229 33.517,-33.269 30.872,-53.296 -3.35,-25.361 -30.762,-34.676 -60.648,-34.676 -19.523,0 -35.269,3.975 -42.911,13.8 25.201,-7.618 46.394,-5.257 65.229,2.978 8.559,3.743 15.185,10.847 19.271,20.663 4.086,9.815 4.495,19.607 1.185,28.477 C 9.881,-13.693 5.617,-6.283 0,0"
         style="fill:#a28e8a;fill-opacity:1;fill-rule:evenodd;stroke:none"
         transform="matrix(1.3333333,0,0,-1.3333333,751.41013,445.6432)"
         clip-path="url(#clipPath15)" />
      <path
         id="path16"
         d="M 0,0 C 10.63,1.565 23.706,-2.963 16.756,-19.166 8.735,-31.692 3.38,-31.578 -4.636,-44.787 c -8.162,-13.452 -9.407,-17.7 -24.152,-19.391 -11.333,-1.3 -16.73,5.342 -17.603,17.998 0.023,11.82 6.819,22.193 14.683,30.034 6.272,5.977 13.328,10.407 20.703,13.271 C -7.215,-1.495 -3.822,-0.689 0,0"
         style="fill:#b8a7a2;fill-opacity:1;fill-rule:evenodd;stroke:none"
         transform="matrix(1.3333333,0,0,-1.3333333,718.74347,445.80467)"
         clip-path="url(#clipPath17)" />
      <path
         id="path18"
         d="M 0,0 C 5.957,0.878 13.287,-1.662 9.392,-10.742 4.896,-17.765 1.895,-17.701 -2.6,-25.104 c -4.574,-7.541 -5.272,-9.922 -13.538,-10.87 -6.351,-0.728 -9.378,2.995 -9.867,10.089 0.014,6.625 3.823,12.439 8.232,16.835 3.514,3.351 7.471,5.833 11.604,7.439 C -4.044,-0.838 -2.144,-0.386 0,0"
         style="fill:#c3afab;fill-opacity:1;fill-rule:evenodd;stroke:none"
         transform="matrix(1.3333333,0,0,-1.3333333,703.5964,455.27213)"
         clip-path="url(#clipPath19)" />
      <path
         id="path20"
         d="m 0,0 c 47.926,0 89.908,-56.095 89.908,-100.823 0,-44.73 -41.982,-61.157 -89.908,-61.157 -47.924,0 -83.641,16.427 -83.641,61.157 C -83.641,-56.095 -47.924,0 0,0"
         style="fill:#d7c9c4;fill-opacity:1;fill-rule:evenodd;stroke:none"
         transform="matrix(1.3333333,0,0,-1.3333333,582.51827,293.24733)"
         clip-path="url(#clipPath21)" />
      <path
         id="path22"
         d="m 0,0 c 34.611,-16.278 60.791,-58.678 60.791,-93.997 0,-44.73 -41.982,-61.157 -89.908,-61.157 -31.303,0 -57.395,7.011 -71.731,24.339 42.024,-13.436 75.508,-9.271 103.966,5.252 12.932,6.6 22.054,19.13 26.528,36.442 4.472,17.312 3.053,34.582 -4.13,50.226 C 18.745,-24.151 10.339,-11.084 0,0"
         style="fill:#cbbbb8;fill-opacity:1;fill-rule:evenodd;stroke:none"
         transform="matrix(1.3333333,0,0,-1.3333333,621.3412,302.34893)"
         clip-path="url(#clipPath23)" />
      <path
         id="path24"
         d="M 0,0 C 16.714,2.761 38.641,-5.227 30.926,-33.802 20.718,-55.894 12.108,-55.692 2.052,-78.99 c -10.24,-23.724 -11.338,-31.217 -34.625,-34.197 -17.898,-2.292 -27.959,9.42 -32.037,31.741 -2.468,20.845 6.235,39.138 17.183,52.971 8.791,10.541 19.17,18.352 30.389,23.404 C -11.252,-2.636 -5.983,-1.218 0,0"
         style="fill:#e0d4d0;fill-opacity:1;fill-rule:evenodd;stroke:none"
         transform="matrix(1.3333333,0,0,-1.3333333,568.9948,302.63547)"
         clip-path="url(#clipPath25)" />
      <path
         id="path26"
         d="M 0,0 C 9.369,1.548 21.66,-2.931 17.335,-18.948 11.613,-31.331 6.787,-31.219 1.15,-44.277 c -5.74,-13.298 -6.355,-17.499 -19.408,-19.169 -10.032,-1.286 -15.672,5.281 -17.958,17.792 -1.384,11.685 3.494,21.938 9.633,29.692 4.927,5.908 10.745,10.288 17.032,13.119 C -6.308,-1.479 -3.353,-0.684 0,0"
         style="fill:#eadfdb;fill-opacity:1;fill-rule:evenodd;stroke:none"
         transform="matrix(1.3333333,0,0,-1.3333333,546.7096,319.33067)"
         clip-path="url(#clipPath27)" />
      <path
         id="path28"
         d="m 0,0 c 47.926,0 89.908,-56.095 89.908,-100.823 0,-44.729 -41.982,-61.157 -89.908,-61.157 -47.924,0 -83.642,16.428 -83.642,61.157 C -83.642,-56.095 -47.924,0 0,0"
         style="fill:#d7c9c4;fill-opacity:1;fill-rule:evenodd;stroke:none"
         transform="matrix(1.3333333,0,0,-1.3333333,244.5912,270.278)"
         clip-path="url(#clipPath29)" />
      <path
         id="path30"
         d="m 0,0 c 34.61,-16.278 60.791,-58.679 60.791,-93.997 0,-44.73 -41.982,-61.157 -89.908,-61.157 -31.304,0 -57.396,7.011 -71.731,24.339 42.024,-13.436 75.508,-9.271 103.965,5.252 12.933,6.6 22.054,19.129 26.528,36.442 4.473,17.311 3.053,34.58 -4.131,50.225 C 18.744,-24.151 10.34,-11.085 0,0"
         style="fill:#cbbbb8;fill-opacity:1;fill-rule:evenodd;stroke:none"
         transform="matrix(1.3333333,0,0,-1.3333333,283.414,279.37893)"
         clip-path="url(#clipPath31)" />
      <path
         id="path32"
         d="M 0,0 C 16.713,2.761 38.641,-5.227 30.925,-33.802 20.717,-55.894 12.107,-55.692 2.051,-78.99 c -10.24,-23.723 -11.338,-31.217 -34.624,-34.197 -17.899,-2.292 -27.959,9.419 -32.038,31.74 -2.467,20.846 6.237,39.14 17.185,52.972 8.789,10.54 19.169,18.352 30.387,23.404 C -11.254,-2.636 -5.984,-1.218 0,0"
         style="fill:#e0d4d0;fill-opacity:1;fill-rule:evenodd;stroke:none"
         transform="matrix(1.3333333,0,0,-1.3333333,231.06773,279.666)"
         clip-path="url(#clipPath33)" />
      <path
         id="path34"
         d="M 0,0 C 9.369,1.548 21.659,-2.932 17.336,-18.948 11.613,-31.332 6.787,-31.219 1.151,-44.277 c -5.74,-13.299 -6.355,-17.499 -19.409,-19.17 -10.032,-1.286 -15.672,5.28 -17.958,17.793 -1.383,11.684 3.496,21.938 9.633,29.692 4.927,5.908 10.744,10.286 17.033,13.118 3.243,1.366 6.196,2.16 9.55,2.844"
         style="fill:#eadfdb;fill-opacity:1;fill-rule:evenodd;stroke:none"
         transform="matrix(1.3333333,0,0,-1.3333333,208.7812,296.36067)"
         clip-path="url(#clipPath35)" />
      <path
         id="path36"
         d="M 0,0 C -3.175,110.912 -17.199,207.482 -50.22,278.944 -21.139,243.909 4.637,157.248 26.768,13.734 H 15.111 C 10.074,9.157 5.036,4.578 0,0"
         style="fill:#549d34;fill-opacity:1;fill-rule:evenodd;stroke:none"
         transform="matrix(1.3333333,0,0,-1.3333333,566.17453,505.1524)"
         clip-path="url(#clipPath37)" />
      <path
         id="path38"
         d="m 0,0 c -3.214,-103.723 -6.427,-207.447 -9.641,-311.169 12.283,-6.164 24.566,-12.328 36.847,-18.492 -0.098,3.17 -0.199,6.341 -0.299,9.511 C 17.939,-213.433 8.97,-106.717 0,0"
         style="fill:#6fbc3a;fill-opacity:1;fill-rule:evenodd;stroke:none"
         transform="matrix(1.3333333,0,0,-1.3333333,589.1028,81.102267)"
         clip-path="url(#clipPath39)" />
      <path
         id="path40"
         d="M 0,0 C 9.917,82.769 19.833,165.537 29.75,248.304 29.497,160.253 29.246,72.202 28.992,-15.847 h -2.59 C 17.602,-10.564 8.8,-5.281 0,0"
         style="fill:#549d34;fill-opacity:1;fill-rule:evenodd;stroke:none"
         transform="matrix(1.3333333,0,0,-1.3333333,586.32293,486.83987)"
         clip-path="url(#clipPath41)" />
      <path
         id="path42"
         d="M 0,0 C 9.827,75.778 25.84,142.099 67.152,169.726 28.874,119.436 21.436,40.647 15.447,-39.482 10.298,-26.321 5.148,-13.161 0,0"
         style="fill:#448733;fill-opacity:1;fill-rule:evenodd;stroke:none"
         transform="matrix(1.3333333,0,0,-1.3333333,587.7344,475.0508)"
         clip-path="url(#clipPath43)" />
      <path
         id="path44"
         d="m 0,0 c 80.334,0 150.708,-71.284 150.708,-128.127 0,-56.842 -70.374,-77.717 -150.708,-77.717 -80.333,0 -140.205,20.875 -140.205,77.717 C -140.205,-71.284 -80.333,0 0,0"
         style="fill:#ac9893;fill-opacity:1;fill-rule:evenodd;stroke:none"
         transform="matrix(1.3333333,0,0,-1.3333333,403.02733,264.26173)"
         clip-path="url(#clipPath45)" />
      <path
         id="path46"
         d="m 0,0 c 58.015,-20.686 101.901,-74.569 101.901,-119.454 0,-56.841 -70.374,-77.716 -150.708,-77.716 -52.473,0 -96.211,8.909 -120.24,30.929 70.443,-17.075 126.572,-11.78 174.274,6.675 21.676,8.387 36.965,24.311 44.464,46.311 7.499,21.999 5.121,43.946 -6.921,63.826 C 31.42,-30.693 17.33,-14.087 0,0"
         style="fill:#a28e8a;fill-opacity:1;fill-rule:evenodd;stroke:none"
         transform="matrix(1.3333333,0,0,-1.3333333,468.1028,275.82613)"
         clip-path="url(#clipPath47)" />
      <path
         id="path48"
         d="M 0,0 C 28.016,3.508 64.771,-6.644 51.841,-42.957 34.728,-71.031 20.296,-70.776 3.44,-100.382 c -17.165,-30.149 -19.005,-39.67 -58.04,-43.459 -30.001,-2.912 -46.867,11.972 -53.704,40.338 -4.136,26.49 10.453,49.737 28.805,67.315 14.735,13.396 32.135,23.322 50.938,29.744 C -18.862,-3.352 -10.027,-1.548 0,0"
         style="fill:#b8a7a2;fill-opacity:1;fill-rule:evenodd;stroke:none"
         transform="matrix(1.3333333,0,0,-1.3333333,380.35547,276.18947)"
         clip-path="url(#clipPath49)" />
      <path
         id="path50"
         d="M 0,0 C 15.704,1.965 36.306,-3.726 29.058,-24.08 19.466,-39.815 11.375,-39.674 1.928,-56.268 -7.694,-73.167 -8.726,-78.505 -30.606,-80.629 c -16.817,-1.632 -26.269,6.712 -30.102,22.611 -2.318,14.849 5.859,27.879 16.146,37.733 8.259,7.509 18.012,13.072 28.552,16.671 C -10.573,-1.88 -5.622,-0.87 0,0"
         style="fill:#c3afab;fill-opacity:1;fill-rule:evenodd;stroke:none"
         transform="matrix(1.3333333,0,0,-1.3333333,343.00133,297.40627)"
         clip-path="url(#clipPath51)" />
      <path
         id="path52"
         d="m 0,0 c 40.128,0 79.486,-46.79 82.837,-84.101 3.353,-37.308 -30.569,-51.009 -70.696,-51.009 -40.128,0 -71.267,13.701 -74.618,51.009 C -65.831,-46.79 -40.127,0 0,0"
         style="fill:#c6b4b1;fill-opacity:1;fill-rule:evenodd;stroke:none"
         transform="matrix(1.3333333,0,0,-1.3333333,148.4772,407.27213)"
         clip-path="url(#clipPath53)" />
      <path
         id="path54"
         d="m 0,0 c 30.2,-13.578 55.3,-48.945 57.947,-78.406 3.353,-37.309 -30.569,-51.01 -70.697,-51.01 -26.211,0 -48.583,5.847 -61.886,20.301 36.194,-11.207 63.919,-7.733 86.658,4.381 10.333,5.505 17.031,15.957 19.48,30.396 2.449,14.441 -0.034,28.846 -7.222,41.895 C 17.506,-20.146 9.487,-9.246 0,0"
         style="fill:#c1aea9;fill-opacity:1;fill-rule:evenodd;stroke:none"
         transform="matrix(1.3333333,0,0,-1.3333333,181.664,414.86453)"
         clip-path="url(#clipPath55)" />
      <path
         id="path56"
         d="M 0,0 C 13.787,2.303 32.746,-4.36 28.428,-28.195 21.537,-46.622 14.312,-46.455 7.639,-65.887 0.842,-85.675 0.485,-91.925 -18.79,-94.412 c -14.814,-1.912 -24.117,7.857 -29.204,26.476 -3.629,17.388 2.287,32.646 10.418,44.184 6.57,8.793 14.675,15.308 23.689,19.522 C -9.225,-2.198 -4.918,-1.016 0,0"
         style="fill:#cbbbb8;fill-opacity:1;fill-rule:evenodd;stroke:none"
         transform="matrix(1.3333333,0,0,-1.3333333,137.85613,415.10413)"
         clip-path="url(#clipPath57)" />
      <path
         id="path58"
         d="m 0,0 c 7.728,1.29 18.355,-2.444 15.935,-15.805 -3.863,-10.33 -7.912,-10.234 -11.653,-21.128 -3.81,-11.091 -4.01,-14.595 -14.814,-15.989 -8.304,-1.071 -13.519,4.405 -16.37,14.84 -2.034,9.748 1.282,18.301 5.84,24.768 3.682,4.928 8.225,8.58 13.278,10.943 C -5.17,-1.233 -2.757,-0.568 0,0"
         style="fill:#d7c8c5;fill-opacity:1;fill-rule:evenodd;stroke:none"
         transform="matrix(1.3333333,0,0,-1.3333333,120.44787,429.03)"
         clip-path="url(#clipPath59)" />
      <path
         id="path60"
         d="M 0,0 C 0.314,135.959 -10.673,254.335 -41.446,341.936 -13.466,298.99 9.582,192.76 27.2,16.837 H 15.543 C 10.362,11.225 5.182,5.612 0,0"
         style="fill:#549d34;fill-opacity:1;fill-rule:evenodd;stroke:none"
         transform="matrix(1.3333333,0,0,-1.3333333,205.32293,522.5052)"
         clip-path="url(#clipPath61)" />
      <path
         id="path62"
         d="m 0,0 c -6.476,-127.146 -12.953,-254.293 -19.428,-381.441 12.088,-7.555 24.177,-15.11 36.266,-22.666 v 11.657 C 11.225,-261.633 5.612,-130.816 0,0"
         style="fill:#6fbc3a;fill-opacity:1;fill-rule:evenodd;stroke:none"
         transform="matrix(1.3333333,0,0,-1.3333333,241.58987,2.6933333)"
         clip-path="url(#clipPath63)" />
      <path
         id="path64"
         d="M 0,0 C 12.521,101.458 25.041,202.917 37.562,304.376 34.539,196.441 31.518,88.507 28.495,-19.428 H 25.904 C 17.27,-12.952 8.636,-6.475 0,0"
         style="fill:#549d34;fill-opacity:1;fill-rule:evenodd;stroke:none"
         transform="matrix(1.3333333,0,0,-1.3333333,226.04693,500.056)"
         clip-path="url(#clipPath65)" />
      <path
         id="path66"
         d="M 0,0 C 12.211,92.89 30.309,174.188 72.49,208.055 32.63,146.407 22.714,49.825 14.205,-48.397 9.47,-32.266 4.734,-16.134 0,0"
         style="fill:#448733;fill-opacity:1;fill-rule:evenodd;stroke:none"
         transform="matrix(1.3333333,0,0,-1.3333333,227.83067,485.6068)"
         clip-path="url(#clipPath67)" />
      <path
         id="path68"
         d="m 0,0 c 29.886,0 51.868,-31.807 48.518,-57.168 -3.349,-25.361 -30.761,-34.675 -60.648,-34.675 -29.887,0 -50.931,9.314 -47.581,34.675 C -56.362,-31.807 -29.887,0 0,0"
         style="fill:#ac9893;fill-opacity:1;fill-rule:evenodd;stroke:none"
         transform="matrix(1.3333333,0,0,-1.3333333,130.6608,524.4336)"
         clip-path="url(#clipPath69)" />
      <path
         id="path70"
         d="m 0,0 c 20.366,-9.229 33.517,-33.27 30.873,-53.298 -3.35,-25.361 -30.762,-34.675 -60.649,-34.675 -19.521,0 -35.267,3.976 -42.91,13.8 25.201,-7.619 46.394,-5.256 65.228,2.979 8.559,3.741 15.186,10.845 19.272,20.661 4.086,9.816 4.494,19.607 1.185,28.478 C 9.882,-13.695 5.618,-6.285 0,0"
         style="fill:#a28e8a;fill-opacity:1;fill-rule:evenodd;stroke:none"
         transform="matrix(1.3333333,0,0,-1.3333333,154.18813,529.59373)"
         clip-path="url(#clipPath71)" />
      <path
         id="path72"
         d="M 0,0 C 10.629,1.564 23.706,-2.965 16.755,-19.166 8.734,-31.693 3.38,-31.579 -4.635,-44.789 c -8.162,-13.452 -9.407,-17.699 -24.154,-19.391 -11.333,-1.299 -16.73,5.342 -17.602,17.998 0.022,11.82 6.82,22.193 14.684,30.036 6.27,5.975 13.328,10.405 20.702,13.269 C -7.215,-1.497 -3.822,-0.691 0,0"
         style="fill:#b8a7a2;fill-opacity:1;fill-rule:evenodd;stroke:none"
         transform="matrix(1.3333333,0,0,-1.3333333,121.5228,529.7552)"
         clip-path="url(#clipPath73)" />
      <path
         id="path74"
         d="m 0,0 c 5.958,0.877 13.288,-1.662 9.392,-10.744 -4.496,-7.023 -7.497,-6.957 -11.991,-14.361 -4.575,-7.54 -5.273,-9.922 -13.538,-10.87 -6.353,-0.728 -9.378,2.995 -9.867,10.088 0.012,6.626 3.823,12.439 8.231,16.837 3.514,3.349 7.47,5.831 11.604,7.437 C -4.044,-0.839 -2.143,-0.387 0,0"
         style="fill:#c3afab;fill-opacity:1;fill-rule:evenodd;stroke:none"
         transform="matrix(1.3333333,0,0,-1.3333333,106.3756,539.22267)"
         clip-path="url(#clipPath75)" />
      <path
         id="path76"
         d="M 0,0 C -1.998,69.841 -10.83,130.649 -31.623,175.649 -13.312,153.588 2.919,99.018 16.856,8.648 H 9.517 C 6.344,5.765 3.172,2.883 0,0"
         style="fill:#448733;fill-opacity:1;fill-rule:evenodd;stroke:none"
         transform="matrix(1.3333333,0,0,-1.3333333,412.42973,589.4088)"
         clip-path="url(#clipPath77)" />
      <path
         id="path78"
         d="m 0,0 c -2.025,-65.314 -4.047,-130.628 -6.072,-195.943 7.735,-3.88 15.469,-7.761 23.204,-11.642 -0.065,1.995 -0.127,3.991 -0.19,5.986 C 11.295,-134.398 5.647,-67.198 0,0"
         style="fill:#448733;fill-opacity:1;fill-rule:evenodd;stroke:none"
         transform="matrix(1.3333333,0,0,-1.3333333,426.86973,322.38667)"
         clip-path="url(#clipPath79)" />
      <path
         id="path80"
         d="M 0,0 C 6.244,52.119 12.489,104.237 18.733,156.354 18.574,100.91 18.414,45.465 18.256,-9.98 H 16.625 C 11.082,-6.652 5.541,-3.326 0,0"
         style="fill:#448733;fill-opacity:1;fill-rule:evenodd;stroke:none"
         transform="matrix(1.3333333,0,0,-1.3333333,425.11853,577.8776)"
         clip-path="url(#clipPath81)" />
      <path
         id="path82"
         d="M 0,0 C 6.187,47.719 16.271,89.481 42.284,106.877 18.181,75.209 13.497,25.596 9.727,-24.861 6.484,-16.574 3.241,-8.286 0,0"
         style="fill:#448733;fill-opacity:1;fill-rule:evenodd;stroke:none"
         transform="matrix(1.3333333,0,0,-1.3333333,426.00787,570.45573)"
         clip-path="url(#clipPath83)" />
      <path
         id="path84"
         d="M 0,0 C 62.482,0 117.216,-55.443 117.216,-99.654 117.216,-143.863 62.482,-160.1 0,-160.1 c -62.482,0 -109.048,16.237 -109.048,60.446 C -109.048,-55.443 -62.482,0 0,0"
         style="fill:#d7c9c4;fill-opacity:1;fill-rule:evenodd;stroke:none"
         transform="matrix(1.3333333,0,0,-1.3333333,303.83467,447.72267)"
         clip-path="url(#clipPath85)" />
      <path
         id="path86"
         d="m 0,0 c 45.123,-16.088 79.256,-57.996 79.256,-92.907 0,-44.209 -54.733,-60.446 -117.216,-60.446 -40.812,0 -74.831,6.93 -93.52,24.056 54.789,-13.28 98.443,-9.162 135.546,5.192 16.859,6.523 28.751,18.908 34.584,36.019 5.832,17.11 3.98,34.181 -5.385,49.643 C 24.439,-23.871 13.48,-10.955 0,0"
         style="fill:#cbbbb8;fill-opacity:1;fill-rule:evenodd;stroke:none"
         transform="matrix(1.3333333,0,0,-1.3333333,354.44787,456.7188)"
         clip-path="url(#clipPath87)" />
      <path
         id="path88"
         d="M 0,0 C 21.789,2.729 50.377,-5.168 40.318,-33.41 27.011,-55.247 15.785,-55.048 2.675,-78.074 c -13.351,-23.45 -14.782,-30.854 -45.141,-33.801 -23.336,-2.266 -36.453,9.311 -41.769,31.373 -3.218,20.605 8.128,38.686 22.404,52.355 11.46,10.42 24.991,18.14 39.615,23.133 C -14.672,-2.607 -7.801,-1.203 0,0"
         style="fill:#e0d4d0;fill-opacity:1;fill-rule:evenodd;stroke:none"
         transform="matrix(1.3333333,0,0,-1.3333333,286.20187,457)"
         clip-path="url(#clipPath89)" />
      <path
         id="path90"
         d="m 0,0 c 12.213,1.53 28.237,-2.897 22.599,-18.727 -7.46,-12.241 -13.752,-12.13 -21.101,-25.036 -7.483,-13.143 -8.283,-17.294 -25.303,-18.948 -13.08,-1.268 -20.432,5.22 -23.413,17.587 -1.803,11.549 4.558,21.683 12.558,29.347 6.425,5.841 14.01,10.168 22.208,12.968 C -8.225,-1.461 -4.373,-0.674 0,0"
         style="fill:#eadfdb;fill-opacity:1;fill-rule:evenodd;stroke:none"
         transform="matrix(1.3333333,0,0,-1.3333333,257.1484,473.50387)"
         clip-path="url(#clipPath91)" />
      <path
         id="path92"
         d="m 0,0 c 68.171,0 127.891,-79.487 127.891,-142.871 0,-63.384 -59.72,-86.659 -127.891,-86.659 -68.171,0 -118.978,23.275 -118.978,86.659 C -118.978,-79.487 -68.171,0 0,0"
         style="fill:#c6b4b1;fill-opacity:1;fill-rule:evenodd;stroke:none"
         transform="matrix(1.3333333,0,0,-1.3333333,581.86973,386.56387)"
         clip-path="url(#clipPath93)" />
      <path
         id="path94"
         d="m 0,0 c 49.232,-23.066 86.475,-83.148 86.475,-133.2 0,-63.384 -59.72,-86.659 -127.891,-86.659 -44.528,0 -81.644,9.934 -102.035,34.488 59.777,-19.039 107.408,-13.136 147.888,7.443 18.395,9.352 31.37,27.108 37.732,51.639 6.364,24.531 4.345,49.003 -5.873,71.171 C 26.665,-34.225 14.707,-15.708 0,0"
         style="fill:#c1aea9;fill-opacity:1;fill-rule:evenodd;stroke:none"
         transform="matrix(1.3333333,0,0,-1.3333333,637.0912,399.45827)"
         clip-path="url(#clipPath95)" />
      <path
         id="path96"
         d="M 0,0 C 23.774,3.914 54.965,-7.408 43.991,-47.898 29.47,-79.204 17.223,-78.919 2.918,-111.933 c -14.565,-33.617 -16.126,-44.234 -49.252,-48.46 -25.458,-3.248 -39.77,13.351 -45.571,44.98 -3.511,29.539 8.869,55.461 24.444,75.063 12.503,14.935 27.267,26.004 43.225,33.164 C -16.007,-3.736 -8.51,-1.726 0,0"
         style="fill:#cbbbb8;fill-opacity:1;fill-rule:evenodd;stroke:none"
         transform="matrix(1.3333333,0,0,-1.3333333,562.63147,399.86587)"
         clip-path="url(#clipPath97)" />
      <path
         id="path98"
         d="M 0,0 C 13.326,2.192 30.809,-4.153 24.658,-26.851 16.518,-44.397 9.654,-44.237 1.636,-62.743 c -8.164,-18.844 -9.039,-24.795 -27.607,-27.162 -14.271,-1.822 -22.295,7.482 -25.545,25.211 -1.968,16.558 4.971,31.089 13.702,42.074 7.007,8.373 15.284,14.578 24.228,18.592 C -8.973,-2.096 -4.772,-0.968 0,0"
         style="fill:#d7c8c5;fill-opacity:1;fill-rule:evenodd;stroke:none"
         transform="matrix(1.3333333,0,0,-1.3333333,530.93227,423.52347)"
         clip-path="url(#clipPath99)" />
      <path
         id="path100"
         d="m 0,0 c 48.075,0 90.19,-51.164 90.19,-91.961 0,-40.798 -42.115,-55.78 -90.19,-55.78 -48.077,0 -83.908,14.982 -83.908,55.78 C -83.908,-51.164 -48.077,0 0,0"
         style="fill:#ac9893;fill-opacity:1;fill-rule:evenodd;stroke:none"
         transform="matrix(1.3333333,0,0,-1.3333333,399.18093,581.67573)"
         clip-path="url(#clipPath101)" />
      <path
         id="path102"
         d="m 0,0 c 34.72,-14.847 60.983,-53.52 60.983,-85.734 0,-40.798 -42.115,-55.781 -90.19,-55.781 -31.405,0 -57.58,6.395 -71.96,22.199 42.156,-12.254 75.746,-8.455 104.296,4.792 12.972,6.018 22.122,17.448 26.61,33.237 4.488,15.79 3.064,31.542 -4.142,45.809 C 18.805,-22.028 10.371,-10.109 0,0"
         style="fill:#a28e8a;fill-opacity:1;fill-rule:evenodd;stroke:none"
         transform="matrix(1.3333333,0,0,-1.3333333,438.12373,589.97787)"
         clip-path="url(#clipPath103)" />
      <path
         id="path104"
         d="M 0,0 C 16.765,2.519 38.762,-4.769 31.021,-30.831 20.782,-50.981 12.145,-50.799 2.058,-72.048 c -10.274,-21.638 -11.374,-28.471 -34.735,-31.191 -17.956,-2.091 -28.05,8.593 -32.139,28.951 -2.477,19.014 6.254,35.7 17.239,48.315 8.816,9.615 19.229,16.739 30.482,21.348 C -11.29,-2.405 -6.003,-1.11 0,0"
         style="fill:#b8a7a2;fill-opacity:1;fill-rule:evenodd;stroke:none"
         transform="matrix(1.3333333,0,0,-1.3333333,385.61333,590.23827)"
         clip-path="url(#clipPath105)" />
      <path
         id="path106"
         d="M 0,0 C 9.397,1.412 21.728,-2.673 17.39,-17.281 11.648,-28.577 6.808,-28.474 1.153,-40.384 -4.605,-52.515 -5.223,-56.345 -18.316,-57.87 c -10.065,-1.171 -15.722,4.817 -18.015,16.229 -1.389,10.658 3.506,20.01 9.662,27.082 4.942,5.39 10.778,9.383 17.087,11.967 C -6.329,-1.348 -3.364,-0.622 0,0"
         style="fill:#c3afab;fill-opacity:1;fill-rule:evenodd;stroke:none"
         transform="matrix(1.3333333,0,0,-1.3333333,363.25653,605.46747)"
         clip-path="url(#clipPath107)" />
    </g>
  </g>
</svg>
