<?xml version="1.0" encoding="UTF-8" standalone="no"?>
<!-- Created with Inkscape (http://www.inkscape.org/) -->
<svg xmlns:inkscape="http://www.inkscape.org/namespaces/inkscape" xmlns:rdf="http://www.w3.org/1999/02/22-rdf-syntax-ns#" xmlns="http://www.w3.org/2000/svg" xmlns:xlink="http://www.w3.org/1999/xlink" xmlns:ns1="http://sozi.baierouge.fr" xmlns:cc="http://creativecommons.org/ns#" xmlns:sodipodi="http://sodipodi.sourceforge.net/DTD/sodipodi-0.dtd" xmlns:dc="http://purl.org/dc/elements/1.1/" id="svg2" xml:space="preserve" viewBox="0 0 188.3 73.778" version="1.1" inkscape:version="0.91 r13725">
  <defs id="defs6">
    <clipPath id="clipPath18">
      <path id="path20" d="m0-0.97726h151v40h-151v-40z" inkscape:connector-curvature="0"/>
    </clipPath>
    <mask id="mask22">
      <g id="g24">
        <g id="g26" clip-path="url(#clipPath18)">
          <path id="path28" style="fill:#000000;fill-opacity:.62890" d="m0-0.97726h151v40h-151v-40z" inkscape:connector-curvature="0"/>
        </g>
      </g>
    </mask>
    <clipPath id="clipPath34">
      <path id="path36" d="m0-0.97726h151v40h-151v-40z" inkscape:connector-curvature="0"/>
    </clipPath>
    <clipPath id="clipPath38">
      <path id="path40" d="m0 0h151v40h-151v-40z" inkscape:connector-curvature="0"/>
    </clipPath>
    <clipPath id="clipPath42">
      <path id="path44" d="m128.6 33.977c14.691-3.786 22.039-8.344 22.039-13.68 0-5.332-7.348-9.895-22.039-13.68-14.72-3.758-32.479-5.64-53.28-5.64-20.8 0-38.547 1.882-53.242 5.64-14.719 3.785-22.078 8.348-22.078 13.68 0 5.336 7.359 9.894 22.078 13.68 14.695 3.789 32.442 5.679 53.242 5.679 20.801 0 38.559-1.89 53.282-5.679z" inkscape:connector-curvature="0"/>
    </clipPath>
    <clipPath id="clipPath46">
      <path id="path48" d="m0-124.05h188.75v200.16h-188.75v-200.16z" inkscape:connector-curvature="0"/>
    </clipPath>
    <radialGradient id="radialGradient50" gradientUnits="userSpaceOnUse" cy="-24.45" cx="93.85" r="81.15">
      <stop id="stop52" style="stop-color:#ffffff;stop-opacity:.61961" offset="0"/>
      <stop id="stop54" style="stop-color:#ffffff;stop-opacity:0" offset="1"/>
    </radialGradient>
    <mask id="mask56">
      <g id="g58">
        <g id="g60" clip-path="url(#clipPath46)">
          <path id="path62" style="fill:url(#radialGradient50)" d="m0-124.05h188.75v200.16h-188.75v-200.16z" inkscape:connector-curvature="0"/>
        </g>
      </g>
    </mask>
    <radialGradient id="radialGradient64" gradientUnits="userSpaceOnUse" cy="-24.45" cx="93.85" r="81.15">
      <stop id="stop66" style="stop-color:#000000" offset="0"/>
      <stop id="stop68" style="stop-color:#000000" offset="1"/>
    </radialGradient>
    <clipPath id="clipPath100">
      <path id="path102" d="m25 6.0227h109v26h-109v-26z" inkscape:connector-curvature="0"/>
    </clipPath>
    <mask id="mask104">
      <g id="g106">
        <g id="g108" clip-path="url(#clipPath100)">
          <path id="path110" style="fill:#000000;fill-opacity:.14060" d="m25 6.0227h109v26h-109v-26z" inkscape:connector-curvature="0"/>
        </g>
      </g>
    </mask>
    <clipPath id="clipPath116">
      <path id="path118" d="m25 6.0227h109v26h-109v-26z" inkscape:connector-curvature="0"/>
    </clipPath>
    <clipPath id="clipPath120">
      <path id="path122" d="m25 7h109v26h-109v-26z" inkscape:connector-curvature="0"/>
    </clipPath>
    <linearGradient id="linearGradient188" y2="-93.816" gradientUnits="userSpaceOnUse" x2="28.469" gradientTransform="matrix(.03824 -.79912 -.79912 -.03824 -.00017970 59.04)" y1="-93.816" x1="19.058">
      <stop id="stop190" style="stop-color:#92979c" offset="0"/>
      <stop id="stop192" style="stop-color:#e3e4e6" offset="1"/>
    </linearGradient>
    <linearGradient id="linearGradient206" y2="-111.32" gradientUnits="userSpaceOnUse" x2="25.085" gradientTransform="matrix(.03768 -.79912 -.79912 -.03768 -.00028464 59.04)" y1="-111.32" x1="18.653">
      <stop id="stop208" style="stop-color:#92979c" offset="0"/>
      <stop id="stop210" style="stop-color:#e3e4e6" offset="1"/>
    </linearGradient>
    <linearGradient id="linearGradient224" y2="-77.443" gradientUnits="userSpaceOnUse" x2="29.064" gradientTransform="matrix(-.02568 -.7996 -.7996 .02568 -.00033161 59.04)" y1="-77.443" x1="21.584">
      <stop id="stop226" style="stop-color:#92979c" offset="0"/>
      <stop id="stop228" style="stop-color:#e3e4e6" offset="1"/>
    </linearGradient>
    <linearGradient id="linearGradient242" y2="-63.667" gradientUnits="userSpaceOnUse" x2="64.687" gradientTransform="matrix(.11296 -.792 -.792 -.11296 .00016337 59.04)" y1="-63.667" x1="57.616">
      <stop id="stop244" style="stop-color:#92979c" offset="0"/>
      <stop id="stop246" style="stop-color:#e3e4e6" offset="1"/>
    </linearGradient>
    <linearGradient id="linearGradient260" y2="-66.256" gradientUnits="userSpaceOnUse" x2="30.674" gradientTransform="matrix(-.01992 -.79976 -.79976 .01992 -.00056509 59.04)" y1="-66.256" x1="23.947">
      <stop id="stop262" style="stop-color:#92979c" offset="0"/>
      <stop id="stop264" style="stop-color:#e3e4e6" offset="1"/>
    </linearGradient>
  </defs>
  <g id="g10" transform="matrix(1.25 0 0 -1.25 0 73.778)">
    <g id="g12">
      <g id="g14">
        <g id="g30" mask="url(#mask22)">
          <g id="g70">
            <g id="g72" clip-path="url(#clipPath34)">
              <g id="g74" transform="translate(0 -.97726)">
                <g id="g78">
                  <g id="g80" clip-path="url(#clipPath38)">
                    <g id="g82">
                      <g id="g84">
                        <g id="g86" clip-path="url(#clipPath42)">
                          <g id="g88" transform="matrix(.8 0 0 -.19984 0 15.21)">
                            <g id="g92" mask="url(#mask56)">
                              <path id="path94" style="fill-rule:evenodd;fill:url(#radialGradient64)" d="m128.6 33.977c14.691-3.786 22.039-8.344 22.039-13.68 0-5.332-7.348-9.895-22.039-13.68-14.72-3.758-32.479-5.64-53.28-5.64-20.8 0-38.547 1.882-53.242 5.64-14.719 3.785-22.078 8.348-22.078 13.68 0 5.336 7.359 9.894 22.078 13.68 14.695 3.789 32.442 5.679 53.242 5.679 20.801 0 38.559-1.89 53.282-5.679z" inkscape:connector-curvature="0"/>
                            </g>
                          </g>
                        </g>
                      </g>
                    </g>
                  </g>
                </g>
              </g>
            </g>
          </g>
        </g>
      </g>
      <g id="g96">
        <g id="g112" mask="url(#mask104)">
          <g id="g124">
            <g id="g126" clip-path="url(#clipPath116)">
              <g id="g128" transform="translate(0 -.97726)">
                <g id="g132">
                  <g id="g134" clip-path="url(#clipPath120)">
                    <g id="g136">
                      <path id="path138" style="fill-rule:evenodd;fill:#000000" d="m131.52 25.977c0.32-0.372 0.425-0.547 0.32-0.52-0.293 0.082-0.481-0.012-0.559-0.281-0.109-0.344 0.184-0.758 0.879-1.238 0.348-0.239 0.695-0.442 1.039-0.602l-0.961-1.039c-0.16-0.051-0.332-0.133-0.519-0.238-0.399-0.243-0.707-0.52-0.918-0.84-0.188-0.293-0.453-0.547-0.801-0.762-0.559-0.348-0.945-0.613-1.16-0.801-0.399-0.344-0.918-0.89-1.559-1.636l-0.84-1-3.64-1.321c-1.36-0.508-2.508-1.027-3.442-1.562-0.773-0.453-1.32-0.719-1.64-0.801-0.957-0.211-1.547-0.359-1.758-0.438-0.75-0.265-1.695-0.734-2.84-1.402-1.148-0.664-2.199-1.051-3.16-1.16-1.52-0.024-3.055-0.078-4.602-0.16-1.652-0.078-3.347-0.344-5.078-0.797-2.026-0.535-3.733-0.883-5.12-1.043-1.785-0.211-3.082-0.277-3.879-0.199-1.496 0.133-2.613 0.199-3.359 0.199h-7.524c-1.359 0-2.32-0.094-2.878-0.277-0.559-0.161-1.293-0.243-2.2-0.243-1.015 0-2.082-0.093-3.199-0.277-1.148-0.16-2.109-0.242-2.883-0.242-0.746 0-2.437 0.453-5.078 1.359-2.746 0.934-4.762 1.442-6.039 1.52-1.519 0.109-2.933 0.64-4.242 1.601-1.117 1.039-1.813 1.653-2.078 1.84-0.082 0.055-0.696 0.387-1.84 1-0.961 0.508-1.629 0.961-2 1.36-0.32 0.347-0.734 0.695-1.242 1.043-0.481 0.343-0.879 0.691-1.199 1.039-0.372 0.425-1 0.613-1.879 0.558-1.282-0.055-2.028-0.055-2.243 0-0.586 0.106-1.492 0.133-2.718 0.082l-1.641-0.082c-1.117 0.508-2.012 0.852-2.68 1.039-0.691 0.188-1.132 0.321-1.32 0.403-0.453 0.211-0.894 0.597-1.32 1.16-0.399 0.558-0.758 0.906-1.078 1.039l-0.36 0.039-3.64 0.762c-1.52 0.32-1.934 0.773-1.243 1.359l1.481 0.758 1.441 1.043c2.586 2.293 4.52 3.707 5.801 4.238 1.305 0.508 2.84 1.188 4.598 2.039 0.535 0.215 1.734 0.094 3.601-0.359 2.481-0.614 4.84-0.918 7.078-0.918 8.59 0.211 16.43 0.371 23.524 0.48 13.703 0.16 23.305-0.082 28.797-0.722 4.906-0.586 9.215-0.957 12.922-1.118 2.933-0.109 5-0.269 6.199-0.48 1.547-0.27 3.226-0.629 5.039-1.082 1.359-0.32 2.187-0.481 2.48-0.481 0.989 0 2.039-0.613 3.161-1.839z" inkscape:connector-curvature="0"/>
                    </g>
                  </g>
                </g>
              </g>
            </g>
          </g>
        </g>
      </g>
      <path id="path140" style="fill-rule:evenodd;fill:#c9cacc" d="m106.32 51.562c0.321-0.453 1.442-1.735 3.36-3.84 1.918-2.215 3.226-4 3.918-5.363 0.722-1.465 1.562-2.703 2.523-3.719 0.559-0.586 1.41-1.359 2.559-2.32 0.613-0.586 1.625-2.215 3.039-4.879 1.332-2.586 2.093-3.95 2.281-4.082 0.48-0.348 1.613-2.282 3.398-5.797-2.664-1.789-5.746-3.602-9.238-5.442-6.988-3.679-12.547-5.64-16.683-5.882-3.121-0.161-6.082-0.426-8.882-0.797-1.813-0.242-3.692-0.321-5.641-0.242-0.16 0-1.691 0.187-4.598 0.562-0.668 0.078-1.722-0.187-3.16-0.801-1.629-0.722-3.535-1.015-5.722-0.883-1.383 0.11-3.598 0.481-6.637 1.122-3.094 0.667-7.055 2.066-11.883 4.199-0.371 0.16-1.172 0.773-2.398 1.84-1.094 0.933-2.149 1.546-3.161 1.839-0.48 0.133-1.304 0.481-2.48 1.043-0.719 0.317-1.824 0.586-3.32 0.797-1.68 0.242-3.254 0.614-4.719 1.121-0.613 0.188-1.707 0.614-3.281 1.282-0.825 0.32-2 1.16-3.52 2.519l-2.078 1.961c0.398 0.774 1.172 1.918 2.32 3.438 1.278 1.707 2.293 3.187 3.039 4.441 1.25 2.133 3.371 4.332 6.36 6.598 3.386 2.562 6.187 3.777 8.398 3.64 2.426-0.133 4.442 0.055 6.043 0.563 1.625 0.504 2.68 1.293 3.16 2.359 0.426 0.906 1.719 2.281 3.879 4.121 1.84 1.571 3.133 2.559 3.879 2.957 0.32 0.16 1.442 0.867 3.36 2.121 2.054 1.172 3.839 1.879 5.359 2.121 1.336 0.184 3.027 0.172 5.082-0.039 2.16-0.242 3.613-0.32 4.359-0.242 0.188 0.028 1.188 0.348 3 0.961 0.961 0.348 2.067 0.199 3.321-0.441 1.039-0.504 2.441-1.078 4.199-1.719 1.387-0.508 2.242-0.895 2.562-1.16 0.211-0.188 1.543-0.785 4-1.801 2.293-0.93 3.625-1.652 4-2.156z" inkscape:connector-curvature="0"/>
      <path id="path142" style="fill-rule:evenodd;fill:#e3e4e6" d="m106.32 51.562c0.321-0.453 1.442-1.735 3.36-3.84 1.918-2.215 3.226-4 3.918-5.363 0.722-1.465 1.562-2.703 2.523-3.719 0.559-0.586 1.41-1.359 2.559-2.32 0.371-0.375 0.84-1.012 1.398-1.918l-0.441-0.203c-1.785-0.958-5.067 0.64-9.84 4.8-4.504 4.426-6.879 6.68-7.117 6.762-0.668 0.078-1.375 0.227-2.121 0.438-1.465 0.375-3.094 1.109-4.879 2.203-1.629 0.984-3.215 1.41-4.762 1.277-1.867-0.133-3.281-0.023-4.238 0.32-1.336 0.481-2.602 0.629-3.801 0.442-2.774-0.403-5.375-0.641-7.801-0.719-3.387-0.109-5.254-0.281-5.601-0.523-0.399-0.293-1.118-0.465-2.157-0.52-1.683-0.105-2.601-0.293-2.761-0.559-0.481-0.746-0.934-1.265-1.36-1.558-0.801-0.535-1.133-0.789-1-0.762 0.344 0.055 0.36-0.133 0.039-0.559l-3.64-4.48c-0.961 0-1.774 0.184-2.438 0.559-0.348 0.187-0.828 0.199-1.441 0.039-0.879-0.211-1.602-0.321-2.16-0.321-0.801 0-1.426-0.265-1.879-0.797-0.453-0.695-0.883-1.214-1.282-1.562-0.453-0.398-0.855-0.52-1.199-0.359-0.773 0.347-1.426 0.546-1.961 0.601-0.718 0.078-1.144 0.117-1.281 0.117-0.348-0.078-1.133-0.117-2.359-0.117-1.094 0-2.106-0.148-3.039-0.441 1.812 1.629 3.601 2.922 5.359 3.879 2.027 1.121 3.762 1.64 5.199 1.562 2.426-0.133 4.442 0.051 6.043 0.559 1.625 0.508 2.68 1.293 3.16 2.359 0.426 0.906 1.719 2.281 3.879 4.121 1.84 1.574 3.133 2.559 3.879 2.961 0.32 0.16 1.442 0.867 3.36 2.117 2.054 1.176 3.839 1.883 5.359 2.121 1.336 0.188 3.027 0.176 5.082-0.039 2.16-0.242 3.613-0.32 4.359-0.242 0.188 0.028 1.188 0.348 3 0.961 0.961 0.348 2.067 0.199 3.321-0.437 1.039-0.508 2.441-1.082 4.199-1.723 1.387-0.504 2.242-0.891 2.562-1.16 0.211-0.184 1.543-0.785 4-1.797 2.293-0.934 3.625-1.656 4-2.16z" inkscape:connector-curvature="0"/>
      <path id="path144" style="fill-rule:evenodd;fill:#b5b6b8" d="m98 34.402c1.652 0.425 2.734 0.531 3.238 0.32 0.508-0.215 0.735-0.801 0.684-1.762 0-0.508-0.067-0.972-0.199-1.398-2.27-2.801-3.645-4.203-4.121-4.203-0.403 0-0.774 0.121-1.122 0.359-0.371 0.27-0.558 0.586-0.558 0.961 0 0.32-0.281 0.375-0.84 0.16l-0.883-0.441c-2.265 0.347-3.797 0.707-4.597 1.082-0.508 0.215-1.79 0.972-3.84 2.281l-2.922 1.918 9.359-0.641c-0.586 0.082-0.476 0.121 0.321 0.121 0.988 0 1.652 0.055 2 0.161 0.242 0.05 0.628 0.171 1.16 0.359l2.32 0.723z" inkscape:connector-curvature="0"/>
      <path id="path146" style="fill-rule:evenodd;fill:#b5b6b8" d="m73.879 23.679c0.855 0.613 1.281 1.387 1.281 2.32 0 1.922 0.051 3.16 0.16 3.723l0.719 3.156 2.441-3.957c0.372-0.535 0.758-1.226 1.161-2.082 0.398-0.879 0.652-1.586 0.757-2.117 0.133-0.641 0.454-1.617 0.961-2.922 0.586-1.547 1.161-2.851 1.719-3.918 0.508-1.016 1.176-1.789 2-2.32 0.508-0.348 1.375-0.801 2.602-1.36 1.238-0.671 2.64-1.019 4.199-1.039-2.504-0.011-4.317-0.277-5.441-0.8-1.012-0.481-2.079-0.856-3.2-1.122-1.574-0.347-3.574-0.585-6-0.718-1.761-0.082-3.05-0.36-3.879-0.84-0.695-0.402-1.816-0.563-3.359-0.481-1.922 0.106-4.562 0.664-7.922 1.68l-4.441 1.481h5.32c0.508 0 1.203 0.093 2.082 0.281 0.481 0.105 1.16 0.277 2.039 0.519 0.453 0.078 0.895 0.571 1.32 1.481 0.614 1.25 1.067 2.066 1.36 2.437 0.508 0.668 0.773 1.16 0.801 1.481-0.055 0.347-0.082 0.656-0.082 0.922 0 0.425 0.296 1.023 0.882 1.8 0.668 0.848 1.508 1.649 2.52 2.395z" inkscape:connector-curvature="0"/>
      <path id="path148" style="fill-rule:evenodd;fill:#b5b6b8" d="m42.961 29.878 12 1.684c0-0.535-0.32-1.149-0.961-1.84-0.398-0.43-0.922-1.617-1.559-3.563-0.347-0.96-0.64-1.878-0.882-2.757l0.242-2.883c-1.602-0.188-3.055-0.281-4.36-0.281-1.601-0.184-2.961-0.293-4.082-0.317-2.078-0.082-3.867 0.211-5.359 0.879-1.973 0.774-3.254 1.281-3.84 1.52-0.879 0.375-1.613 0.828-2.199 1.359l-1.441 1.32 2.64 1.321c1.918-0.348 3.442-0.414 4.559-0.2 0.64 0.133 1.386 0.454 2.242 0.957 0.32 0.215 0.945 0.696 1.879 1.442 0.801 0.613 1.387 1.012 1.762 1.199 0.371 0.188 0.16 0.242-0.641 0.16z" inkscape:connector-curvature="0"/>
      <path id="path150" style="fill-rule:evenodd;fill:#8d9296" d="m97.84 47.601c0.082 0.051 0.64 0.48 1.68 1.277 0.507 0.43 1 0.535 1.48 0.321 0.375-0.161 0.961-0.293 1.762-0.399 0.664-0.078 1.117-0.215 1.359-0.398 0.16-0.11 0.387 0.172 0.68 0.839 0.265 0.637 0.773 0.719 1.519 0.239 0.586-0.399 1.946-2.188 4.082-5.36 2.133-3.148 3.68-5.054 4.637-5.718 0.934-0.641 2.094-1.282 3.484-1.922l0.157-0.16c0.613-0.586 1.629-2.215 3.043-4.879 1.332-2.586 2.089-3.95 2.277-4.082 0.48-0.348 1.613-2.282 3.402-5.797-2.668-1.789-5.746-3.602-9.242-5.442-6.984-3.679-12.547-5.64-16.68-5.882-3.117-0.161-6.078-0.426-8.878-0.797-1.813-0.242-3.696-0.321-5.641-0.242-0.16 0-1.695 0.187-4.602 0.562-0.664 0.078-1.718-0.187-3.16-0.801-1.625-0.722-3.531-1.015-5.719-0.883-1.386 0.11-3.601 0.481-6.64 1.122-3.094 0.667-7.051 2.066-11.879 4.199 1.281-0.078 2.574-0.387 3.879-0.918 1.469-0.614 2.762-1 3.883-1.16 1.222-0.188 2.343-0.426 3.359-0.719 1.012-0.16 2.797-0.188 5.359-0.082 2.614 0.105 4.598 0.387 5.961 0.84 0.746 0.242 1.586 0.574 2.52 1 0.558 0.16 1.332 0.441 2.316 0.84 0.91 0.32 1.91 0.48 3 0.48 0.91 0 2.387-0.133 4.442-0.398 1.707-0.082 2.812 0.32 3.32 1.199 0.426 0.746 0.84 1.668 1.238 2.758 0.508 1.414 0.989 2.601 1.442 3.562 0.398 0.879 1.148 1.852 2.242 2.918 0.746 0.773 1.117 1.641 1.117 2.602 0 0.613 0.133 1.546 0.402 2.8 0.184 0.825 0.133 1.637-0.16 2.438-0.215 0.641-0.746 1.226-1.601 1.762-0.774 0.453-1.2 1.093-1.282 1.918-0.05 0.507-0.183 1.359-0.398 2.562-0.133 0.691-0.16 1.332-0.078 1.918 0.078 0.613 0.277 1.293 0.598 2.039 0.347 0.856 0.546 1.402 0.601 1.641-0.027 0.933-0.055 1.668-0.082 2.199-0.051 1.043 0.215 1.711 0.801 2.004z" inkscape:connector-curvature="0"/>
      <path id="path152" style="fill-rule:evenodd;fill:#8d9296" d="m38.879 20.038c-0.613 0.188-1.707 0.618-3.277 1.282-0.563 0.214-1.309 0.695-2.243 1.441l1.243-0.398c1.785-0.536 3.386-1.028 4.796-1.485 0.668-0.183 1.414-0.211 2.243-0.078 3.011 0.375 4.867 0.625 5.558 0.762 0.348 0.078 0.973 0.265 1.879 0.558 0.801 0.211 1.363 0.293 1.684 0.239l0.558-1.039c0.508-0.879 1.028-1.786 1.559-2.719 0.32-0.613 0.535-1.199 0.641-1.762 0.082-0.426-0.094-1.09-0.52-2-1.281 1.176-2.48 1.922-3.602 2.242-0.476 0.133-1.304 0.481-2.476 1.039-0.723 0.321-1.828 0.586-3.32 0.801-1.68 0.238-3.254 0.613-4.723 1.117z" inkscape:connector-curvature="0"/>
      <path id="path154" style="fill-rule:evenodd;fill:#f7f8fa" d="m106.32 49.48 1.321-1.602c0.586-1.039 0.066-1.558-1.563-1.558-0.746 0-1.851-0.2-3.316-0.598l-0.082 0.039c-0.668 0.078-1.375 0.227-2.121 0.438-1.465 0.375-3.094 1.109-4.879 2.203-1.625 0.984-3.215 1.41-4.758 1.277-1.867-0.133-3.281-0.023-4.242 0.32-1.332 0.481-2.602 0.629-3.801 0.442-2.774-0.403-5.371-0.641-7.801-0.719-3.387-0.109-5.254-0.281-5.598-0.523-0.402-0.293-1.121-0.465-2.16-0.52-1.679-0.105-2.601-0.293-2.761-0.559-0.481-0.746-0.934-1.265-1.36-1.558-0.801-0.535-1.133-0.789-1-0.762 0.348 0.055 0.36-0.133 0.039-0.559l-3.64-4.48c-0.957 0-1.774 0.184-2.438 0.559-0.348 0.187-0.828 0.199-1.441 0.039-0.879-0.211-1.598-0.321-2.16-0.321-0.801 0-1.426-0.265-1.879-0.797-0.453-0.695-0.879-1.214-1.282-1.562-0.32-0.293-0.586-0.453-0.8-0.48-0.133 0-0.344 0.066-0.637 0.203 1.066 0.824 2.184 1.879 3.359 3.16l0.879 0.637c0.774 0.375 1.613 0.507 2.52 0.402 0.746-0.082 1.176-0.348 1.281-0.801 0.055-0.16 0.359 0.027 0.918 0.559 0.562 0.507 0.84 0.64 0.84 0.402 0-0.105 0.281 0.277 0.84 1.16 1.121 1.758 1.933 3.078 2.441 3.957l1.68 1.043c0.242 0.184 0.746 0.32 1.519 0.399 0.856 0.105 1.481 0.242 1.883 0.402 0.399 0.156 0.797 0.398 1.199 0.719 0.481 0.215 1.371 0.32 2.68 0.32 0.078 0 0.879-0.055 2.398-0.16 0.375-0.027 1.188 0.121 2.442 0.437 0.508 0.137 1.48 0.321 2.918 0.563 0.535 0.105 1.094 0.359 1.68 0.758 0.48 0.347 0.48 0.519 0 0.519-0.161 0 0.32 0.176 1.441 0.524 1.148 0.343 2.469 0.73 3.961 1.16 1.066 0.316 1.851 0.637 2.359 0.957-0.375-0.348-0.812-0.852-1.32-1.52-1.039-1.386-0.68-2.027 1.082-1.918 1.867 0.106 3.144 0.078 3.84-0.082 0.426-0.105 0.918-0.332 1.48-0.679 0.399-0.188 0.664-0.454 0.797-0.801 0.242-0.211 1.11-0.211 2.602 0 3.175 0.453 5.265 0.535 6.281 0.242l4.359-1.281z" inkscape:connector-curvature="0"/>
      <path id="path156" style="fill-rule:evenodd;fill:#e3e4e6" d="m75.078 32.48 0.961 0.398-0.598-3.957h-3.441c-1.172 0-1.828-0.027-1.961-0.082-0.504-0.265-1.25-0.625-2.238-1.078-1.309-0.641-2.082-0.988-2.321-1.043-0.32 0.027-0.695 0.043-1.121 0.043-0.718 0-3.265-0.199-7.64-0.602-1.813-0.16-3.078-0.332-3.797-0.519l-0.563-0.238c0 0.504 0.243 1.492 0.719 2.957 0.297 0.906 0.961 1.961 2 3.16 0.535 0.613 1.027 1.137 1.481 1.562l1.32-0.441c1.016-0.293 1.773-0.481 2.281-0.559 0.371-0.054 1.172 0.028 2.399 0.239 1.468 0.242 2.855 0.359 4.16 0.359 1.254 0 2.242 0.094 2.961 0.281 0.718 0.215 1.613 0.321 2.679 0.321 1.36 0 2.215-0.133 2.563-0.403 0.183-0.133 0.238-0.265 0.156-0.398z" inkscape:connector-curvature="0"/>
      <path id="path158" style="fill-rule:evenodd;fill:#e3e4e6" d="m75.078 24.601c-1.332-1.067-2.305-1.922-2.918-2.563-0.375-0.425-0.785-0.718-1.238-0.879l-0.563-0.121-1.839-1c-1.68 0-3.254 0.137-4.719 0.403-0.906 0.16-1.989 0.437-3.242 0.84l-1.637 0.558 3.797 0.402c0.75 0.079 1.336 0.25 1.761 0.52 0.532 0.316 0.973 0.531 1.321 0.641 0.504 0.132 1.066 0.347 1.679 0.636 0.665 0.243 1.625 0.364 2.879 0.364 0.934 0 1.829 0.078 2.68 0.238 0.586 0.109 1.266 0.094 2.039-0.039z" inkscape:connector-curvature="0"/>
      <path id="path160" style="fill-rule:evenodd;fill:#e3e4e6" d="m89.238 42.159c2.535 0 5.016-0.066 7.442-0.199l-0.758-2.238 0.078-1.082c0.055-0.801 0.039-1.399-0.039-1.801-0.106-0.664 0.254-1.719 1.078-3.16-1.437-0.266-2.945-0.438-4.516-0.52-0.882-0.05-1.75-0.05-2.601 0-1.149 0.082-2.094 0.122-2.84 0.122-1.254 0-2.121 0.066-2.602 0.199-0.214 0.054-0.746 0.32-1.601 0.801-0.586 0.32-1.516 0.707-2.797 1.16l-1.719 0.597c-0.054 0.348-0.043 0.707 0.039 1.082 0.16 0.719 0.625 1.079 1.399 1.079 0.906 0 1.668 0.148 2.281 0.441 0.641 0.293 1.453 0.879 2.441 1.762 0.957 0.824 1.707 1.332 2.239 1.519 0.453 0.16 1.277 0.238 2.476 0.238z" inkscape:connector-curvature="0"/>
      <path id="path162" style="fill-rule:evenodd;fill:#e3e4e6" d="m93.441 25.402-3.48-3.762c-1.441 0.133-2.281 0.535-2.52 1.199-0.16 0.402-0.429 0.723-0.8 0.961-0.614 0.32-1.2 0.652-1.762 1-0.719 0.453-0.746 0.879-0.078 1.281 0.508 0.321 1.199 0.547 2.078 0.68 0.535 0.078 1.43-0.027 2.683-0.32 0.747-0.188 2.04-0.535 3.879-1.039z" inkscape:connector-curvature="0"/>
      <path id="path164" style="fill-rule:evenodd;fill:#e3e4e6" d="m70.359 45.921 0.481-0.762c0.215-0.691 0.055-1.492-0.481-2.398-0.504-0.883-0.812-1.281-0.918-1.199-0.054 0.265-0.175 0.398-0.363 0.398l-4.558-0.199 0.359 0.559c0.266 0.453 0.519 0.8 0.762 1.039 0.64 0.695 1.171 1.187 1.597 1.48 0.989 0.723 2.028 1.082 3.121 1.082z" inkscape:connector-curvature="0"/>
      <path id="path166" style="fill-rule:evenodd;fill:#e3e4e6" d="m41.84 34.081 2.519-1c0.719-0.269 1.746-0.535 3.082-0.8 2.559-0.508 3.653-0.829 3.278-0.961-0.16-0.055-1.492-0.254-4-0.598-0.586-0.082-1.094-0.254-1.52-0.523-0.426-0.321-0.758-0.547-1-0.68-0.238-0.133-0.613-0.414-1.121-0.84-0.933-0.773-1.89-1.547-2.879-2.316-1.277-0.989-2.719-1.321-4.32-1l-2.039 0.796c0.613 0.536 1.332 1.204 2.16 2 0.398 0.375 0.84 0.934 1.32 1.68 0.426 0.695 0.895 1.254 1.399 1.684 0.269 0.211 0.816 0.785 1.64 1.718 0.481 0.559 0.973 0.84 1.481 0.84z" inkscape:connector-curvature="0"/>
      <path id="path168" style="fill-rule:evenodd;fill:#73777a" d="m112.76 27.441c0.105-0.403 0.226-0.602 0.359-0.602 0.531 0 1.172 0.067 1.918 0.199 0.961 0.161 1.602 0.364 1.922 0.602 0.504 0.348 1.238 0.691 2.199 1.039l1.598-0.359c1.254-0.321 2.336-0.641 3.242-0.957 0.48-0.348 1.613-2.282 3.398-5.801-2.664-1.789-5.746-3.602-9.238-5.442-6.988-3.679-12.547-5.64-16.683-5.879-3.118-0.16-6.079-0.429-8.879-0.8-1.813-0.242-3.692-0.321-5.641-0.242-0.16 0-1.691 0.187-4.598 0.562-0.67 0.078-1.724-0.187-3.162-0.801-1.281-0.586-2.707-0.894-4.281-0.922-1.281-0.023-2.879 0.137-4.801 0.481 1.629 0.109 3.281 0.16 4.961 0.16 1.492 0 2.508 0.16 3.039 0.48 0.426 0.243 1.668 1.043 3.719 2.403 1.922 1.094 3.109 1.465 3.562 1.117 0.211-0.16 0.239-0.438 0.079-0.84h5.082c0.773 0 1.48 0.176 2.117 0.52 0.429 0.242 1.015 0.679 1.762 1.32 0.48 0.398 0.785 0.906 0.921 1.52 0.211 0.933 0.399 1.562 0.559 1.878l0.32 0.684c-0.054-0.187 0-0.148 0.16 0.117 0.161 0.27 0.641 0.442 1.438 0.52 0.988 0.109 1.723 0.293 2.203 0.562 0.586 0.317 1.359 1.278 2.32 2.879 0.504 0.852 1.09 1.906 1.758 3.16 0.242 0.321 0.586 0.989 1.039 2 0.43 1.012 0.817 1.746 1.16 2.2 0.508 0.695 1.055 1.054 1.641 1.082 0.695 0.05 1.68-0.309 2.961-1.082 1.039-0.61 1.652-1.2 1.84-1.758h0.004z" inkscape:connector-curvature="0"/>
      <path id="path170" style="fill-rule:evenodd;fill:#8d9296" d="m112.6 23.921c1.359 0.133 2.371-0.242 3.039-1.121s0.707-1.906 0.121-3.078c-0.485-0.961-0.961-1.52-1.442-1.684-0.718-0.105-1.453-0.332-2.199-0.679-0.91-0.426-1.867-0.641-2.883-0.641-0.984 0.082-1.64 0.121-1.961 0.121-0.425 0-0.597 0.426-0.515 1.281 0.05 0.774 0.226 1.399 0.515 1.879 0.457 0.75 1.071 1.469 1.844 2.16 1.145 1.067 2.305 1.653 3.481 1.762z" inkscape:connector-curvature="0"/>
      <path id="path172" style="fill-rule:evenodd;fill:#8d9296" d="m118.92 25.8c1.305 0.641 1.89 0.426 1.758-0.641-0.106-1.066-0.774-1.734-2-2-1.094-0.238-1.481 0.067-1.16 0.918 0.292 0.801 0.761 1.375 1.402 1.723z" inkscape:connector-curvature="0"/>
      <path id="path174" style="fill-rule:evenodd;fill:#959a9e" d="m107.04 40.241c2.426-2.109 3.481-3.414 3.16-3.921-0.187-0.321-0.707-0.575-1.558-0.758-1.36-0.321-2.133-0.508-2.321-0.563-0.613-0.211-1.414-0.093-2.398 0.36-1.707 0.882-3.414 1.722-5.121 2.519-2.106 0.988-3.028 1.508-2.762 1.563 0.16 0 0.523-0.082 1.082-0.242l1.441 0.242c1.2 0.133 2.415 0.144 3.641 0.039 1.199-0.106 2.012-0.106 2.438 0 0.32 0.082 1.121 0.332 2.398 0.761z" inkscape:connector-curvature="0"/>
      <path id="path176" style="fill-rule:evenodd;fill:#959a9e" d="m116.48 34.48c1.387-0.266 2.332-0.801 2.84-1.602 0.453-0.719 0.481-1.504 0.082-2.359-0.293-0.641-0.722-0.746-1.281-0.32-1.066 0.906-2.176 1.722-3.32 2.441-1.492 0.906-1.828 1.508-1 1.801 0.64 0.215 1.531 0.226 2.679 0.039z" inkscape:connector-curvature="0"/>
      <g id="g178">
        <g id="g180">
          <g id="g186">
            <path id="path194" style="fill-rule:evenodd;fill:url(#linearGradient188)" d="m78.879 43.241c-0.051-1.066-0.387-1.96-1-2.679-0.641-0.696-1.371-1.016-2.199-0.961-0.825 0.051-1.508 0.48-2.039 1.277-0.536 0.778-0.786 1.696-0.762 2.762 0.055 1.066 0.402 1.945 1.043 2.641 0.613 0.718 1.332 1.054 2.156 1 0.828-0.055 1.524-0.469 2.082-1.243 0.531-0.797 0.774-1.73 0.719-2.797z" inkscape:connector-curvature="0"/>
          </g>
        </g>
      </g>
      <g id="g196">
        <g id="g198">
          <g id="g204">
            <path id="path212" style="fill-rule:evenodd;fill:url(#linearGradient206)" d="m91.84 45.48c-0.028-0.746-0.266-1.387-0.719-1.918-0.426-0.535-0.922-0.789-1.48-0.762-0.563 0.027-1.028 0.332-1.403 0.922-0.371 0.586-0.547 1.25-0.515 2 0.05 0.773 0.289 1.426 0.718 1.957 0.426 0.508 0.918 0.75 1.481 0.723 0.586-0.055 1.066-0.364 1.437-0.922 0.375-0.559 0.536-1.227 0.481-2z" inkscape:connector-curvature="0"/>
          </g>
        </g>
      </g>
      <g id="g214">
        <g id="g216">
          <g id="g222">
            <path id="path230" style="fill-rule:evenodd;fill:url(#linearGradient224)" d="m63.641 36.281c-0.106-0.907-0.442-1.641-1-2.2-0.536-0.586-1.133-0.828-1.801-0.722-0.668 0.109-1.188 0.507-1.559 1.203-0.375 0.691-0.508 1.504-0.402 2.437 0.133 0.907 0.469 1.641 1 2.2 0.535 0.589 1.133 0.828 1.801 0.722 0.668-0.109 1.187-0.519 1.558-1.242 0.403-0.691 0.535-1.492 0.403-2.398z" inkscape:connector-curvature="0"/>
          </g>
        </g>
      </g>
      <g id="g232">
        <g id="g234">
          <g id="g240">
            <path id="path248" style="fill-rule:evenodd;fill:url(#linearGradient242)" d="m58.879 20.12c0.453-0.668 0.695-1.48 0.723-2.441 0.05-0.957-0.137-1.785-0.563-2.48-0.426-0.692-0.945-1.051-1.559-1.079-0.613-0.027-1.16 0.293-1.64 0.957-0.453 0.668-0.695 1.485-0.719 2.442-0.027 0.961 0.16 1.785 0.559 2.48 0.425 0.696 0.945 1.055 1.558 1.082 0.617 0.024 1.16-0.293 1.641-0.961z" inkscape:connector-curvature="0"/>
          </g>
        </g>
      </g>
      <g id="g250">
        <g id="g252">
          <g id="g258">
            <path id="path266" style="fill-rule:evenodd;fill:url(#linearGradient260)" d="m54.559 35.402c-0.106-0.828-0.399-1.496-0.879-2-0.481-0.536-1.012-0.762-1.602-0.68-0.586 0.078-1.051 0.437-1.398 1.078-0.348 0.641-0.465 1.371-0.36 2.199 0.106 0.828 0.399 1.508 0.879 2.039 0.481 0.536 1.016 0.762 1.602 0.684 0.586-0.109 1.054-0.481 1.398-1.121 0.348-0.641 0.469-1.375 0.36-2.199z" inkscape:connector-curvature="0"/>
          </g>
        </g>
      </g>
      <path id="path268" style="fill-rule:evenodd;fill:#73777a" d="m80.52 28.679c0.64-0.453 0.945-1.012 0.918-1.68-0.024-0.347-0.106-0.64-0.239-0.879l0.52-0.441c0.402-0.375 0.707-0.758 0.918-1.16l0.562-0.918 1-1c0.692-0.746 1.067-1.348 1.121-1.801l0.118-1.082 0.761-0.918c0.504-0.668 0.785-1.105 0.84-1.32l0.16-0.559 1.321-1.32c0.265-0.266 0.625-0.254 1.078 0.039l1.078-0.399c0.722-0.375 1.109-0.785 1.16-1.242l0.16-1.078 1.84-0.64 0.562-0.403c1.414-0.183 2.028-0.504 1.84-0.957 0.082-0.426 0.082-0.707 0-0.84-0.105-0.215-0.812-0.281-2.121-0.203-1.519 0.055-3.867 0.485-7.039 1.281-3.172 0.774-4.961 1.36-5.359 1.762-0.614 0.613-1.254 1.481-1.922 2.598-0.879 1.519-1.344 2.844-1.399 3.961l-0.8 9.601 0.961 0.16c0.746 0 1.398-0.187 1.961-0.562z" inkscape:connector-curvature="0"/>
      <path id="path270" style="fill-rule:evenodd;fill:#73777a" d="m73.359 31.761c0.293-0.082 0.266-0.293-0.078-0.641-0.32-0.293-0.695-0.535-1.121-0.718-0.32-0.161-0.613-0.161-0.879 0l-0.32 0.277-1.082-0.559c-0.238-0.105-0.531-0.148-0.879-0.121l-0.398 0.039c-0.883-0.746-1.79-1.16-2.723-1.238l-0.719-0.922 2.039-0.437 0.84 0.32c0.641 0.238 1.082 0.344 1.32 0.316 0.403-0.023 0.442-0.211 0.121-0.558-0.402-0.531-0.839-0.906-1.32-1.117l-0.359-0.203c0-0.024-0.121-0.118-0.36-0.278-0.269-0.16-0.535-0.242-0.8-0.242-0.348 0.027-0.563 0.027-0.641 0-0.16-0.027-0.332-0.117-0.52-0.281-0.242-0.184-0.519-0.36-0.839-0.52-0.403-0.183-0.786-0.238-1.161-0.16l-0.441 0.16c0-0.371-0.359-0.824-1.078-1.359-0.453-0.348-0.988-0.453-1.602-0.32l-0.8 0.281c-0.184-0.266-0.426-0.492-0.719-0.68-0.188-0.133-0.481-0.148-0.879-0.039l-0.563 0.238v-0.199l-0.398-0.719c-0.375-0.64-0.961-0.976-1.762-1-0.531-0.027-1.05 0.067-1.558 0.282l-0.602 0.316 0.524 2.402-1.524-0.402c-0.453-0.105-0.824-0.051-1.117 0.16l-0.32 0.36 1.238 1.402 1.441 1.039c1.012 0.801 1.719 1.492 2.121 2.082 0.399 0.586 1.239 1.066 2.52 1.437 0.746 0.215 1.984 0.536 3.719 0.961 1.121 0.348 2.535 0.559 4.242 0.641 0.558 0.027 1.812 0.039 3.758 0.039 0.668 0 1.441 0.012 2.32 0.039 0.641 0 1.094-0.027 1.359-0.078z" inkscape:connector-curvature="0"/>
      <path id="path272" style="fill-rule:evenodd;fill:#73777a" d="m49.039 39.921c0.106 0.293 0.359 0.598 0.762 0.918 0.558 0.481 0.972 0.883 1.238 1.199 0.402 0.457 0.883 0.774 1.441 0.961 1.172 0.375 1.934 0.641 2.282 0.801 2.426 1.066 3.824 1.559 4.199 1.481 0.211-0.028 0.238-0.243 0.078-0.641-0.133-0.375-0.277-0.613-0.437-0.719-0.082-0.055-0.122-0.133-0.122-0.242v-0.559c0-0.347-0.359-0.773-1.082-1.281-0.293-0.183-0.703-0.359-1.238-0.519-0.426-0.133-0.949-0.2-1.558-0.2-0.243-0.132-0.614-0.293-1.122-0.48-0.292-0.133-0.585-0.199-0.878-0.199l-0.321 0.078c-0.054-0.481-0.359-0.973-0.922-1.481l-0.48-1.16c-0.211-0.504-0.598-0.625-1.16-0.359l-0.641 0.48c-0.211 0.746-0.223 1.387-0.039 1.922z" inkscape:connector-curvature="0"/>
      <path id="path274" style="fill-rule:evenodd;fill:#73777a" d="m97.52 42.359-0.641-0.84c-0.664 0.293-1.078 0.68-1.238 1.16l-0.082 0.359-0.297 0.602c-0.094 0.004-0.262 0.016-0.5 0.039-1.043 0.133-1.563 0.375-1.563 0.723 0 0.183 0.535 0.425 1.602 0.718 1.172 0.321 2.105 0.321 2.801 0 1.039-0.453 1.57-0.695 1.597-0.718 0.242-0.161 0.133-0.403-0.32-0.723-0.426-0.293-0.879-0.734-1.359-1.32z" inkscape:connector-curvature="0"/>
      <path id="path276" style="fill-rule:evenodd;fill:#73777a" d="m106.2 30.878c0.613-0.105 1.067-0.426 1.36-0.957 0.187-0.347 0.281-0.746 0.281-1.199 0-0.27-0.332-0.656-1-1.16-0.641-0.453-1.067-0.696-1.281-0.723-0.719-0.078-1.52 0.067-2.399 0.442-0.558 0.242-0.961 0.48-1.199 0.718l-0.16 0.321-2.723-1.079-0.519 0.278c-0.985-0.024-1.786 0.027-2.399 0.16-0.398 0.082-0.64 0.199-0.719 0.359l-0.043 0.203c-0.343 0-0.796 0.051-1.359 0.161-0.348 0.05-0.719 0.183-1.117 0.398l-0.481 0.32c-0.269-0.293-0.629-0.492-1.082-0.601-0.293-0.051-0.613 0.07-0.961 0.359l-0.397 0.442c-0.238-0.133-0.625-0.133-1.16 0-0.32 0.082-0.531 0.187-0.641 0.32l-0.039 0.199-0.719-0.16c-0.293-0.078-0.586-0.039-0.882 0.121l-0.36 0.238c-0.32-0.238-0.586-0.183-0.801 0.161-0.16 0.214-0.21 0.429-0.16 0.64l0.121 0.281 4.481 0.801c0.801 0.184 3.707 0.16 8.719-0.082 1.363 0 3.906-0.32 7.64-0.961z" inkscape:connector-curvature="0"/>
      <path id="path278" style="fill-rule:evenodd;fill:#2e6e08" d="m111.96 38.199c0.16-0.028 0.371-0.145 0.641-0.36 0.293 0.32 0.664 0.547 1.117 0.68 0.668 0.137 1.308-0.094 1.922-0.68 0.746 0.453 1.386 0.52 1.918 0.199 0.668-0.425 1.039-0.957 1.121-1.597 0.984-0.266 1.531-0.602 1.64-1 0.184-0.641 0.664-1.227 1.438-1.762 0.883-0.586 1.469-1.133 1.762-1.641 0.05-0.132-0.11-0.293-0.481-0.476l0.199-0.321-0.199-0.203c0.266-0.265 0.465-0.597 0.598-1v-0.039c0.801-0.453 1.226-0.879 1.281-1.281 0.055-0.371 0.215-0.824 0.48-1.359 0.293-0.614 0.481-1.051 0.563-1.321 0.398-1.332 0.957-2.41 1.68-3.238 0.265-0.32 0.425-0.559 0.48-0.719 0.078-0.215 0.051-0.492-0.082-0.84-0.16-0.375-0.508-0.562-1.039-0.562-1.148-1.039-2.082-1.664-2.801-1.879-0.215-0.641-0.586-1.051-1.121-1.238-0.371-0.137-0.973-0.176-1.801-0.121-0.398-0.453-0.757-0.762-1.078-0.922-0.347-0.184-0.761-0.25-1.238-0.199-0.32-0.508-0.762-0.825-1.32-0.957l-0.364-0.043c-0.183-0.161-0.449-0.239-0.797-0.239-0.64 0.051-1.093 0.227-1.359 0.52-0.215 0.238-0.269 0.547-0.16 0.918l-0.082 0.242c-0.691 0.316-0.984 0.68-0.879 1.078 0.215 0.613 0.52 1.11 0.922 1.481-0.402 0.214-0.695 0.492-0.883 0.839-0.828 0.028-1.465 0.243-1.918 0.641-0.508 0.481-0.668 1.149-0.48 2l0.398 1.199c-0.187 0.028-0.387 0.121-0.601 0.282-0.504 0.16-0.891 0.402-1.161 0.718-0.265 0.375-0.343 0.801-0.238 1.282l-0.04 0.039-0.68 0.242c-0.215 0.133-0.386 0.332-0.519 0.601-0.668-0.32-1.293-0.402-1.883-0.242-0.613 0.188-0.957 0.613-1.039 1.281-0.828-0.32-1.559-0.425-2.199-0.32-0.774 0.106-1.282 0.492-1.52 1.16-0.961-0.535-1.816-0.707-2.562-0.519-0.614-0.535-1.266-0.762-1.957-0.68-0.989 0.078-2.215 0.598-3.68 1.559l-0.441 0.121-0.043 0.078h-0.079c-0.32 0.082-0.546 0.226-0.679 0.441l-0.399-0.039c-0.187-0.187-0.484-0.297-0.882-0.32-0.426-0.055-0.801 0.027-1.118 0.238-0.32-0.105-0.629-0.105-0.922 0-0.32 0.106-0.558 0.309-0.718 0.602v0.078l-0.52-0.199c-0.215-0.11-0.453-0.137-0.722-0.082-0.317-0.106-0.559-0.161-0.719-0.161-0.348-0.078-0.559-0.027-0.641 0.161-0.078 0.187-0.105 0.336-0.078 0.441-0.242-0.082-0.496-0.082-0.762 0-0.347 0.133-0.414 0.398-0.199 0.801 0.051 0.078 0.172 0.16 0.359 0.238l-0.039 0.078v0.082c0 0.188 0.133 0.348 0.399 0.481 0.242 0.133 0.48 0.172 0.719 0.121 0.375 0.183 0.707 0.199 1 0.039 0.507 0.371 1.093 0.492 1.761 0.359 0.16-0.054 0.293-0.148 0.399-0.281h0.082l0.32-0.039c0.348 0.055 0.652 0 0.918-0.16 0.109 0 0.121-0.039 0.043-0.121-0.027-0.078-0.016-0.227 0.039-0.438l0.359 0.399c0.348 0.507 1.149 0.879 2.399 1.121 0.508 0.105 1.043-0.028 1.601-0.403 0.321 0.188 0.692 0.309 1.122 0.364 0.316 0.023 0.597-0.016 0.839-0.121 0.586 0.265 1.145 0.32 1.68 0.16 0.293 0.133 0.574 0.238 0.84 0.32 0.398 0.078 0.719 0.105 0.961 0.078 1.066 0.215 2.023 0.121 2.879-0.277 0 0.453 0.121 0.863 0.359 1.238 0.188 0.266 0.442 0.453 0.762 0.559 0.32 0.109 0.625 0.082 0.918-0.078 0.105-0.055 0.242-0.161 0.402-0.321l0.68 0.442 0.238 0.078 0.481 0.359c0.453 0.934 0.718 1.426 0.8 1.481 0.184 0.16 0.719 0.375 1.598 0.64 0.801 0.215 1.469 0.293 2 0.239h0.004z" inkscape:connector-curvature="0"/>
      <path id="path280" style="fill-rule:evenodd;fill:#2e6e08" d="m106.68 41.96 0.242-0.039 0.078 0.039 0.082 0.121-0.402-0.121zm-4.801 7.281c0.242 0.079 0.574 0.239 1 0.481l0.043 0.199c0.211 0.664 0.707 1.133 1.48 1.399-0.054 0.105-0.015 0.242 0.118 0.402 1.148 1.359 2.679 0.957 4.601-1.203 0.691-0.746 1.266-1.414 1.719-2 0.426-0.504 0.64-0.879 0.64-1.117 0.028-0.348 0.243-0.774 0.641-1.282 0.426-0.507 0.668-0.933 0.719-1.281l-0.039-0.16 0.078-0.039c0.32-0.399 0.387-0.852 0.199-1.359-0.211-0.508-0.558-0.84-1.039-1-0.641-0.215-1.184-0.227-1.641-0.04-0.586 0.372-1.023 0.586-1.32 0.637-0.371-0.531-0.691-0.906-0.957-1.117-0.426-0.348-0.973-0.547-1.641-0.602-0.773 0-1.242 0.122-1.402 0.36-0.133 0.16-0.199 0.375-0.199 0.64l-0.317 0.122c-0.347 0.238-0.667 0.574-0.96 1-0.348-0.055-0.735-0.055-1.161 0-0.48 0.078-0.851 0.148-1.121 0.199-0.347 0.027-0.758-0.16-1.238-0.559-0.48-0.48-0.816-0.801-1-0.961-0.187-0.133-0.402-0.199-0.641-0.199-0.214 0-0.386 0.066-0.519 0.199-0.348-0.105-0.613-0.121-0.801-0.039-0.215 0.133-0.387 0.32-0.519 0.559h-0.04c-0.535 0.187-0.8 0.558-0.8 1.121l-0.52 0.558c-0.828-0.16-1.48-0.187-1.961-0.078-0.64 0.16-0.84 0.547-0.601 1.16 0 0.051 0.043 0.106 0.121 0.161l-0.039 0.117c0.078 0.242 0.386 0.402 0.918 0.48l0.402 0.039 0.117 0.082-0.039 0.121c0.055 0.797 0.442 1.227 1.16 1.278 0.348 0.027 0.653 0.027 0.918 0 0.16 0.027 0.387 0.215 0.684 0.562 0.426 0.504 1.156 0.84 2.199 1 0.371 0.051 0.945 0.028 1.719-0.082 0.32 0 0.668 0.082 1.039 0.242z" inkscape:connector-curvature="0"/>
      <path id="path282" style="fill-rule:evenodd;fill:#2e6e08" d="m72.559 20.679-0.118 0.32c-0.027 0.082 0.039 0.16 0.2 0.242 0.132 0.079 0.226 0.118 0.281 0.118l0.199 0.961c0.024 0.132 0.238 0.254 0.641 0.359-0.028 1.07 0.449 1.695 1.437 1.883v0.277c-0.027 0.11 0.082 0.203 0.321 0.281 0.453 0.243 0.64 0.508 0.558 0.801-0.156 0.641-0.238 1.028-0.238 1.16 0 0.16 0.172 0.282 0.519 0.36 0.028 0.215 0.067 0.441 0.118 0.679 0.136 0.481 0.347 0.774 0.644 0.883 0.504 0.238 0.945 0.25 1.317 0.039 0.613-0.293 1.132-0.84 1.562-1.64 0.371-0.746 0.57-1.547 0.598-2.399 0.535-0.16 0.906-0.347 1.121-0.562 0.238-0.184 0.386-0.414 0.441-0.68l0.278-0.238c0.402-0.375 0.562-0.75 0.48-1.121 1.203-0.774 1.629-1.586 1.281-2.442l0.68-1.117 0.559-1.441c0.347-0.879 0.535-1.426 0.562-1.641 0.371-0.293 0.773-0.531 1.199-0.719 0.692 0.559 1.492 0.758 2.399 0.598 0.562-0.133 0.867-0.449 0.922-0.957 0.078-0.801 0.187-1.293 0.32-1.481 0.183-0.293 0.265-0.519 0.238-0.679l0.602-0.082c0.211-0.028 0.531-0.188 0.957-0.481 0.429-0.293 0.656-0.441 0.683-0.441 0.532 0.055 0.852 0.082 0.957 0.082 0.453-0.027 0.735-0.188 0.844-0.481 0.317-0.879 0.106-1.492-0.644-1.839-1.039-0.243-1.797-0.426-2.278-0.559-1.121-0.348-2.707-0.359-4.761-0.043-2.454 0.348-4 0.496-4.641 0.441-0.719-0.027-1.32-0.105-1.797-0.242-0.59-0.289-1.336-0.504-2.242-0.637l-0.598-0.16c-0.187-0.054-0.59-0.054-1.203 0h-0.117c-0.774-0.48-1.68-0.789-2.723-0.922-1.144-0.105-1.984 0.082-2.519 0.563-0.078 0.078-0.465 0.117-1.16 0.117-0.719 0.027-1.145 0.067-1.278 0.121-0.988 0.293-1.617 0.52-1.883 0.68l-0.359 0.121c-0.293-0.133-0.531-0.176-0.719-0.121-0.668 0.215-1.187 0.426-1.562 0.641-0.614-0.133-1.117-0.055-1.52 0.238-0.211 0.16-0.344 0.32-0.398 0.48-0.293 0.082-0.52 0.254-0.68 0.52-0.242 0.453-0.027 1.055 0.641 1.801l0.48 0.441c-0.187 0.32-0.242 0.668-0.16 1.039 0.105 0.563 0.465 0.961 1.078 1.199l-0.558 0.481c-0.321 0.269-0.442 0.601-0.36 1 0.051 0.32 0.238 0.629 0.559 0.922 0.535 0.48 1.359 0.664 2.48 0.558 0.371 0.559 0.961 0.867 1.758 0.918 0.641 0.082 1.176-0.129 1.602-0.637h0.078l0.082 0.04 0.961 0.597c0.371 0.988 1 1.59 1.879 1.801z" inkscape:connector-curvature="0"/>
      <path id="path284" style="fill-rule:evenodd;fill:#2e6e08" d="m53.398 44.519 0.204-0.078c0.16 0.105 0.425 0.187 0.796 0.238 0.43 0.32 0.856 0.535 1.282 0.641 0.242 0.027 0.48 0.027 0.718 0 0.375 0.242 0.817 0.386 1.321 0.441 0.508 0.293 0.894 0.371 1.16 0.238 0.402-0.265 0.387-0.718-0.039-1.359-0.453-0.559-0.695-0.879-0.719-0.961-0.027-0.078-0.066-0.227-0.121-0.438-0.055-0.214-0.105-0.347-0.16-0.402-0.399-0.48-0.961-0.746-1.68-0.801-0.238-0.371-0.812-0.558-1.719-0.558-0.402-0.321-1.027-0.481-1.882-0.481h-0.52c-0.105-0.371-0.277-0.64-0.519-0.8-0.692-0.399-1.122-0.731-1.282-1-0.078-0.106-0.066-0.305 0.043-0.598 0.106-0.348 0.16-0.574 0.16-0.68-0.027-0.187-0.269-0.32-0.722-0.402-0.344-0.106-0.692-0.16-1.039-0.16-0.481 0-0.785 0.121-0.918 0.363-0.188 0.371-0.11 0.824 0.238 1.359 0.105 0.184 0.16 0.414 0.16 0.68 0 0.211 0.094 0.414 0.281 0.598 0.051 0.054 0.2 0.121 0.438 0.203 0.16 0.078 0.254 0.199 0.281 0.359 0.051 0.879 0.188 1.531 0.399 1.957 0.187 0.457 0.746 0.735 1.679 0.844 0.774 0.664 1.496 0.934 2.16 0.797z" inkscape:connector-curvature="0"/>
      <path id="path286" style="fill-rule:evenodd;fill:#2e6e08" d="m53.121 26.96 0.117 0.36-0.199-0.36h0.082zm19.84 5.121c0.426 0 0.559-0.109 0.398-0.32-0.214-0.32-0.531-0.535-0.961-0.641-0.398-0.105-0.796-0.105-1.199 0-0.293-0.132-0.558-0.148-0.801-0.039-0.425-0.215-0.773-0.336-1.039-0.359-0.214-0.188-0.414-0.297-0.597-0.32-0.375-0.11-0.856-0.188-1.442-0.243-0.64-0.05-1.132-0.093-1.48-0.121l-1.039-0.238v-0.039c-0.106-0.641-0.707-1.039-1.801-1.199l0.281-0.082 0.481-0.239 0.117 0.04c1.094 0.32 1.883 0.265 2.359-0.161 0.16 0.055 0.282 0.067 0.364 0.039 0.453-0.05 0.785-0.226 1-0.519l0.238 0.043 0.039 0.039c0.055 0.293 0.348 0.465 0.883 0.519 0.504 0.079 0.73-0.027 0.679-0.32-0.214-0.719-0.839-1.105-1.882-1.16-0.371-0.266-0.825-0.398-1.36-0.398l-0.277 0.078c-0.297-0.348-0.801-0.598-1.524-0.758-0.558-0.109-1.105-0.133-1.636-0.082-0.028 0-0.176-0.211-0.442-0.641-0.293-0.426-0.613-0.679-0.961-0.758-0.691-0.187-1.304-0.16-1.839 0.079l-0.442 0.203c0-0.11-0.105-0.243-0.316-0.403-0.215-0.132-0.684-0.199-1.403-0.199-0.531 0-0.839-0.199-0.918-0.601-0.32-1.438-1.32-2.024-3-1.758-0.535 0.051-0.839 0.414-0.921 1.078-0.028 0.855-0.106 1.469-0.239 1.84l-0.16-0.039c-0.426-0.239-0.707-0.387-0.84-0.438-0.32-0.055-0.679 0.051-1.082 0.317-0.613 0.402-0.812 0.867-0.597 1.402 0.183 0.48 0.57 0.812 1.16 1-0.215 0.266-0.336 0.508-0.364 0.719-0.078 0.691 0.297 1.199 1.122 1.519l0.199 0.399c0.136 0.214 0.375 0.414 0.722 0.601-0.082 0.266-0.109 0.508-0.082 0.719 0.133 0.746 0.746 1.309 1.84 1.68l0.281 0.043c0.293 0.211 0.653 0.386 1.079 0.519 0.054 0.106 0.203 0.211 0.441 0.32 0.238 0.106 0.426 0.161 0.559 0.161 1.066 0.078 1.761 0 2.082-0.243 0.664 0.454 1.492 0.469 2.48 0.039 0.184-0.05 0.332-0.132 0.438-0.238h0.043l0.199 0.078c0.851 0.27 1.707 0.242 2.558-0.078h0.039c1.016 0.188 1.696 0.145 2.043-0.121l0.2-0.277 0.039-0.121 1.082 0.32c0.769 0.211 1.371 0.211 1.797 0l0.363-0.281c0.797 0 1.344-0.145 1.637-0.442 0.242 0 0.414-0.027 0.519-0.078l0.043-0.039c0.32 0.133 0.598 0.199 0.84 0.199z" inkscape:connector-curvature="0"/>
      <path id="path288" style="fill-rule:evenodd;fill:#2a6307" d="m110.28 24.999c-0.269 0.375-0.347 0.801-0.242 1.282l-0.04 0.039-0.68 0.242c-0.215 0.133-0.386 0.332-0.519 0.597-0.668-0.32-1.293-0.398-1.879-0.238-0.617 0.184-0.961 0.613-1.043 1.281-1.199-0.453-2.172-0.468-2.918-0.043 1.039-0.05 2.027 0.254 2.961 0.922l0.277-0.48c0.293-0.32 0.735-0.481 1.321-0.481 0.933 0 1.96 0.254 3.082 0.758l-0.364-0.277c-0.023-0.188 0.442-0.254 1.403-0.203 0.984 0.054 1.812 0.386 2.48 1 0.348 0.297 0.586 0.59 0.719 0.883l0.48-0.52c0.453-0.32 0.989-0.402 1.602-0.242 0.984 0.265 1.558 0.586 1.719 0.961 0.984 0.398 1.414 0.972 1.281 1.719l-0.199 1.121 0.355 0.199c0.27 0.265 0.414 0.719 0.442 1.359v0.082c0.214-0.426 0.695-0.894 1.441-1.402 0.746-0.504 1.266-1.012 1.559-1.52 0.054-0.132-0.106-0.293-0.481-0.48l0.199-0.32-0.199-0.2c0.27-0.265 0.469-0.597 0.602-1v-0.039c0.8-0.453 1.226-0.879 1.281-1.281 0.051-0.371 0.211-0.824 0.48-1.359 0.293-0.614 0.477-1.051 0.559-1.321 0.398-1.332 0.961-2.41 1.68-3.238 0.265-0.32 0.425-0.559 0.48-0.719 0.082-0.215 0.055-0.492-0.082-0.84-0.16-0.375-0.504-0.562-1.039-0.562-1.145-1.039-2.078-1.664-2.801-1.879-0.211-0.641-0.586-1.051-1.117-1.238-0.375-0.137-0.973-0.176-1.801-0.121-0.402-0.453-0.758-0.762-1.082-0.922-0.344-0.184-0.758-0.25-1.238-0.199-0.32-0.508-0.762-0.825-1.32-0.957l-0.36-0.043c-0.187-0.161-0.453-0.239-0.801-0.239-0.64 0.051-1.093 0.227-1.359 0.52-0.215 0.238-0.266 0.547-0.16 0.918l-0.078 0.242c-0.695 0.316-0.988 0.68-0.883 1.078 0.215 0.613 0.523 1.11 0.922 1.481-0.399 0.214-0.695 0.492-0.883 0.839-0.824 0.028-1.465 0.243-1.918 0.641-0.508 0.481-0.668 1.149-0.48 2l0.398 1.199c-0.184 0.028-0.383 0.121-0.598 0.282-0.507 0.16-0.894 0.398-1.16 0.718z" inkscape:connector-curvature="0"/>
      <path id="path290" style="fill-rule:evenodd;fill:#408000" d="m112.96 21.601c-0.453 0.133-0.707 0.426-0.762 0.879-0.051 0.48 0.199 0.867 0.762 1.16h0.039l-0.238 0.48c-0.375 0.243-0.617 0.536-0.723 0.879-0.16 0.43-0.117 0.895 0.121 1.403 0.266 0.531 0.625 0.773 1.078 0.718 0.137 0.536 0.469 0.907 1 1.121 0.508 0.184 1.043 0.211 1.602 0.079 0.16 0.269 0.398 0.453 0.719 0.558 0.347 0.11 0.882 0.16 1.601 0.16h0.039c0.11 0.403 0.36 0.602 0.762 0.602 0.426 0 0.851-0.133 1.277-0.399 0.137-0.109 0.227-0.226 0.282-0.363 0.109 0.27 0.32 0.524 0.64 0.762 0.453 0.32 0.918 0.32 1.402 0 0.426-0.293 0.719-0.734 0.879-1.32-0.773-0.051-1.332-0.426-1.679-1.118-0.641 0.051-1.149-0.136-1.52-0.562-0.586-0.586-0.75-1.277-0.48-2.078-0.535-0.535-0.723-1.16-0.563-1.883v-0.039c-0.824-0.32-1.238-0.891-1.238-1.719-0.535 0.106-0.934 0.465-1.199 1.078-0.16 0.055-0.293 0.176-0.403 0.364h-0.078c-0.16-0.243-0.336-0.414-0.519-0.524-0.293-0.211-0.586-0.183-0.883 0.082-0.184-0.16-0.465-0.254-0.84-0.281l-0.238 0.043-0.199-0.082c-0.215-0.082-0.43-0.082-0.641 0z" inkscape:connector-curvature="0"/>
      <path id="path292" style="fill-rule:evenodd;fill:#408000" d="m98.039 33.441c0.293-0.16 0.426-0.403 0.402-0.719-0.027-0.297-0.16-0.523-0.402-0.684-0.16-0.453-0.426-0.652-0.801-0.597-0.183 0-0.343 0.039-0.476 0.121l-0.043-0.043-0.16-0.078c-0.184-0.082-0.426-0.149-0.719-0.2h-0.16c-0.106-0.242-0.282-0.402-0.52-0.48-0.293-0.105-0.574-0.082-0.84 0.078-0.425 0-0.812 0.094-1.16 0.281-0.105-0.347-0.348-0.507-0.719-0.48-0.375 0.055-0.668 0.148-0.879 0.281l-0.281-0.043c-0.215-0.051-0.441-0.012-0.679 0.121-0.348-0.265-0.707-0.359-1.082-0.277-0.184 0.023-0.348 0.133-0.481 0.316-0.238 0-0.492 0.11-0.758 0.321-0.242-0.239-0.519-0.293-0.84-0.16l-0.043-0.04c-0.132-0.187-0.386-0.253-0.757-0.199l-0.2-0.039c-0.16 0-0.293 0.051-0.402 0.16l-0.199-0.043c-0.508 0-0.762 0.27-0.762 0.801 0 0.535 0.254 0.801 0.762 0.801 0.133 0 0.281-0.055 0.441-0.16l0.16 0.039h0.079c0.375 0.293 0.8 0.375 1.281 0.242 0.054 0.453 0.308 0.68 0.761 0.68h0.079l0.281-0.082c0.453 0.16 0.851 0.109 1.199-0.16 0.188-0.133 0.254-0.344 0.199-0.637 0.133-0.028 0.242-0.11 0.321-0.242l0.199 0.082 0.683 0.078 0.719 0.761c0.719 0.344 1.332 0.438 1.84 0.278l0.199-0.16 0.281 0.043c0.348 0.211 0.653 0.183 0.918-0.082 0.11 0.265 0.321 0.425 0.641 0.48 0.293 0.027 0.535-0.078 0.719-0.32 0.348 0.187 0.746 0.176 1.199-0.039z" inkscape:connector-curvature="0"/>
      <path id="path294" style="fill-rule:evenodd;fill:#408000" d="m105.4 51.241c0.348-0.109 0.75-0.16 1.204-0.16 0.503 0 0.718-0.027 0.636-0.082-0.16-0.105-0.199-0.199-0.117-0.277 0.188-0.16 0.359-0.469 0.52-0.922l1-1.199c0.214-0.215 0.281-0.387 0.199-0.52-0.188-0.242-0.36-0.496-0.52-0.761-0.187-0.321-0.398-0.454-0.64-0.399-0.293 0.184-0.586 0.305-0.879 0.36-0.348 0.054-0.442-0.028-0.281-0.243 0.265-0.398 0.402-0.613 0.402-0.636 0.051-0.27 0.012-0.481-0.121-0.641-0.215-0.266-0.68-0.52-1.403-0.762-0.664-0.211-1.039-0.121-1.117 0.282l0.039 0.64c-0.187-0.347-0.746-0.629-1.679-0.84-0.586-0.16-0.95-0.109-1.082 0.16l-0.039 0.438c-0.266-0.453-0.84-0.707-1.719-0.758-0.563-0.027-0.906 0.078-1.039 0.32l-0.043 0.36c-0.399-0.481-0.907-0.813-1.52-1-0.426-0.133-0.734-0.121-0.918 0.039-0.054 0.055-0.176 0.215-0.359 0.48-0.082 0.133-0.242 0.145-0.481 0.039-0.613-0.293-0.949-0.453-1-0.48-0.613-0.238-1.226-0.145-1.839 0.281l0.078 0.281c0 0.051 0.043 0.106 0.121 0.161l-0.039 0.117c0.078 0.242 0.383 0.402 0.918 0.48l0.398 0.039 0.121 0.082-0.039 0.121c0.051 0.797 0.438 1.227 1.16 1.278 0.344 0.027 0.653 0.027 0.918 0 0.16 0.027 0.387 0.215 0.68 0.562 0.426 0.504 1.16 0.84 2.203 1 0.371 0.051 0.945 0.028 1.719-0.082 0.32 0 0.664 0.082 1.039 0.242 0.242 0.079 0.574 0.239 1 0.481l0.039 0.199c0.215 0.664 0.707 1.133 1.48 1.399-0.05 0.054-0.05 0.121 0 0.199 0.266-0.024 0.602-0.117 1-0.278z" inkscape:connector-curvature="0"/>
      <path id="path296" style="fill-rule:evenodd;fill:#408000" d="m72.559 20.679-0.118 0.32c-0.027 0.082 0.039 0.16 0.2 0.242 0.132 0.079 0.226 0.118 0.281 0.118l0.199 0.961c0.024 0.132 0.238 0.254 0.641 0.359-0.028 1.07 0.449 1.695 1.437 1.883v0.277c-0.027 0.11 0.082 0.203 0.321 0.281 0.453 0.243 0.64 0.508 0.558 0.801-0.156 0.641-0.238 1.028-0.238 1.16 0 0.16 0.172 0.282 0.519 0.36 0.028 0.215 0.067 0.441 0.118 0.679 0.136 0.481 0.347 0.774 0.644 0.883 0.504 0.238 0.945 0.25 1.317 0.039 0.613-0.293 1.132-0.84 1.562-1.64 0.371-0.746 0.57-1.547 0.598-2.399 0.535-0.16 0.906-0.347 1.121-0.562 0.238-0.184 0.386-0.414 0.441-0.68l0.278-0.238c0.402-0.375 0.562-0.75 0.48-1.121 1.203-0.774 1.629-1.586 1.281-2.442l0.68-1.117 0.48-1.16-0.039-0.359c0.215-0.43 0.172-0.895-0.121-1.403-0.32-0.48-0.812 0.082-1.48 1.68 0.347-1.465 0.215-2.36-0.399-2.68-0.375-0.187-0.64 0.227-0.8 1.242l-0.122 1.559-0.476-0.121c-0.188-0.051-0.43 0.305-0.723 1.082l-0.398 1.199c0.027-0.32-0.176-0.773-0.602-1.359-0.293-0.348-0.785-0.387-1.48-0.121l-1 0.48 0.16-0.441c0.109-0.399 0.121-0.879 0.043-1.438-0.11-0.695-0.231-1.043-0.363-1.043 0.32-0.211 0.48-0.691 0.48-1.437 0-0.801-0.332-1.27-1-1.403 0.055-0.558-0.293-1.238-1.039-2.039-0.48-0.507-0.879-0.668-1.199-0.48l-0.36 0.398c0-0.531-0.308-0.933-0.921-1.199-0.375-0.16-0.68-0.105-0.918 0.16l-0.204 0.442c-0.105-0.188-0.839-0.387-2.199-0.602-0.851-0.133-1.437 0.039-1.758 0.52l-0.242 0.757c-0.32-0.371-0.906-0.664-1.758-0.878-0.507-0.133-0.921 0.015-1.242 0.441l-0.277 0.68c-0.215-0.161-0.817-0.375-1.801-0.641-0.586-0.188-0.976-0.039-1.16 0.441 0.051 0.321 0.293 0.719 0.719 1.2l0.48 0.441c-0.187 0.316-0.238 0.664-0.16 1.039 0.105 0.559 0.465 0.961 1.078 1.199l-0.558 0.481c-0.321 0.269-0.442 0.601-0.36 1 0.051 0.32 0.238 0.625 0.559 0.922 0.535 0.476 1.359 0.664 2.48 0.558 0.375 0.559 0.961 0.867 1.762 0.918 0.641 0.082 1.172-0.133 1.598-0.64h0.082l0.078 0.043 0.961 0.597c0.375 0.988 1 1.59 1.879 1.801z" inkscape:connector-curvature="0"/>
      <path id="path298" style="fill-rule:evenodd;fill:#408000" d="m89.32 15.999c0.481 0.082 0.852-0.144 1.118-0.679-0.079-0.215-0.227-0.426-0.438-0.641-0.16-0.16-0.293-0.238-0.402-0.238l-0.16 0.039-0.2-0.68c-0.133-0.453-0.304-0.746-0.519-0.883 0.453-0.613 0.586-1.144 0.402-1.597-0.187-0.426-0.496-0.332-0.922 0.281-0.105-0.32-0.398-0.563-0.879-0.723-0.293-0.105-0.468-0.012-0.519 0.281v0.52c-0.188-0.266-0.629-0.211-1.321 0.16-0.425 0.242-0.359 0.508 0.2 0.801 0.265 0.133 0.574 0.254 0.922 0.359l-0.602 0.52c-0.238 0.242-0.199 0.535 0.121 0.883 0.184 0.187 0.387 0.347 0.598 0.48l0.16 0.281c0.133 0.239 0.348 0.426 0.641 0.559 0.453 0.238 0.785 0.199 1-0.121l0.121 0.16c0.16 0.105 0.382 0.188 0.679 0.238z" inkscape:connector-curvature="0"/>
      <path id="path300" style="fill-rule:evenodd;fill:#408000" d="m65.199 33.038c0.641 0.028 1.149-0.093 1.52-0.359 0.586-0.426 0.281-0.492-0.918-0.199 0-0.239-0.321-0.492-0.961-0.758-0.371-0.16-0.695-0.148-0.961 0.039l-0.277 0.359c0-0.214-0.27-0.32-0.801-0.32-0.321 0-0.574-0.027-0.762-0.078l-0.199-0.043c0.265-0.586 0.187-1.039-0.238-1.359-0.297-0.188-0.79-0.227-1.481-0.121l-1 0.203 0.238-0.364c0.133-0.316 0.161-0.664 0.082-1.039-0.136-0.586-0.468-0.625-1-0.121 0.266-0.719 0.051-1.183-0.64-1.398-0.453-0.16-0.723-0.094-0.801 0.199l0.039 0.441c-0.078-0.425-0.453-0.839-1.117-1.242-0.43-0.238-0.723-0.129-0.883 0.321l-0.117 0.8c-0.27-0.453-0.707-0.679-1.32-0.679-0.403 0-0.536 0.32-0.403 0.961l0.321 1-0.801-0.602c-0.321-0.238-0.574-0.32-0.758-0.238l-0.16 0.238c-0.242 0.027-0.36 0.176-0.36 0.441 0 0.161 0.184 0.348 0.559 0.559 0.16 0.082 0.332 0.16 0.52 0.242l-0.2 0.36c-0.16 0.238-0.215 0.546-0.16 0.918 0.051 0.48 0.305 0.789 0.762 0.921 0.398 0.133 0.598 0.133 0.598 0l0.601 0.758c0.211 0.266 0.574 0.309 1.078 0.121l0.36 0.36c0.347 0.265 0.773 0.507 1.281 0.718 0.535 0.188 0.922 0.094 1.16-0.277 0.133-0.187 0.199-0.387 0.199-0.601l0.641 0.242c0.508 0.183 0.972 0.277 1.398 0.277 0.723 0 1.242-0.238 1.563-0.719l0.32 0.16c0.293 0.133 0.652 0.215 1.078 0.239 0.668 0.054 1.055-0.106 1.16-0.477l0.84 0.117z" inkscape:connector-curvature="0"/>
      <path id="path302" style="fill-rule:evenodd;fill:#408000" d="m65.641 28.519c0.64-0.024 0.839-0.156 0.597-0.399 0.375-0.558 0.297-0.894-0.238-1-0.32-0.054-0.613-0.015-0.879 0.121l-0.32 0.239c-0.133-0.266-0.426-0.492-0.879-0.68-0.297-0.105-0.563-0.121-0.801-0.039l-0.32 0.16c-0.133-0.215-0.52-0.453-1.16-0.722-0.375-0.161-0.641-0.184-0.801-0.079l-0.121 0.2c-0.453-0.399-0.918-0.547-1.399-0.442-0.293 0.055-0.32 0.176-0.082 0.363 0.137 0.106 0.297 0.2 0.481 0.278 0 0.055 0.015 0.137 0.043 0.242 0.05 0.215 0.133 0.426 0.238 0.641 0.105 0.187 0.387 0.304 0.84 0.359 0.238 0.027 0.465 0.039 0.68 0.039l0.558 0.32c0.453 0.215 0.856 0.332 1.203 0.36 0.293 0.027 0.614-0.039 0.957-0.199l0.364 0.16c0.32 0.078 0.664 0.105 1.039 0.078z" inkscape:connector-curvature="0"/>
      <path id="path304" style="fill-rule:evenodd;fill:#408000" d="m53.32 44.999c0.586 0.082 0.825-0.011 0.719-0.277l0.199 0.238c0.188 0.215 0.442 0.426 0.762 0.641 0.48 0.344 0.895 0.277 1.238-0.199l0.762 0.078c0.375 0.027 0.652-0.051 0.84-0.239 0.187-0.187 0.187-0.429 0-0.722-0.258-0.387-0.746-0.434-1.461-0.141 0.469-0.207 0.41-0.426-0.18-0.656-0.398-0.137-0.812-0.16-1.238-0.082l-0.52 0.16c0.532-0.348 0.532-0.68 0-1-0.32-0.215-0.746-0.281-1.281-0.199l-0.719 0.199c0.133-0.266-0.066-0.559-0.601-0.879-0.32-0.187-0.613-0.281-0.879-0.281l-0.32 0.082c-0.028-0.27-0.161-0.602-0.403-1-0.211-0.402-0.476-0.469-0.797-0.203-0.402-0.613-0.746-0.758-1.043-0.438-0.183 0.16-0.117 0.465 0.204 0.918 0.371 0.481 0.543 0.774 0.519 0.879-0.055 0.215 0.024 0.524 0.238 0.922 0.188 0.426 0.442 0.801 0.762 1.121 0.426 0.426 0.852 0.613 1.277 0.559 0.215 0 0.387-0.051 0.524-0.16l0.359 0.281c0.321 0.211 0.664 0.344 1.039 0.398z" inkscape:connector-curvature="0"/>
      <path id="path306" style="fill-rule:evenodd;fill:#5b9400" d="m75.719 22.921v0.481c0 0.238 0.082 0.371 0.242 0.398 0.105 0.055 0.426 0.078 0.961 0.078 0.586 0 0.492-0.289-0.281-0.879l0.679 0.121c0.348 0.082 0.625-0.027 0.84-0.32 0.215-0.266 0.172-0.492-0.121-0.68l-1-0.398c0.055-0.402-0.211-0.734-0.801-1-0.343-0.16-0.504-0.336-0.476-0.52 0.023-0.082 0.078-0.148 0.16-0.203l0.117-0.277c0.082-0.242 0.082-0.52 0-0.844-0.078-0.531-0.348-0.797-0.801-0.797 0.321-0.402 0.254-0.933-0.199-1.601-0.266-0.426-0.48-0.481-0.641-0.16l-0.16 0.558c-0.078-0.851-0.359-1.304-0.84-1.359-0.32-0.024-0.414 0.293-0.277 0.961l0.317 1c-0.426 0.16-0.704 0.535-0.84 1.121-0.078 0.371 0.175 0.73 0.761 1.078 0.293 0.187 0.586 0.336 0.879 0.441l-0.718 0.2c-0.293 0.082-0.133 0.308 0.48 0.679 0.293 0.188 0.625 0.364 1 0.52-0.32 0-0.656 0.16-1 0.48-0.242 0.188-0.027 0.403 0.641 0.641 0.347 0.109 0.707 0.199 1.078 0.281z" inkscape:connector-curvature="0"/>
      <path id="path308" style="fill-rule:evenodd;fill:#5b9400" d="m73.441 14.921c0.348-0.242 0.438-0.48 0.278-0.719-0.211-0.347-0.504-0.347-0.879 0l-0.199-0.882c-0.133-0.399-0.469-0.571-1-0.52-0.082-0.48-0.387-0.812-0.922-1-0.321-0.105-0.453-0.051-0.399 0.16l0.2 0.36c-0.321-0.161-0.68-0.094-1.079 0.199-0.242 0.187-0.226 0.414 0.039 0.683 0.161 0.133 0.332 0.239 0.52 0.317 0.027 0.187-0.133 0.387-0.48 0.601-0.293 0.188-0.254 0.454 0.121 0.801 0.347 0.348 0.773 0.465 1.281 0.36l0.039 0.359c0.105 0.215 0.32 0.266 0.641 0.16 0.476-0.187 0.679-0.559 0.597-1.121l0.403 0.32c0.21 0.16 0.492 0.133 0.839-0.078z" inkscape:connector-curvature="0"/>
      <path id="path310" style="fill-rule:evenodd;fill:#5b9400" d="m72.922 21.359-0.203-1.16c-0.453-0.266-0.918-0.692-1.399-1.278-0.293-0.347-0.441-0.68-0.441-1 0.027-0.187 0.066-0.32 0.121-0.402-0.32 0-0.734-0.145-1.238-0.438-0.321-0.16-0.657-0.48-1-0.961l-0.442-0.64v0.601c0 0.239 0.133 0.532 0.399 0.879 0.136 0.16 0.269 0.309 0.402 0.442-0.48 0.132-1.043 0.132-1.68 0l-1.043-0.203c-0.105-0.024-0.226-0.094-0.359-0.2-0.238-0.211-0.437-0.508-0.598-0.879-0.214-0.558-0.148-1 0.2-1.32-0.536-0.133-1-0.398-1.403-0.801-0.238-0.238-0.371-0.613-0.398-1.121 0-0.265 0.027-0.492 0.082-0.679l-0.922-0.321c-0.398-0.129-0.734-0.41-1-0.84l-0.039 0.082c0.051 0.321 0.293 0.719 0.719 1.2l0.48 0.441c-0.187 0.32-0.238 0.668-0.16 1.039 0.105 0.563 0.465 0.961 1.078 1.199l-0.558 0.481c-0.321 0.269-0.442 0.601-0.36 1 0.051 0.32 0.238 0.629 0.559 0.922 0.535 0.48 1.359 0.664 2.48 0.558 0.375 0.559 0.961 0.867 1.762 0.918 0.641 0.082 1.172-0.129 1.598-0.637h0.082l0.078 0.04 0.961 0.597c0.375 0.988 1 1.59 1.879 1.801l-0.118 0.32c-0.027 0.082 0.039 0.16 0.2 0.242 0.132 0.079 0.226 0.118 0.281 0.118z" inkscape:connector-curvature="0"/>
      <path id="path312" style="fill-rule:evenodd;fill:#5b9400" d="m77.238 26.601c-0.211-0.641-0.25-0.961-0.117-0.961l-0.68-0.238c-0.293-0.11-0.453-0.297-0.48-0.563-0.027-0.133-0.016-0.25 0.039-0.359-0.188 0-0.52-0.16-1-0.481-0.32-0.211-0.586-0.519-0.801-0.918l-0.199-0.562-0.359 0.121 0.121 0.039c-0.028 1.07 0.449 1.695 1.437 1.883v0.277c-0.027 0.11 0.082 0.203 0.321 0.281 0.453 0.243 0.64 0.508 0.558 0.801-0.156 0.641-0.238 1.028-0.238 1.16 0 0.16 0.172 0.282 0.519 0.36 0.028 0.215 0.067 0.441 0.118 0.679 0.136 0.481 0.347 0.774 0.644 0.883 0.504 0.238 0.945 0.25 1.317 0.039 0.082-0.027 0.226-0.109 0.441-0.242-0.188-0.078-0.348-0.211-0.481-0.398l-0.16-0.282c-0.105-0.05-0.226-0.16-0.359-0.32-0.266-0.293-0.481-0.695-0.641-1.199z" inkscape:connector-curvature="0"/>
      <path id="path314" style="fill-rule:evenodd;fill:#5b9400" d="m59.922 32.281c0.105 0.16 0.199 0.304 0.277 0.441-0.531 0-1.265-0.27-2.199-0.801-0.586-0.347-0.855-0.68-0.801-1 0.028-0.16 0.106-0.293 0.242-0.402l-1.441-0.039c-0.453-0.028-0.785-0.254-1-0.68l-0.16-0.601c0 0.32 0.121 0.746 0.359 1.281 0.133 0.32 0.387 0.574 0.762 0.761 0.16 0.079 0.32 0.133 0.48 0.161l0.278 0.597c0.109 0.242 0.32 0.496 0.64 0.762 0.161 0.133 0.309 0.238 0.442 0.32l-0.563 0.039c-0.211 0.028-0.476 0-0.797-0.082l-0.441-0.16c-0.188 0-0.613-0.133-1.281-0.398-0.426-0.16-0.641-0.399-0.641-0.719 0-0.16 0.043-0.309 0.121-0.441-0.133 0-0.265-0.028-0.398-0.079-0.293-0.054-0.481-0.16-0.563-0.32-0.078-0.133-0.133-0.426-0.16-0.883-0.023-0.238-0.039-0.453-0.039-0.636h-0.598c-0.187 0-0.519-0.11-1-0.321v0.039c0 0.161 0.184 0.348 0.559 0.559 0.16 0.082 0.332 0.16 0.52 0.242l-0.2 0.36c-0.16 0.238-0.215 0.546-0.16 0.918 0.051 0.48 0.305 0.789 0.762 0.921 0.398 0.133 0.598 0.133 0.598 0l0.601 0.758c0.211 0.27 0.574 0.309 1.078 0.121l0.36 0.36c0.347 0.269 0.773 0.507 1.281 0.722 0.535 0.184 0.922 0.094 1.16-0.281 0.133-0.187 0.199-0.387 0.199-0.601l0.641 0.242c0.508 0.187 0.972 0.281 1.398 0.281 0.59 0 1.11-0.227 1.563-0.684-0.106-0.211-0.082-0.359 0.078-0.437 0.105-0.051 0.211-0.078 0.32-0.082-0.246 0-0.605-0.067-1.078-0.199-0.293-0.079-0.629-0.282-1-0.598l-0.48-0.441v0.32c0 0.133 0.093 0.359 0.281 0.68z" inkscape:connector-curvature="0"/>
      <path id="path316" style="fill-rule:evenodd;fill:#5b9400" d="m55.801 44.999c-0.403-0.054-0.746-0.265-1.039-0.64l-0.321-0.559-0.32 0.481c-0.453 0.078-0.922 0.054-1.402-0.082-0.293-0.079-0.574-0.278-0.84-0.598l-0.277-0.481 0.117 0.961c-0.344-0.054-0.785-0.347-1.321-0.882-0.32-0.344-0.519-0.786-0.597-1.321-0.028-0.265-0.028-0.492 0-0.679l-0.641-0.278c-0.187-0.082-0.48-0.281-0.879-0.601 0.024 0.187 0.172 0.468 0.438 0.839 0.293 0.375 0.426 0.614 0.402 0.719-0.055 0.215 0.024 0.524 0.238 0.922 0.188 0.426 0.442 0.801 0.762 1.121 0.426 0.426 0.852 0.613 1.277 0.559 0.215 0 0.387-0.051 0.524-0.16l0.359 0.281c0.321 0.211 0.664 0.344 1.039 0.398 0.586 0.082 0.825-0.011 0.719-0.277l0.199 0.238c0.188 0.215 0.442 0.426 0.762 0.641 0.48 0.344 0.895 0.277 1.238-0.199l0.602 0.039-0.121-0.321-0.918-0.121z" inkscape:connector-curvature="0"/>
      <path id="path318" style="fill-rule:evenodd;fill:#5b9400" d="m117.92 28.402c0.476 0 0.586-0.243 0.316-0.723l0.2 0.242c0.187 0.16 0.453 0.281 0.8 0.36 0.586 0.132 0.989 0.011 1.2-0.36l0.683 0.078c0.481-0.027 0.746-0.199 0.801-0.519 0.078-0.531-0.457-0.692-1.602-0.481l-0.199-0.359c-0.16-0.348-0.269-0.734-0.32-1.16-0.11-0.719-0.508-0.68-1.199 0.121 0.023-0.32-0.293-0.746-0.961-1.281-0.426-0.348-0.774-0.332-1.039 0.039l-0.282 0.64c-0.082-0.531-0.453-0.8-1.121-0.8-0.426 0-0.597 0.132-0.519 0.402l0.242 0.398c-0.348-0.211-0.684-0.144-1 0.2-0.188 0.214 0 0.496 0.558 0.839 0.293 0.188 0.598 0.348 0.918 0.481l-0.4 0.281c-0.238 0.16-0.172 0.402 0.199 0.719 0.426 0.32 1.067 0.48 1.922 0.48l0.117 0.203c0.16 0.129 0.387 0.2 0.68 0.2h0.004z" inkscape:connector-curvature="0"/>
      <path id="path320" style="fill-rule:evenodd;fill:#2a6307" d="m105.08 41.519c-0.133 0.16-0.199 0.375-0.199 0.64l-0.317 0.122c-0.269 0.16-0.523 0.414-0.761 0.757 0.668 0.082 1.133 0.297 1.398 0.641l0.242 0.402 0.239-0.16c0.242-0.109 0.586-0.121 1.043-0.043 0.746 0.082 1.172 0.231 1.277 0.442l0.523-0.321c0.426-0.16 0.825-0.066 1.2 0.282 0.613 0.531 0.785 1.148 0.519 1.839 0.586 0.133 0.879 0.465 0.879 1 0 0.321-0.148 0.692-0.441 1.121l-0.481 0.559-0.039 0.559 0.68-0.84c0.426-0.504 0.64-0.879 0.64-1.117 0.028-0.348 0.243-0.774 0.641-1.282 0.426-0.507 0.668-0.933 0.719-1.281l-0.039-0.16 0.078-0.039c0.32-0.399 0.387-0.852 0.203-1.359-0.215-0.508-0.559-0.84-1.043-1-0.637-0.215-1.184-0.227-1.637-0.04-0.59 0.372-1.027 0.586-1.32 0.637-0.375-0.531-0.695-0.906-0.961-1.117-0.426-0.348-0.973-0.547-1.641-0.602-0.773 0-1.242 0.122-1.402 0.36z" inkscape:connector-curvature="0"/>
    </g>
  </g>
<metadata><rdf:RDF><cc:Work><dc:format>image/svg+xml</dc:format><dc:type rdf:resource="http://purl.org/dc/dcmitype/StillImage"/><cc:license rdf:resource="http://creativecommons.org/licenses/publicdomain/"/><dc:publisher><cc:Agent rdf:about="http://openclipart.org/"><dc:title>Openclipart</dc:title></cc:Agent></dc:publisher></cc:Work><cc:License rdf:about="http://creativecommons.org/licenses/publicdomain/"><cc:permits rdf:resource="http://creativecommons.org/ns#Reproduction"/><cc:permits rdf:resource="http://creativecommons.org/ns#Distribution"/><cc:permits rdf:resource="http://creativecommons.org/ns#DerivativeWorks"/></cc:License></rdf:RDF></metadata></svg>
