<?xml version="1.0" encoding="UTF-8" standalone="no"?>
<!-- Created with Inkscape (http://www.inkscape.org/) -->

<svg
   version="1.1"
   id="svg1043"
   width="800"
   height="800"
   viewBox="0 0 800 800"
   sodipodi:docname="boulders-grass-publicdomainvectors.org.svg"
   inkscape:version="1.2 (dc2aedaf03, 2022-05-15)"
   xmlns:inkscape="http://www.inkscape.org/namespaces/inkscape"
   xmlns:sodipodi="http://sodipodi.sourceforge.net/DTD/sodipodi-0.dtd"
   xmlns="http://www.w3.org/2000/svg"
   xmlns:svg="http://www.w3.org/2000/svg">
  <defs
     id="defs1047">
    <clipPath
       clipPathUnits="userSpaceOnUse"
       id="clipPath1059">
      <path
         d="M 0,600 H 600 V 0 H 0 Z"
         id="path1057" />
    </clipPath>
  </defs>
  <sodipodi:namedview
     id="namedview1045"
     pagecolor="#ffffff"
     bordercolor="#000000"
     borderopacity="0.25"
     inkscape:showpageshadow="2"
     inkscape:pageopacity="0.0"
     inkscape:pagecheckerboard="0"
     inkscape:deskcolor="#d1d1d1"
     showgrid="false"
     inkscape:zoom="1.04625"
     inkscape:cx="399.5221"
     inkscape:cy="400.4779"
     inkscape:window-width="1920"
     inkscape:window-height="1017"
     inkscape:window-x="-8"
     inkscape:window-y="-8"
     inkscape:window-maximized="1"
     inkscape:current-layer="g1051">
    <inkscape:page
       x="0"
       y="0"
       id="page1049"
       width="800"
       height="800" />
  </sodipodi:namedview>
  <g
     id="g1051"
     inkscape:groupmode="layer"
     inkscape:label="Page 1"
     transform="matrix(1.3333333,0,0,-1.3333333,0,800)">
    <g
       id="g1053">
      <g
         id="g1055"
         clip-path="url(#clipPath1059)">
        <g
           id="g1061"
           transform="translate(295.1729,169.6152)">
          <path
             d="m 0,0 c 116.432,0 211.393,25.38 211.393,56.498 0,31.121 -94.961,56.501 -211.393,56.501 -116.432,0 -211.394,-25.38 -211.394,-56.501 C -211.394,25.38 -116.432,0 0,0"
             style="fill:#efb84b;fill-opacity:1;fill-rule:evenodd;stroke:none"
             id="path1063" />
        </g>
        <g
           id="g1065"
           transform="translate(457.9453,396.3828)">
          <path
             d="M 0,0 C 12.044,-13.94 25.756,-28.998 25.824,-50.363 25.903,-74.698 0.168,-76.095 -15.211,-75.225 l -1.939,0.11 c -17.572,1.224 -21.689,3.022 -39.621,-2.201 -9.398,-2.74 -16.952,-3.61 -26.606,-3.813 -46.507,0 -84.208,33.397 -84.208,74.593 3.271,43.072 25.301,59.937 55.719,78.151 21.711,13 32.46,12.708 55.266,1.653 9.19,-4.453 14.515,-9.993 21.415,-18.041 C -24.11,41.287 -18.353,22.585 -4.968,5.946 -3.336,3.917 -1.683,1.967 0,0"
             style="fill:#948681;fill-opacity:1;fill-rule:evenodd;stroke:none"
             id="path1067" />
        </g>
        <g
           id="g1069"
           transform="translate(457.9453,396.3828)">
          <path
             d="M 0,0 C 12.044,-13.94 25.756,-28.998 25.824,-50.363 25.903,-74.698 0.168,-76.095 -15.211,-75.225 l -1.939,0.11 c -17.572,1.224 -21.689,3.022 -39.621,-2.201 -3.493,-1.019 -6.73,-1.779 -9.915,-2.341 -3.023,15.497 5.924,36.431 15.503,45.634 19.797,19.014 30.137,17.503 20.873,53.189 -3.989,15.359 -9.722,30.194 -14.051,45.827 3.084,-2.807 5.958,-6.014 9.176,-9.766 C -24.11,41.287 -18.353,22.585 -4.968,5.946 -3.336,3.917 -1.683,1.967 0,0"
             style="fill:#766864;fill-opacity:1;fill-rule:evenodd;stroke:none"
             id="path1071" />
        </g>
        <g
           id="g1073"
           transform="translate(457.9453,396.3828)">
          <path
             d="M 0,0 C 12.044,-13.94 25.756,-28.998 25.824,-50.363 25.903,-74.698 0.168,-76.095 -15.211,-75.225 l -1.939,0.11 c -17.572,1.224 -21.689,3.022 -39.621,-2.201 -1.387,-0.405 -2.734,-0.768 -4.052,-1.094 -4.642,20.202 3.07,33.555 22.531,41.119 9.709,3.455 40.741,8.227 38.777,22.816 -0.892,6.643 -13.268,28.888 -19.291,42.066 3.904,-7.24 8.191,-14.626 13.838,-21.645 C -3.336,3.917 -1.683,1.967 0,0"
             style="fill:#463d3b;fill-opacity:1;fill-rule:evenodd;stroke:none"
             id="path1075" />
        </g>
        <g
           id="g1077"
           transform="translate(230.002,289.2627)">
          <path
             d="m 0,0 c -40.517,0 -73.362,36.601 -73.362,81.75 1.476,36.721 12.421,68.249 43.681,82.202 16.562,7.392 24.491,7.558 40.925,18.709 16.149,10.957 36.258,24.874 54.356,12.388 13.861,-11.05 37.137,-37.95 38.708,-58.229 2.247,-29.024 -27,-45.66 -32.529,-71.954 C 63.392,24.988 35.028,0.951 0,0"
             style="fill:#948681;fill-opacity:1;fill-rule:evenodd;stroke:none"
             id="path1079" />
        </g>
        <g
           id="g1081"
           transform="translate(334.501,460.7939)">
          <path
             d="M 0,0 C 3.697,2.42 7.563,4.8 11.578,7.204 31.058,18.868 41.715,19.83 60.173,11.919 60.411,9.706 60.502,7.422 60.42,5.072 59.723,-14.857 49.008,-10.719 38.163,-3.999 31.357,0.219 27.214,3.105 19.31,3.569 14.725,3.43 7.187,1.452 0,0 m -130.066,-5.812 c 13.882,5.735 21.799,6.755 36.811,16.941 16.148,10.958 36.258,24.875 54.356,12.389 2.246,-1.79 4.739,-3.999 7.347,-6.526 -2.462,-0.448 -5.376,-0.617 -8.749,-0.468 -30.955,1.369 -25.129,0.125 -37.869,-31.16 -8.116,-19.443 -14.888,-0.316 -27.765,6.205 l -3.338,1.475 c -5.406,1.828 -9.579,1.973 -15.138,1.838 -1.609,-0.107 -3.524,-0.362 -5.655,-0.694"
             style="fill:#b2a29e;fill-opacity:1;fill-rule:evenodd;stroke:none"
             id="path1083" />
        </g>
        <g
           id="g1085"
           transform="translate(166.8848,329.3311)">
          <path
             d="M 0,0 C -5.149,9.66 -8.56,20.604 -9.761,32.296 0.188,49.52 34.231,45.432 48.031,40.667 66.24,34.38 78.753,26.064 89.648,52.191 c 3.079,7.382 5.174,17.657 8.139,26.006 10.817,24.418 44.487,22.372 51.417,42.909 1.992,5.9 0.16,11.546 -3.434,16.973 10.675,-12.536 20.645,-28.297 21.655,-41.328 2.247,-29.023 -27,-45.659 -32.529,-71.953 -4.467,-21.24 -14.602,-37.986 -28.392,-49.143 -18.917,0.562 -29.258,4.695 -52.516,14.203 C 34.468,-2.161 23.889,-5.07 5.676,-1.664 3.66,-1.287 1.758,-0.736 0,0"
             style="fill:#766864;fill-opacity:1;fill-rule:evenodd;stroke:none"
             id="path1087" />
        </g>
        <g
           id="g1089"
           transform="translate(182.667,308.5615)">
          <path
             d="m 0,0 c -12.481,11.758 -21.387,28.077 -24.652,46.649 1.464,0.859 3.11,1.583 4.962,2.135 23.167,6.474 36.66,5.155 59.476,-0.933 48.911,-12.561 41.903,19.292 61.62,55.571 13.112,24.124 24.27,20.641 44.497,19.899 1.782,-0.066 3.347,-0.005 4.724,0.161 0.518,-2.033 0.866,-4.027 1.016,-5.961 2.247,-29.023 -27,-45.66 -32.529,-71.954 C 113.119,17.064 96.917,-3.344 75.371,-13.015 68.461,-10.303 60.531,-7.067 49.664,-3.39 27.047,3.919 20.808,1.858 0,0"
             style="fill:#463d3b;fill-opacity:1;fill-rule:evenodd;stroke:none"
             id="path1091" />
        </g>
        <g
           id="g1093"
           transform="translate(405.707,319.2842)">
          <path
             d="m 0,0 c 1.657,11.188 8.323,24.875 15.641,27.358 15.328,5.201 11.235,7.166 30.872,8.646 16.219,1.223 16.781,10.063 41.002,0.991 10.472,-3.922 8.766,-10.146 25.515,-18.651 29.617,-15.038 50.719,-112.48 18.507,-117.335 -49.57,-7.47 -95.937,16.979 -148.047,4.914 -14.738,-3.412 -17.508,36.181 -12.136,52.481 C -21.607,-20.249 -2.732,-18.456 0,0"
             style="fill:#948681;fill-opacity:1;fill-rule:evenodd;stroke:none"
             id="path1095" />
        </g>
        <g
           id="g1097"
           transform="translate(450.084,355.1172)">
          <path
             d="m 0,0 c 0.68,0.057 1.389,0.114 2.136,0.171 16.219,1.222 16.781,10.063 41.002,0.991 10.472,-3.922 8.766,-10.146 25.515,-18.651 29.617,-15.038 50.719,-112.48 18.507,-117.335 -44.171,-6.657 -85.799,12.032 -131.212,7.645 1.028,0.368 2.139,0.702 3.351,0.991 9.491,2.274 18.939,4.324 28.427,6.507 10.311,2.373 6.117,16.429 12.908,18.406 5.172,1.505 16.621,-9.442 23.088,-11.736 5.61,-1.99 12.003,-1.259 17.735,-1.294 11.142,-0.133 25.799,-1.03 35.285,8.239 2.088,2.038 5.332,7.136 1.756,10.1 -5.125,4.247 -6.39,6.09 -8.766,14.371 -1.598,5.576 -2.919,14.855 -7.745,15.375 l -1.326,0.144 c -4.122,0.401 -19.034,-0.478 -16.784,10.825 2.224,11.164 19.01,11.595 19.631,20.785 0.27,4.003 -0.911,8.835 -3.791,10.308 -7.349,3.225 -19.272,-0.815 -24.074,10.714 C 32.478,-5.843 31.432,1.197 23.986,1.411 17.602,1.594 5.491,-6.339 0,0"
             style="fill:#766864;fill-opacity:1;fill-rule:evenodd;stroke:none"
             id="path1099" />
        </g>
        <g
           id="g1101"
           transform="translate(525.6533,332.5264)">
          <path
             d="m 0,0 c 25.733,-24.927 41.228,-107.766 11.591,-112.233 -19.898,-2.999 -39.278,-0.854 -58.722,2.007 2.471,0.857 5.072,1.609 8.037,2.246 5.401,1.163 10.063,2.216 15.324,4.365 14.111,4.94 17.286,-11.755 35.347,5.215 9.145,8.588 6.36,18.577 6.367,32.547 0.005,8.193 -1.197,8.994 -4.706,15.479 -4.067,7.777 -6.051,12.777 -4.543,22.477 1.227,7.879 -1.976,15.428 -5.21,21.662 C 2.52,-4.369 1.3,-2.264 0,0"
             style="fill:#463d3b;fill-opacity:1;fill-rule:evenodd;stroke:none"
             id="path1103" />
        </g>
        <g
           id="g1105"
           transform="translate(429.8135,298.5645)">
          <path
             d="m 0,0 c -11.205,3.725 -14.826,-7.208 -23.963,-6.908 -4.978,0.164 -2.781,6.212 -1.452,10.253 1.539,4.672 3.484,4.308 6.424,7.272 4.387,4.423 9.007,7.599 14.595,6.829 l 2.199,-0.756 c 6.552,-3.122 8.268,-5.012 15.468,-4.544 8.384,0.984 13.069,8.692 22.891,1.591 3.105,-2.244 9.257,-9.827 10.335,-14.748 1.485,-6.775 -10.1,0.39 -11.603,1.046 C 28.926,2.637 25.376,3.364 19.751,0.121 14.961,-2.64 11.785,-2.493 6.648,-2.046 4.39,-1.832 2.195,-0.895 0,0"
             style="fill:#b2a29e;fill-opacity:1;fill-rule:evenodd;stroke:none"
             id="path1107" />
        </g>
        <g
           id="g1109"
           transform="translate(83.5913,310.2314)">
          <path
             d="m 0,0 c 2.154,11.31 10.824,25.491 20.34,28.517 19.933,6.336 14.612,7.999 40.147,10.934 21.094,2.424 21.824,11.305 53.322,4.029 13.619,-3.147 11.4,-9.497 33.182,-16.76 38.517,-12.844 65.958,-108.722 24.067,-115.964 -64.464,-11.145 -124.763,9.871 -192.529,-6.058 -19.167,-4.505 -22.77,34.884 -15.781,51.582 C -28.1,-21.85 -3.554,-18.659 0,0"
             style="fill:#948681;fill-opacity:1;fill-rule:evenodd;stroke:none"
             id="path1111" />
        </g>
        <g
           id="g1113"
           transform="translate(141.3018,349.3521)">
          <path
             d="m 0,0 c 0.884,0.108 1.806,0.218 2.776,0.33 21.094,2.424 21.825,11.306 53.323,4.029 13.618,-3.146 11.4,-9.497 33.182,-16.76 38.516,-12.844 65.957,-108.722 24.067,-115.964 -57.443,-9.929 -111.578,5.673 -170.637,-2.079 1.337,0.446 2.782,0.862 4.358,1.24 12.343,2.977 24.63,5.729 36.969,8.614 13.41,3.137 7.954,16.883 16.787,19.363 6.725,1.888 21.613,-8.21 30.024,-10.026 7.295,-1.574 15.609,-0.369 23.064,0.022 14.49,0.691 33.55,0.88 45.886,10.852 2.715,2.193 6.935,7.532 2.284,10.23 -6.665,3.869 -8.31,5.616 -11.398,13.723 -2.079,5.457 -3.797,14.637 -10.074,14.801 l -1.724,0.043 c -5.361,0.097 -24.754,-1.886 -21.827,9.582 2.891,11.329 24.722,13.005 25.53,22.241 0.351,4.023 -1.186,8.768 -4.931,10.027 -9.557,2.681 -25.062,-2.242 -31.306,8.93 C 42.236,-3.436 40.875,3.527 31.192,3.189 22.89,2.899 7.141,-5.931 0,0"
             style="fill:#766864;fill-opacity:1;fill-rule:evenodd;stroke:none"
             id="path1115" />
        </g>
        <g
           id="g1117"
           transform="translate(239.5752,332.3623)">
          <path
             d="m 0,0 c 33.467,-23.022 53.616,-104.71 15.074,-111.375 -25.875,-4.473 -51.079,-3.765 -76.365,-2.344 3.214,1.04 6.596,1.985 10.453,2.841 7.022,1.564 13.085,2.964 19.926,5.501 18.351,5.985 22.48,-10.474 45.97,7.834 11.89,9.267 8.272,19.049 8.28,33.021 0.005,8.193 -1.557,8.905 -6.12,15.128 -5.291,7.477 -7.872,12.33 -5.909,22.141 1.595,7.971 -2.57,15.282 -6.774,21.275 C 3.277,-4.184 1.691,-2.168 0,0"
             style="fill:#463d3b;fill-opacity:1;fill-rule:evenodd;stroke:none"
             id="path1119" />
        </g>
        <g
           id="g1121"
           transform="translate(114.9399,291.2979)">
          <path
             d="m 0,0 c -14.572,2.895 -19.28,-8.309 -31.161,-8.684 -6.475,-0.205 -3.618,6.005 -1.889,10.145 1.999,4.787 4.532,4.567 8.352,7.748 5.704,4.748 11.714,8.268 18.982,7.912 l 2.858,-0.593 c 8.521,-2.637 10.753,-4.401 20.117,-3.399 10.902,1.604 16.994,9.66 29.769,3.288 C 51.064,14.403 59.065,7.275 60.468,2.436 62.399,-4.23 47.334,2.076 45.377,2.621 37.617,4.781 33,5.244 25.686,1.586 19.457,-1.531 15.326,-1.619 8.648,-1.553 5.71,-1.506 2.855,-0.732 0,0"
             style="fill:#b2a29e;fill-opacity:1;fill-rule:evenodd;stroke:none"
             id="path1123" />
        </g>
        <g
           id="g1125"
           transform="translate(246.1089,221.8877)">
          <path
             d="m 0,0 c -5.962,35.915 -17.871,62.81 -38.842,75.967 12.477,-24.439 16.79,-49.432 11.67,-75.069 -1.934,19.115 -8.87,32.692 -22.707,38.63 7.195,-13.323 7.426,-26.955 1.165,-40.876 -2.104,21.266 -12.453,30.764 -30.083,29.87 14.525,-8.668 17.57,-27.293 13.586,-43.12 34.807,-0.596 73.886,-1.194 108.694,-1.793 C 19.239,21.079 3.856,68.585 0.776,130.036 -8.622,93.741 -9.234,50.668 0,0"
             style="fill:#9ac421;fill-opacity:1;fill-rule:evenodd;stroke:none"
             id="path1127" />
        </g>
        <g
           id="g1129"
           transform="translate(185.167,207.29)">
          <path
             d="M 0,0 C 34.809,-0.597 69.617,-1.194 104.425,-1.793 100.982,3.526 97.72,9.049 94.646,14.784 65.873,6.466 34.614,1.185 0,0"
             style="fill:#87b027;fill-opacity:1;fill-rule:evenodd;stroke:none"
             id="path1131" />
        </g>
        <g
           id="g1133"
           transform="translate(399.3662,253.624)">
          <path
             d="M 0,0 C 5.963,35.915 17.87,62.811 38.842,75.967 26.365,51.528 22.052,26.534 27.173,0.899 29.107,20.013 42.641,44.596 56.479,50.532 49.283,37.21 42.452,12.573 48.714,-1.348 54.505,17.678 61.167,29.415 78.798,28.522 64.272,19.854 62.393,-18.085 66.376,-33.913 31.567,-34.51 -7.51,-35.107 -42.317,-35.704 -18.075,1.764 -3.855,68.586 -0.776,130.035 8.622,93.74 9.235,50.668 0,0"
             style="fill:#9ac421;fill-opacity:1;fill-rule:evenodd;stroke:none"
             id="path1135" />
        </g>
        <g
           id="g1137"
           transform="translate(448.0801,252.2764)">
          <path
             d="M 0,0 C 5.791,19.025 12.453,30.763 30.084,29.87 16.243,28.417 7.501,11.231 1.038,-12.985 1.006,-12.873 0.975,-12.761 0.942,-12.649 0.628,-8.433 0.314,-4.216 0,0 m -20.646,8.008 8.001,-9.203 C -10.048,19.465 -5.462,38.72 7.765,51.88 -4.717,46.525 -16.947,26.004 -20.646,8.008 m -3.005,15.782 c -0.018,-4.388 0.238,-8.793 0.773,-13.219 l -4.808,5.529 c 0.067,0.186 0.13,0.374 0.195,0.561 z m -10.79,25.029 c 6.276,12.399 14.344,22.08 24.569,28.495 C -22.185,67.618 -27.33,52.853 -30.597,36.76 Z"
             style="fill:#adda1a;fill-opacity:1;fill-rule:evenodd;stroke:none"
             id="path1139" />
        </g>
        <g
           id="g1141"
           transform="translate(246.8853,351.9233)">
          <path
             d="M 0,0 C -7.469,-28.846 -9.388,-61.974 -5.226,-99.792 -5.796,-67.092 -4.345,-33.899 0,0 m -50.655,-90.507 c 16.075,-16.219 14.073,-29.448 1.164,-40.876 6.262,13.921 6.031,27.553 -1.164,40.876 m -28.919,-11.006 c 14.526,-8.668 17.571,-27.294 13.586,-43.12 14.38,12.844 3.477,38.773 -13.586,43.12 m 39.956,47.444 c 12.477,-24.438 16.79,-49.431 11.67,-75.068 16.919,25.389 5.644,50.281 -11.67,75.068"
             style="fill:#adda1a;fill-opacity:1;fill-rule:evenodd;stroke:none"
             id="path1143" />
        </g>
        <g
           id="g1145"
           transform="translate(329.3232,189.1406)">
          <path
             d="m 0,0 c -46.948,0 -85.007,30.768 -85.007,68.722 1.881,27.541 15.2,35.643 20.155,65.099 4.884,33.133 10.957,91.832 42.375,105.989 5.452,2.455 2.437,-1.401 10.875,4.153 35.414,23.316 53.386,-23.442 87.526,-23.873 17.133,-0.216 20.555,-8.189 18.511,-27.648 -1.951,-18.55 -9.751,-39.73 -10.01,-57.051 C 85.958,93.118 150.549,46.502 113.666,25.107 95.453,14.541 70.564,22.26 47.218,11.463 29.353,3.2 19.449,0.427 0,0"
             style="fill:#948681;fill-opacity:1;fill-rule:evenodd;stroke:none"
             id="path1147" />
        </g>
        <g
           id="g1149"
           transform="translate(329.3232,189.1406)">
          <path
             d="m 0,0 c -18.762,0 -36.102,4.917 -50.163,13.241 5.321,2.494 10.642,4.974 15.755,7.764 19.313,10.535 39.565,-4.073 55.482,17.857 7.319,10.084 9.408,17.579 19.12,26.601 4.121,3.829 5.51,5.575 8.001,10.997 2.318,6.904 -1.802,13.46 -4.293,19.781 -4.24,12.242 -13.511,35.894 -9.78,48.461 2.422,8.153 9.565,20.777 9.526,27.462 -0.093,16.536 -15.248,24.163 -16.208,50.589 -0.159,4.313 -0.332,6.12 -1.305,10.32 -3.164,11.544 -14.4,15.008 -24.459,16.738 27.199,5.844 44.646,-29.347 74.248,-29.721 17.133,-0.216 20.555,-8.189 18.511,-27.648 -1.951,-18.55 -9.751,-39.73 -10.01,-57.051 C 85.958,93.118 150.549,46.502 113.666,25.107 95.453,14.541 70.564,22.26 47.218,11.463 29.353,3.2 19.449,0.427 0,0"
             style="fill:#766864;fill-opacity:1;fill-rule:evenodd;stroke:none"
             id="path1151" />
        </g>
        <g
           id="g1153"
           transform="translate(413.29,408.3179)">
          <path
             d="m 0,0 c 10.153,-2.589 12.141,-10.819 10.468,-26.735 -1.95,-18.551 -9.751,-39.73 -10.01,-57.052 1.533,-42.272 66.124,-88.888 29.241,-110.284 -18.213,-10.565 -43.102,-2.847 -66.448,-13.643 -12.606,-5.83 -21.247,-8.927 -32.075,-10.396 9.258,11.875 23.449,23.69 32.725,28.427 13.682,6.984 29.159,13.532 36.979,29.964 6.64,15.805 2.843,33.702 -2.524,49.147 -11.7,33.674 -2.261,41.129 5.494,72.549 0.643,2.606 1.184,5.186 1.762,7.81 2.821,12.204 -0.73,16.868 -4.913,28.302 l -0.685,1.875 z"
             style="fill:#463d3b;fill-opacity:1;fill-rule:evenodd;stroke:none"
             id="path1155" />
        </g>
        <g
           id="g1157"
           transform="translate(290.9697,283.1738)">
          <path
             d="m 0,0 c -10.59,-2.224 -19.914,0.237 -23.159,13.601 -1.951,11.397 5.976,11.701 13.706,14.317 12.84,4.896 25.123,18.513 38.57,8.876 8.324,-5.965 9.83,-6.988 18.867,-11.15 C 55.42,22.22 69.688,14.439 59.955,3.524 46.774,-11.26 19.975,2.938 3.744,0.607 L 2.012,0.358 Z"
             style="fill:#b2a29e;fill-opacity:1;fill-rule:evenodd;stroke:none"
             id="path1159" />
        </g>
      </g>
    </g>
  </g>
</svg>
