<?xml version="1.0" encoding="UTF-8" standalone="no"?>
<svg
   xmlns:dc="http://purl.org/dc/elements/1.1/"
   xmlns:cc="http://creativecommons.org/ns#"
   xmlns:rdf="http://www.w3.org/1999/02/22-rdf-syntax-ns#"
   xmlns:svg="http://www.w3.org/2000/svg"
   xmlns="http://www.w3.org/2000/svg"
   xmlns:xlink="http://www.w3.org/1999/xlink"
   version="1.1"
   id="svg2"
   height="503.84167"
   width="647.20276">
  <title
     id="title867">Planeta Saturno</title>
  <defs
     id="defs4">
    <linearGradient
       id="linearGradient4021">
      <stop
         style="stop-color:#353022;stop-opacity:1;"
         offset="0"
         id="stop4073" />
      <stop
         style="stop-color:#b49f67;stop-opacity:1;"
         offset="0.07790872"
         id="stop4071" />
      <stop
         style="stop-color:#a9a598;stop-opacity:1;"
         offset="0.20152791"
         id="stop4069" />
      <stop
         style="stop-color:#baab86;stop-opacity:1;"
         offset="0.28701425"
         id="stop4067" />
      <stop
         style="stop-color:#ebdebc;stop-opacity:1;"
         offset="0.43899861"
         id="stop4055" />
      <stop
         style="stop-color:#d6ab5e;stop-opacity:1;"
         offset="0.52933502"
         id="stop4053" />
      <stop
         style="stop-color:#d8bd7d;stop-opacity:1;"
         offset="0.61089581"
         id="stop4051" />
      <stop
         style="stop-color:#988356;stop-opacity:1;"
         offset="0.70910794"
         id="stop4049" />
      <stop
         style="stop-color:#65470d;stop-opacity:1;"
         offset="0.81494862"
         id="stop4031" />
      <stop
         style="stop-color:#685636;stop-opacity:1;"
         offset="0.91424805"
         id="stop4029" />
      <stop
         id="stop4025"
         offset="1"
         style="stop-color:#3d2d10;stop-opacity:1;" />
    </linearGradient>
    <linearGradient
       id="linearGradient4009">
      <stop
         id="stop4011"
         offset="0"
         style="stop-color:#303030;stop-opacity:1;" />
      <stop
         style="stop-color:#ffffff;stop-opacity:1;"
         offset="0.125"
         id="stop3785" />
      <stop
         style="stop-color:#b7acaa;stop-opacity:1;"
         offset="0.25"
         id="stop3783" />
      <stop
         style="stop-color:#d3d3d3;stop-opacity:1;"
         offset="0.5"
         id="stop4019" />
      <stop
         id="stop4013"
         offset="1"
         style="stop-color:#ae9d95;stop-opacity:1;" />
    </linearGradient>
    <radialGradient
       gradientUnits="userSpaceOnUse"
       gradientTransform="matrix(1.0666667,0,0,0.8122574,0,141.98205)"
       r="220.69496"
       fy="558.08521"
       fx="342.09235"
       cy="558.08521"
       cx="342.09235"
       id="radialGradient4015"
       xlink:href="#linearGradient4009" />
    <radialGradient
       gradientUnits="userSpaceOnUse"
       gradientTransform="matrix(-0.4346473,0.88141659,-0.71279622,-0.35149662,931.56605,507.11393)"
       r="222.47627"
       fy="573.89105"
       fx="348.02759"
       cy="573.89105"
       cx="348.02759"
       id="radialGradient4017"
       xlink:href="#linearGradient4009" />
    <radialGradient
       gradientUnits="userSpaceOnUse"
       gradientTransform="matrix(0.81477957,2.3283686,-2.5212994,0.79976913,1940.1496,59.846546)"
       r="159.59596"
       fy="605.25366"
       fx="-75.569107"
       cy="605.25366"
       cx="-75.569107"
       id="radialGradient4027"
       xlink:href="#linearGradient4021" />
    <radialGradient
       r="222.47627"
       fy="573.89105"
       fx="348.02759"
       cy="573.89105"
       cx="348.02759"
       gradientTransform="matrix(-0.4346473,0.88141659,-0.71279622,-0.35149662,931.56605,507.11393)"
       gradientUnits="userSpaceOnUse"
       id="radialGradient49"
       xlink:href="#linearGradient4009" />
  </defs>
  <metadata
     id="metadata7">
    <rdf:RDF>
      <cc:Work
         rdf:about="">
        <dc:format>image/svg+xml</dc:format>
        <dc:type
           rdf:resource="http://purl.org/dc/dcmitype/StillImage" />
        <dc:title>Planeta Saturno</dc:title>
        <cc:license
           rdf:resource="http://creativecommons.org/publicdomain/zero/1.0/" />
        <dc:creator>
          <cc:Agent>
            <dc:title>estebanospina</dc:title>
          </cc:Agent>
        </dc:creator>
        <dc:source>https://openclipart.org/user-detail/estebanospina</dc:source>
        <dc:publisher>
          <cc:Agent>
            <dc:title>Openclip.org</dc:title>
          </cc:Agent>
        </dc:publisher>
        <dc:identifier>https://openclipart.org/</dc:identifier>
        <dc:subject>
          <rdf:Bag />
        </dc:subject>
      </cc:Work>
      <cc:License
         rdf:about="http://creativecommons.org/publicdomain/zero/1.0/">
        <cc:permits
           rdf:resource="http://creativecommons.org/ns#Reproduction" />
        <cc:permits
           rdf:resource="http://creativecommons.org/ns#Distribution" />
        <cc:permits
           rdf:resource="http://creativecommons.org/ns#DerivativeWorks" />
      </cc:License>
    </rdf:RDF>
  </metadata>
  <g
     transform="translate(-73.249012,-309.33898)"
     id="layer1">
    <g
       transform="translate(26.792034,-42.766535)"
       id="g863">
      <title
         id="title865">Planeta Saturno  --  by estebanospina</title>
      <path
         style="fill:url(#radialGradient4015);fill-opacity:1;fill-rule:nonzero;stroke:none;stroke-width:1.06666672"
         d="M 134.79101,774.55198 C 107.51766,726.86641 188.14032,613.47973 315.79667,520.40327 444.1886,426.79052 571.52763,389.20768 600.2111,436.40358 c 0.029,0.0454 0.0671,0.0852 0.0954,0.13133 l -52.92932,38.4327 c -0.0118,-0.0181 -0.0264,-0.0345 -0.0381,-0.0525 C 525.17714,438.44988 426.8319,467.523 327.6317,539.85156 229.06582,611.71763 166.77353,699.23264 187.72038,736.11929 l -52.92933,38.43269 z"
         id="path4005" />
      <path
         id="path4003"
         d="M 53.618013,836.47685 C 16.771122,772.0526 125.6941,618.86473 298.16062,493.11641 471.62089,366.64355 643.65866,315.86832 682.41068,379.631 c 0.0394,0.0614 0.0903,0.1154 0.12884,0.17745 l -71.50868,51.92341 c -0.0155,-0.0248 -0.0363,-0.0463 -0.0515,-0.0709 C 581.03811,382.39559 448.17156,421.67402 314.14995,519.39147 180.98533,616.48413 96.827047,734.71879 125.12671,784.55346 l -71.508676,51.92341 z"
         style="fill:#483737;fill-opacity:1;fill-rule:nonzero;stroke:none;stroke-width:1.06666672" />
      <ellipse
         style="fill:url(#radialGradient4027);fill-opacity:1;fill-rule:nonzero;stroke:none;stroke-width:1.08007169"
         id="path3993"
         transform="matrix(0.95410874,0.29946035,-0.3343851,0.94243652,0,0)"
         cx="557.3916"
         cy="467.49689"
         rx="167.31198"
         ry="159.60747" />
      <path
         style="fill:#483737;fill-opacity:1;fill-rule:nonzero;stroke:none;stroke-width:1.06666672"
         d="M 52.443165,834.85885 C 102.29708,889.83853 281.67803,833.68502 454.63714,708.61511 628.59283,582.82455 730.12862,434.95433 681.49351,378.36789 c -0.0463,-0.0564 -0.0818,-0.12167 -0.12884,-0.17745 l -71.50868,51.92343 c 0.0189,0.0224 0.0328,0.0488 0.0515,0.0709 37.57719,43.72073 -40.90097,157.90256 -175.30536,255.09284 -133.54499,96.56881 -272.02358,139.99381 -310.65033,97.65775 l -71.508677,51.92343 z"
         id="path3974" />
      <path
         id="path4007"
         d="m 133.92142,773.35439 c 36.90089,40.69487 169.67517,-0.86884 297.69614,-93.44316 C 560.37618,586.8035 635.531,477.35282 599.53223,435.46865 c -0.0342,-0.0417 -0.0603,-0.0902 -0.0954,-0.13133 l -52.92932,38.4327 c 0.0136,0.0169 0.0245,0.0356 0.0381,0.0525 27.8139,32.36121 -30.2741,116.87639 -129.75763,188.81476 -98.84735,71.47842 -201.34652,103.62073 -229.93727,72.28444 l -52.92932,38.43269 z"
         style="fill:url(#radialGradient49);fill-opacity:1;fill-rule:nonzero;stroke:none;stroke-width:1.06666672" />
      <path
         style="fill:url(#radialGradient4017);fill-opacity:1;fill-rule:nonzero;stroke:none;stroke-width:1.06666672"
         d="m 133.92142,773.35439 c 36.90089,40.69487 169.67517,-0.86884 297.69614,-93.44316 C 560.37618,586.8035 635.531,477.35282 599.53223,435.46865 c -0.0342,-0.0417 -0.0603,-0.0902 -0.0954,-0.13133 l -52.92932,38.4327 c 0.0136,0.0169 0.0245,0.0356 0.0381,0.0525 27.8139,32.36121 -30.2741,116.87639 -129.75763,188.81476 -98.84735,71.47842 -201.34652,103.62073 -229.93727,72.28444 l -52.92932,38.43269 z"
         id="path3862" />
    </g>
  </g>
</svg>
