<?xml version="1.0" encoding="UTF-8" standalone="no"?>
<!-- Created with Inkscape (http://www.inkscape.org/) -->

<svg
   version="1.1"
   id="svg316"
   width="1200"
   height="1200"
   viewBox="0 0 1200 1200"
   sodipodi:docname="crocodile-in-water-publicdomain.svg"
   inkscape:version="1.2 (dc2aedaf03, 2022-05-15)"
   xmlns:inkscape="http://www.inkscape.org/namespaces/inkscape"
   xmlns:sodipodi="http://sodipodi.sourceforge.net/DTD/sodipodi-0.dtd"
   xmlns="http://www.w3.org/2000/svg"
   xmlns:svg="http://www.w3.org/2000/svg">
  <defs
     id="defs320">
    <clipPath
       clipPathUnits="userSpaceOnUse"
       id="clipPath332">
      <path
         d="M 0,900 H 900 V 0 H 0 Z"
         id="path330" />
    </clipPath>
  </defs>
  <sodipodi:namedview
     id="namedview318"
     pagecolor="#ffffff"
     bordercolor="#000000"
     borderopacity="0.25"
     inkscape:showpageshadow="2"
     inkscape:pageopacity="0.0"
     inkscape:pagecheckerboard="0"
     inkscape:deskcolor="#d1d1d1"
     showgrid="false"
     inkscape:zoom="0.6975"
     inkscape:cx="600"
     inkscape:cy="600.71685"
     inkscape:window-width="1920"
     inkscape:window-height="1017"
     inkscape:window-x="-8"
     inkscape:window-y="-8"
     inkscape:window-maximized="1"
     inkscape:current-layer="g324">
    <inkscape:page
       x="0"
       y="0"
       id="page322"
       width="1200"
       height="1200" />
  </sodipodi:namedview>
  <g
     id="g324"
     inkscape:groupmode="layer"
     inkscape:label="Page 1"
     transform="matrix(1.3333333,0,0,-1.3333333,0,1200)">
    <g
       id="g326">
      <g
         id="g328"
         clip-path="url(#clipPath332)">
        <g
           id="g334"
           transform="translate(435.9399,176.9141)">
          <path
             d="m 0,0 c 202.726,0 368.072,79.684 368.072,177.384 0,97.699 -165.346,177.383 -368.072,177.383 -202.728,0 -368.072,-79.684 -368.072,-177.383 C -368.072,79.684 -202.728,0 0,0"
             style="fill:#ecf2c9;fill-opacity:1;fill-rule:evenodd;stroke:none"
             id="path336" />
        </g>
        <g
           id="g338"
           transform="translate(204.894,387.5479)">
          <path
             d="m 0,0 h 507.667 c 12.361,0 22.472,-10.109 22.472,-22.471 v -0.002 c 0,-12.359 -10.111,-22.47 -22.472,-22.47 H 0 c -12.359,0 -22.472,10.111 -22.472,22.47 v 0.002 C -22.472,-10.109 -12.359,0 0,0"
             style="fill:#f7fae6;fill-opacity:1;fill-rule:evenodd;stroke:none"
             id="path340" />
        </g>
        <g
           id="g342"
           transform="translate(524.207,422.7949)">
          <path
             d="m 0,0 -21.172,2.805 0.362,-4.46 -19.77,2.928 0.379,-4.528 -19.531,2.229 0.334,-3.858 -20.253,2.071 0.336,-3.805 -21.276,3.039 0.972,-4.842 -21.401,2.544 0.786,-4.147 -21.216,2.357 0.412,-4.507 -22.884,2.466 0.416,-4.525 -21.61,3.247 0.472,-5.178 -15.03,3.392 0.428,-4.722 -15.75,2.679 0.369,-4.073 -14.667,3.307 0.407,-4.585 -15.222,3.818 0.328,-5.121 98.244,-13.52 z"
             style="fill:#667802;fill-opacity:1;fill-rule:evenodd;stroke:none"
             id="path344" />
        </g>
        <g
           id="g346"
           transform="translate(710.2617,364.3105)">
          <path
             d="m 0,0 h -480.086 c -44.462,32.861 -37.255,93.973 9.193,114.404 -1.662,-2.778 -3.166,-5.496 -4.506,-8.152 -8.033,-15.898 -6.901,-33.595 3.091,-48.344 9.99,-14.747 26.005,-22.359 43.751,-20.795 80.834,7.123 161.602,15.079 242.502,21.371 52.563,4.092 56.282,-19.891 72.928,-27.096 h 86.58 C -11.926,31.388 0,19.464 0,4.841 Z"
             style="fill:#82970a;fill-opacity:1;fill-rule:evenodd;stroke:none"
             id="path348" />
        </g>
        <g
           id="g350"
           transform="translate(547.8496,385.2529)">
          <path
             d="m 0,0 c 8.438,0 15.32,7.283 15.32,16.214 0,8.933 -6.882,16.219 -15.32,16.219 -8.436,0 -15.316,-7.286 -15.316,-16.219 C -15.316,7.283 -8.436,0 0,0"
             style="fill:#ffffff;fill-opacity:1;fill-rule:evenodd;stroke:none"
             id="path352" />
        </g>
        <g
           id="g354"
           transform="translate(553.4082,394.5518)">
          <path
             d="m 0,0 c 2.92,0 5.301,3.361 5.301,7.479 0,4.122 -2.381,7.48 -5.301,7.48 -2.92,0 -5.303,-3.358 -5.303,-7.48 C -5.303,3.361 -2.92,0 0,0"
             style="fill:#333333;fill-opacity:1;fill-rule:evenodd;stroke:none"
             id="path356" />
        </g>
        <g
           id="g358"
           transform="translate(548.873,400.5742)">
          <path
             d="M 0,0 C 2.25,0 4.086,1.833 4.086,4.087 4.086,6.337 2.25,8.172 0,8.172 -2.252,8.172 -4.088,6.337 -4.088,4.087 -4.088,1.833 -2.252,0 0,0"
             style="fill:#ffffff;fill-opacity:1;fill-rule:evenodd;stroke:none"
             id="path360" />
        </g>
        <g
           id="g362"
           transform="translate(546.7676,428.0615)">
          <path
             d="m 0,0 c 12.941,0 23.434,-10.491 23.434,-23.434 h -46.87 C -23.436,-10.491 -12.943,0 0,0"
             style="fill:#667802;fill-opacity:1;fill-rule:evenodd;stroke:none"
             id="path364" />
        </g>
        <g
           id="g366"
           transform="translate(270.147,425.0625)">
          <path
             d="m 0,0 c -3.996,0 -7.237,3.241 -7.237,7.24 0,3.998 3.241,7.238 7.237,7.238 h 71.506 c 3.996,0 7.237,-3.24 7.237,-7.238 C 78.743,3.241 75.502,0 71.506,0 Z m 154.925,23.835 c -4,0 -7.241,3.24 -7.241,7.24 0,3.996 3.241,7.239 7.241,7.239 h 109.807 c 3.998,0 7.236,-3.243 7.236,-7.239 0,-4 -3.238,-7.24 -7.236,-7.24 z M -67.244,-139.6 c -3.998,0 -7.238,3.243 -7.238,7.241 0,3.996 3.24,7.238 7.238,7.238 h 32.345 c 3.999,0 7.239,-3.242 7.239,-7.238 0,-3.998 -3.24,-7.241 -7.239,-7.241 z m 240.894,-1.694 c 3.999,0 7.238,-3.242 7.238,-7.24 0,-3.996 -3.239,-7.238 -7.238,-7.238 H 63.843 c -3.996,0 -7.239,3.242 -7.239,7.238 0,3.998 3.243,7.24 7.239,7.24 z M 16.601,-96.158 c 3.998,0 7.237,-3.242 7.237,-7.24 0,-3.999 -3.239,-7.239 -7.237,-7.239 h -82.926 c -13.937,0 -26.601,5.696 -35.778,14.873 -9.177,9.178 -14.873,21.842 -14.873,35.779 0,9.914 2.891,19.194 7.87,27.032 5.131,8.074 12.501,14.624 21.228,18.761 3.607,1.701 7.912,0.158 9.614,-3.451 1.702,-3.608 0.158,-7.912 -3.45,-9.615 -6.221,-2.947 -11.491,-7.641 -15.176,-13.44 -3.549,-5.587 -5.608,-12.205 -5.608,-19.287 0,-9.941 4.072,-18.984 10.631,-25.541 6.559,-6.562 15.601,-10.632 25.542,-10.632 z"
             style="fill:#d3dba4;fill-opacity:1;fill-rule:evenodd;stroke:none"
             id="path368" />
        </g>
        <g
           id="g370"
           transform="translate(579.1406,429.3184)">
          <path
             d="m 0,0 c -3.998,0 -7.238,3.242 -7.238,7.24 0,3.998 3.24,7.239 7.238,7.239 h 44.264 c 3.998,0 7.24,-3.241 7.24,-7.239 C 51.504,3.242 48.262,0 44.264,0 Z m -207.695,-196.63 c -4.001,0 -7.24,3.241 -7.24,7.237 0,3.999 3.239,7.241 7.24,7.241 h 161.728 c 4,0 7.239,-3.242 7.239,-7.241 0,-3.996 -3.239,-7.237 -7.239,-7.237 z m 305.586,74.065 c 4,0 7.24,-3.243 7.24,-7.241 0,-3.996 -3.24,-7.238 -7.24,-7.238 H 13.195 c -3.998,0 -7.238,3.242 -7.238,7.238 0,3.998 3.24,7.241 7.238,7.241 z m -210.676,22.151 c 3.996,0 7.238,-3.242 7.238,-7.24 0,-3.998 -3.242,-7.239 -7.238,-7.239 h -143.856 c -3.998,0 -7.237,3.241 -7.237,7.239 0,3.998 3.239,7.24 7.237,7.24 z"
             style="fill:#f7fae6;fill-opacity:1;fill-rule:evenodd;stroke:none"
             id="path372" />
        </g>
        <g
           id="g374"
           transform="translate(647.6641,328.9043)">
          <path
             d="m 0,0 c 3.998,0 7.24,-3.242 7.24,-7.24 0,-3.998 -3.242,-7.238 -7.24,-7.238 h -149.812 c -3.999,0 -7.241,3.24 -7.241,7.238 0,3.998 3.242,7.24 7.241,7.24 z"
             style="fill:#d3dba4;fill-opacity:1;fill-rule:evenodd;stroke:none"
             id="path376" />
        </g>
        <g
           id="g378"
           transform="translate(713.6348,401.25)">
          <path
             d="m 0,0 c -3.996,0 -7.238,3.24 -7.238,7.238 0,3.998 3.242,7.239 7.238,7.239 13.935,0 26.6,-5.696 35.777,-14.874 9.178,-9.177 14.873,-21.841 14.873,-35.776 0,-13.936 -5.695,-26.6 -14.873,-35.778 C 26.6,-81.129 13.935,-86.824 0,-86.824 c -3.996,0 -7.238,3.24 -7.238,7.238 0,3.998 3.242,7.24 7.238,7.24 9.939,0 18.982,4.071 25.543,10.632 6.557,6.558 10.629,15.601 10.629,25.541 0,9.941 -4.072,18.983 -10.629,25.541 C 18.982,-4.071 9.939,0 0,0"
             style="fill:#d3dba4;fill-opacity:1;fill-rule:evenodd;stroke:none"
             id="path380" />
        </g>
        <g
           id="g382"
           transform="translate(615.3184,401.25)">
          <path
             d="m 0,0 c -3.998,0 -7.238,3.24 -7.238,7.238 0,3.998 3.24,7.239 7.238,7.239 h 61.287 c 3.998,0 7.24,-3.241 7.24,-7.239 C 68.527,3.24 65.285,0 61.287,0 Z"
             style="fill:#d3dba4;fill-opacity:1;fill-rule:evenodd;stroke:none"
             id="path384" />
        </g>
        <g
           id="g386"
           transform="translate(681.6055,385.4307)">
          <path
             d="m 0,0 c 5.656,0 10.268,4.616 10.268,10.268 0,5.656 -4.612,10.269 -10.268,10.269 -5.654,0 -10.268,-4.613 -10.268,-10.269 C -10.268,4.616 -5.654,0 0,0"
             style="fill:#82970a;fill-opacity:1;fill-rule:evenodd;stroke:none"
             id="path388" />
        </g>
        <g
           id="g390"
           transform="translate(681.6055,388.5732)">
          <path
             d="m 0,0 c 3.926,0 7.129,3.2 7.129,7.125 0,3.927 -3.203,7.13 -7.129,7.13 -3.926,0 -7.129,-3.203 -7.129,-7.13 C -7.129,3.2 -3.926,0 0,0"
             style="fill:#667802;fill-opacity:1;fill-rule:evenodd;stroke:none"
             id="path392" />
        </g>
        <g
           id="g394"
           transform="translate(659.4727,385.4307)">
          <path
             d="m 0,0 c 5.656,0 10.268,4.616 10.268,10.268 0,5.656 -4.612,10.269 -10.268,10.269 -5.656,0 -10.268,-4.613 -10.268,-10.269 C -10.268,4.616 -5.656,0 0,0"
             style="fill:#82970a;fill-opacity:1;fill-rule:evenodd;stroke:none"
             id="path396" />
        </g>
        <g
           id="g398"
           transform="translate(659.4727,388.5732)">
          <path
             d="m 0,0 c 3.926,0 7.127,3.2 7.127,7.125 0,3.927 -3.201,7.13 -7.127,7.13 -3.928,0 -7.131,-3.203 -7.131,-7.13 C -7.131,3.2 -3.928,0 0,0"
             style="fill:#667802;fill-opacity:1;fill-rule:evenodd;stroke:none"
             id="path400" />
        </g>
        <g
           id="g402"
           transform="translate(477.7363,399.7373)">
          <path
             d="m 0,0 c 2.645,0 4.787,-2.143 4.787,-4.787 0,-2.644 -2.142,-4.787 -4.787,-4.787 -2.645,0 -4.787,2.143 -4.787,4.787 C -4.787,-2.143 -2.645,0 0,0 m -27.026,5.96 c 1.823,0 3.301,-1.479 3.301,-3.299 0,-1.82 -1.478,-3.298 -3.301,-3.298 -1.822,0 -3.298,1.478 -3.298,3.298 0,1.82 1.476,3.299 3.298,3.299 m -6.277,-15.321 c 2.234,0 4.044,-1.812 4.044,-4.044 0,-2.233 -1.81,-4.044 -4.044,-4.044 -2.233,0 -4.044,1.811 -4.044,4.044 0,2.232 1.811,4.044 4.044,4.044 m 53.625,0.636 c 3.41,0 6.172,-2.76 6.172,-6.172 0,-3.406 -2.762,-6.168 -6.172,-6.168 -3.406,0 -6.168,2.762 -6.168,6.168 0,3.412 2.762,6.172 6.168,6.172 M 0.428,13.62 c 1.467,0 2.658,-1.189 2.658,-2.659 C 3.086,9.492 1.895,8.3 0.428,8.3 c -1.471,0 -2.662,1.192 -2.662,2.661 0,1.47 1.191,2.659 2.662,2.659 M -58.201,1.279 c 3.174,0 5.744,-2.575 5.744,-5.747 0,-3.173 -2.57,-5.745 -5.744,-5.745 -3.175,0 -5.745,2.572 -5.745,5.745 0,3.172 2.57,5.747 5.745,5.747 m 13.726,8.3 c 0.999,0 1.81,-0.81 1.81,-1.811 0,-0.997 -0.811,-1.808 -1.81,-1.808 -0.999,0 -1.81,0.811 -1.81,1.808 0,1.001 0.811,1.811 1.81,1.811 m -98.513,-14.752 c 2.871,0 5.198,-2.327 5.198,-5.198 0,-2.869 -2.327,-5.199 -5.198,-5.199 -2.874,0 -5.201,2.33 -5.201,5.199 0,2.871 2.327,5.198 5.201,5.198 m 30.521,3.472 c 2.232,0 4.044,-1.81 4.044,-4.041 0,-2.235 -1.812,-4.044 -4.044,-4.044 -2.232,0 -4.044,1.809 -4.044,4.044 0,2.231 1.812,4.041 4.044,4.041 m 21.281,7.661 c 1.998,0 3.619,-1.619 3.619,-3.617 0,-2 -1.621,-3.616 -3.619,-3.616 -1.998,0 -3.617,1.616 -3.617,3.616 0,1.998 1.619,3.617 3.617,3.617 m 11.704,-21.706 c 1.881,0 3.404,-1.526 3.404,-3.404 0,-1.881 -1.523,-3.405 -3.404,-3.405 -1.879,0 -3.404,1.524 -3.404,3.405 0,1.878 1.525,3.404 3.404,3.404 m 4.256,18.728 c 1.411,0 2.556,-1.144 2.556,-2.554 0,-1.411 -1.145,-2.556 -2.556,-2.556 -1.41,0 -2.553,1.145 -2.553,2.556 0,1.41 1.143,2.554 2.553,2.554 m 95.548,5.956 c 1.881,0 3.406,-1.522 3.406,-3.403 0,-1.881 -1.525,-3.406 -3.406,-3.406 -1.879,0 -3.404,1.525 -3.404,3.406 0,1.881 1.525,3.403 3.404,3.403"
             style="fill:#a7bf1c;fill-opacity:1;fill-rule:evenodd;stroke:none"
             id="path404" />
        </g>
        <g
           id="g406"
           transform="translate(689.7676,482.7539)">
          <path
             d="M 0,0 C 6.109,48.512 17.752,117.454 70.678,125.107 47.117,83.405 14.5,52.095 0,0"
             style="fill:#bad526;fill-opacity:1;fill-rule:evenodd;stroke:none"
             id="path408" />
        </g>
        <g
           id="g410"
           transform="translate(689.7676,482.7539)">
          <path
             d="M 0,0 C -6.109,60.065 -17.75,145.424 -70.674,154.9 -47.115,103.268 -14.5,64.501 0,0"
             style="fill:#bad526;fill-opacity:1;fill-rule:evenodd;stroke:none"
             id="path412" />
        </g>
        <g
           id="g414"
           transform="translate(692.1816,482.7539)">
          <path
             d="m 0,0 c 0,-1.332 -1.08,-2.414 -2.414,-2.414 -1.332,0 -2.412,1.082 -2.412,2.414 v 204.695 c 0,1.332 1.08,2.413 2.412,2.413 1.334,0 2.414,-1.081 2.414,-2.413 z"
             style="fill:#94ab13;fill-opacity:1;fill-rule:evenodd;stroke:none"
             id="path416" />
        </g>
        <g
           id="g418"
           transform="translate(687.4043,681.0659)">
          <path
             d="M 0,0 H 4.777 C 8.146,0 10.9,-2.755 10.9,-6.124 v -26.91 c 0,-3.367 -2.754,-6.123 -6.123,-6.123 H 0 c -3.367,0 -6.125,2.756 -6.125,6.123 v 26.91 C -6.125,-2.755 -3.367,0 0,0"
             style="fill:#663300;fill-opacity:1;fill-rule:evenodd;stroke:none"
             id="path420" />
        </g>
        <g
           id="g422"
           transform="translate(687.3555,678.6963)">
          <path
             d="m 0,0 v 0 c 1.986,0 3.611,-1.625 3.611,-3.61 v -22.839 c 0,-1.987 -1.625,-3.611 -3.611,-3.611 -1.986,0 -3.609,1.624 -3.609,3.611 V -3.61 C -3.609,-1.625 -1.986,0 0,0"
             style="fill:#8a4a0b;fill-opacity:1;fill-rule:evenodd;stroke:none"
             id="path424" />
        </g>
        <g
           id="g426"
           transform="translate(286.1665,201.9434)">
          <path
             d="M 0,0 C 7.689,61.066 22.343,147.848 88.963,157.482 59.309,104.989 18.251,65.576 0,0"
             style="fill:#bad526;fill-opacity:1;fill-rule:evenodd;stroke:none"
             id="path428" />
        </g>
        <g
           id="g430"
           transform="translate(286.1665,201.9434)">
          <path
             d="M 0,0 C -7.691,75.607 -22.343,183.058 -88.967,194.985 -59.311,129.99 -18.253,81.192 0,0"
             style="fill:#bad526;fill-opacity:1;fill-rule:evenodd;stroke:none"
             id="path432" />
        </g>
        <g
           id="g434"
           transform="translate(289.2026,201.9434)">
          <path
             d="m 0,0 c 0,-1.677 -1.358,-3.038 -3.036,-3.038 -1.678,0 -3.038,1.361 -3.038,3.038 v 257.666 c 0,1.676 1.36,3.036 3.038,3.036 1.678,0 3.036,-1.36 3.036,-3.036 z"
             style="fill:#94ab13;fill-opacity:1;fill-rule:evenodd;stroke:none"
             id="path436" />
        </g>
        <g
           id="g438"
           transform="translate(283.189,451.5742)">
          <path
             d="m 0,0 h 6.014 c 4.241,0 7.708,-3.47 7.708,-7.708 v -33.874 c 0,-4.239 -3.467,-7.708 -7.708,-7.708 H 0 c -4.241,0 -7.708,3.469 -7.708,7.708 V -7.708 C -7.708,-3.47 -4.241,0 0,0"
             style="fill:#663300;fill-opacity:1;fill-rule:evenodd;stroke:none"
             id="path440" />
        </g>
        <g
           id="g442"
           transform="translate(283.1284,448.5898)">
          <path
             d="m 0,0 v 0 c 2.501,0 4.546,-2.043 4.546,-4.544 v -28.749 c 0,-2.498 -2.045,-4.544 -4.546,-4.544 -2.501,0 -4.547,2.046 -4.547,4.544 V -4.544 C -4.547,-2.043 -2.501,0 0,0"
             style="fill:#8a4a0b;fill-opacity:1;fill-rule:evenodd;stroke:none"
             id="path444" />
        </g>
        <g
           id="g446"
           transform="translate(295.6128,516.1855)">
          <path
             d="M 0,0 C 4.904,38.953 14.253,94.311 56.749,100.457 37.833,66.971 11.643,41.831 0,0"
             style="fill:#bad526;fill-opacity:1;fill-rule:evenodd;stroke:none"
             id="path448" />
        </g>
        <g
           id="g450"
           transform="translate(295.6128,516.1855)">
          <path
             d="M 0,0 C -4.904,48.229 -14.253,116.77 -56.749,124.379 -37.833,82.919 -11.644,51.792 0,0"
             style="fill:#bad526;fill-opacity:1;fill-rule:evenodd;stroke:none"
             id="path452" />
        </g>
        <g
           id="g454"
           transform="translate(297.5503,516.1855)">
          <path
             d="m 0,0 c 0,-1.069 -0.867,-1.937 -1.937,-1.937 -1.069,0 -1.938,0.868 -1.938,1.937 v 164.361 c 0,1.071 0.869,1.938 1.938,1.938 1.07,0 1.937,-0.867 1.937,-1.938 z"
             style="fill:#94ab13;fill-opacity:1;fill-rule:evenodd;stroke:none"
             id="path456" />
        </g>
        <g
           id="g458"
           transform="translate(293.7124,675.4219)">
          <path
             d="m 0,0 h 3.84 c 2.702,0 4.915,-2.212 4.915,-4.917 v -21.607 c 0,-2.704 -2.213,-4.917 -4.915,-4.917 H 0 c -2.702,0 -4.915,2.213 -4.915,4.917 V -4.917 C -4.915,-2.212 -2.702,0 0,0"
             style="fill:#663300;fill-opacity:1;fill-rule:evenodd;stroke:none"
             id="path460" />
        </g>
        <g
           id="g462"
           transform="translate(293.6753,673.519)">
          <path
             d="m 0,0 h 0.002 c 1.593,0 2.897,-1.304 2.897,-2.899 v -18.338 c 0,-1.595 -1.304,-2.9 -2.897,-2.9 H 0 c -1.595,0 -2.899,1.305 -2.899,2.9 V -2.899 C -2.899,-1.304 -1.595,0 0,0"
             style="fill:#8a4a0b;fill-opacity:1;fill-rule:evenodd;stroke:none"
             id="path464" />
        </g>
      </g>
    </g>
  </g>
</svg>
